# MagicaVoxel @ Ephtracy

# group
g Link_NES_0

# material
mtllib Link_NES_0.mtl
usemtl palette

# normals
vn -1 0 0
vn 1 0 0
vn 0 0 1
vn 0 0 -1
vn 0 -1 0
vn 0 1 0

# texcoords
vt 0.0332031 0.5
vt 0.306641 0.5
vt 0.310547 0.5
vt 0.396484 0.5
vt 0.744141 0.5
vt 0.833984 0.5
vt 0.962891 0.5

# verts
v -7 2 7.5
v -7 2 6.5
v -7 2 5.5
v -7 7 7.5
v -7 7 6.5
v -7 7 5.5
v -6 1 6.5
v -6 1 5.5
v -6 2 6.5
v -6 2 5.5
v -6 7 7.5
v -6 7 6.5
v -6 7 5.5
v -6 8 7.5
v -6 8 6.5
v -6 8 5.5
v -5 3 5.5
v -5 3 3.5
v -5 3 -0.5
v -5 4 -0.5
v -5 4 -1.5
v -5 5 5.5
v -5 5 3.5
v -5 5 1.5
v -5 5 -0.5
v -5 5 -1.5
v -5 6 1.5
v -5 6 -0.5
v -5 9 -1.5
v -5 9 -2.5
v -5 10 -2.5
v -5 10 -3.5
v -5 12 -1.5
v -5 12 -2.5
v -5 13 -2.5
v -5 13 -3.5
v -4 1 2.5
v -4 1 -3.5
v -4 1 -5.5
v -4 1 -6.5
v -4 3 2.5
v -4 3 -0.5
v -4 3 -1.5
v -4 3 -3.5
v -4 3 -5.5
v -4 3 -6.5
v -4 4 -0.5
v -4 4 -1.5
v -4 5 5.5
v -4 5 3.5
v -4 5 1.5
v -4 5 -0.5
v -4 5 -1.5
v -4 6 5.5
v -4 6 3.5
v -4 6 1.5
v -4 6 -0.5
v -4 6 -1.5
v -4 7 1.5
v -4 7 -0.5
v -4 7 -2.5
v -4 8 -0.5
v -4 8 -1.5
v -4 8 -2.5
v -4 9 -1.5
v -4 11 -0.5
v -4 11 -1.5
v -3 0 4.5
v -3 0 2.5
v -3 1 3.5
v -3 1 2.5
v -3 1 -3.5
v -3 1 -4.5
v -3 2 4.5
v -3 2 3.5
v -3 3 3.5
v -3 3 2.5
v -3 3 -1.5
v -3 3 -3.5
v -3 3 -4.5
v -3 3 -5.5
v -3 3 -6.5
v -3 4 1.5
v -3 4 -0.5
v -3 4 -1.5
v -3 4 -3.5
v -3 4 -4.5
v -3 4 -5.5
v -3 4 -6.5
v -3 5 1.5
v -3 5 -0.5
v -3 6 -0.5
v -3 6 -1.5
v -3 6 -3.5
v -3 6 -4.5
v -3 7 0.5
v -3 7 -0.5
v -3 7 -2.5
v -3 8 2.5
v -3 8 0.5
v -3 8 -0.5
v -3 8 -1.5
v -3 8 -2.5
v -3 8 -3.5
v -3 9 2.5
v -3 9 0.5
v -3 9 -0.5
v -3 9 -1.5
v -3 9 -2.5
v -3 9 -3.5
v -3 10 -3.5
v -3 10 -4.5
v -3 11 2.5
v -3 11 0.5
v -3 11 -0.5
v -3 11 -2.5
v -3 11 -3.5
v -3 12 2.5
v -3 12 -0.5
v -3 12 -3.5
v -3 12 -4.5
v -3 13 -0.5
v -3 13 -1.5
v -3 13 -2.5
v -3 13 -3.5
v -3 14 -1.5
v -3 14 -2.5
v -2 0 2.5
v -2 0 1.5
v -2 1 5.5
v -2 1 4.5
v -2 1 2.5
v -2 1 1.5
v -2 1 -4.5
v -2 1 -5.5
v -2 2 5.5
v -2 2 4.5
v -2 2 3.5
v -2 3 4.5
v -2 3 3.5
v -2 3 2.5
v -2 3 -3.5
v -2 3 -4.5
v -2 3 -5.5
v -2 4 3.5
v -2 4 2.5
v -2 4 -3.5
v -2 4 -4.5
v -2 4 -5.5
v -2 4 -6.5
v -2 5 -5.5
v -2 5 -6.5
v -2 6 2.5
v -2 6 1.5
v -2 6 -3.5
v -2 6 -4.5
v -2 6 -5.5
v -2 7 3.5
v -2 7 2.5
v -2 7 1.5
v -2 7 0.5
v -2 8 2.5
v -2 8 0.5
v -2 8 -2.5
v -2 8 -3.5
v -2 8 -4.5
v -2 9 3.5
v -2 9 2.5
v -2 9 0.5
v -2 9 -2.5
v -2 9 -3.5
v -2 9 -4.5
v -2 10 -3.5
v -2 10 -4.5
v -2 10 -5.5
v -2 11 3.5
v -2 11 2.5
v -2 11 0.5
v -2 12 3.5
v -2 12 2.5
v -2 12 -0.5
v -2 12 -3.5
v -2 12 -4.5
v -2 12 -5.5
v -2 13 2.5
v -2 13 0.5
v -2 13 -0.5
v -2 13 -1.5
v -2 13 -2.5
v -2 13 -3.5
v -2 13 -4.5
v -2 14 0.5
v -2 14 -0.5
v -2 14 -1.5
v -2 14 -2.5
v -2 14 -3.5
v -2 15 -0.5
v -2 15 -1.5
v -1 1 3.5
v -1 1 2.5
v -1 2 3.5
v -1 2 2.5
v -1 3 -4.5
v -1 3 -5.5
v -1 4 3.5
v -1 4 2.5
v -1 4 -4.5
v -1 4 -5.5
v -1 5 3.5
v -1 5 2.5
v -1 5 1.5
v -1 5 -5.5
v -1 5 -6.5
v -1 6 3.5
v -1 6 2.5
v -1 6 1.5
v -1 6 -5.5
v -1 6 -6.5
v -1 7 4.5
v -1 7 3.5
v -1 7 2.5
v -1 8 -3.5
v -1 8 -4.5
v -1 9 4.5
v -1 9 3.5
v -1 9 2.5
v -1 9 -3.5
v -1 9 -4.5
v -1 9 -5.5
v -1 10 3.5
v -1 10 2.5
v -1 10 -4.5
v -1 10 -5.5
v -1 11 4.5
v -1 11 3.5
v -1 11 2.5
v -1 11 -5.5
v -1 11 -6.5
v -1 12 4.5
v -1 12 3.5
v -1 12 2.5
v -1 12 -4.5
v -1 12 -5.5
v -1 12 -6.5
v -1 13 3.5
v -1 13 2.5
v -1 13 0.5
v -1 13 -3.5
v -1 13 -4.5
v -1 13 -5.5
v -1 14 2.5
v -1 14 1.5
v -1 14 0.5
v -1 14 -0.5
v -1 14 -1.5
v -1 14 -2.5
v -1 14 -3.5
v -1 14 -4.5
v -1 15 1.5
v -1 15 -0.5
v -1 15 -1.5
v -1 15 -2.5
v 0 1 2.5
v 0 1 1.5
v 0 2 2.5
v 0 2 1.5
v 0 6 -5.5
v 0 6 -6.5
v 0 7 -5.5
v 0 7 -6.5
v 0 9 6.5
v 0 9 4.5
v 0 9 3.5
v 0 9 -5.5
v 0 9 -6.5
v 0 10 6.5
v 0 10 4.5
v 0 10 3.5
v 0 10 -5.5
v 0 10 -6.5
v 0 10 -7.5
v 0 11 4.5
v 0 11 3.5
v 0 11 -6.5
v 0 12 5.5
v 0 12 4.5
v 0 12 3.5
v 0 12 -5.5
v 0 12 -6.5
v 0 12 -7.5
v 0 13 5.5
v 0 13 4.5
v 0 13 3.5
v 0 13 2.5
v 0 13 -5.5
v 0 13 -6.5
v 0 14 4.5
v 0 14 2.5
v 1 2 -5.5
v 1 2 -6.5
v 1 3 -5.5
v 1 3 -6.5
v 1 7 -5.5
v 1 7 -6.5
v 1 8 -5.5
v 1 8 -6.5
v 1 9 -5.5
v 1 9 -6.5
v 2 0 -3.5
v 2 0 -6.5
v 2 1 -3.5
v 2 1 -5.5
v 2 1 -6.5
v 2 1 -7.5
v 2 2 2.5
v 2 2 1.5
v 2 2 -5.5
v 2 2 -6.5
v 2 2 -7.5
v 2 3 2.5
v 2 3 1.5
v 2 3 -5.5
v 2 3 -6.5
v 2 4 2.5
v 2 4 1.5
v 2 4 -5.5
v 2 4 -6.5
v 2 8 -2.5
v 2 8 -3.5
v 2 9 -2.5
v 2 9 -3.5
v 3 2 1.5
v 3 2 0.5
v 3 2 -6.5
v 3 2 -7.5
v 3 3 1.5
v 3 3 0.5
v 3 3 -6.5
v 3 3 -7.5
v 3 4 1.5
v 3 4 0.5
v 3 4 -5.5
v 3 4 -6.5
v 3 5 -5.5
v 3 5 -6.5
v 3 6 -4.5
v 3 6 -5.5
v 3 7 -2.5
v 3 7 -3.5
v 3 7 -4.5
v 3 7 -5.5
v 3 8 -1.5
v 3 8 -2.5
v 3 8 -3.5
v 3 9 -1.5
v 3 9 -2.5
v 3 9 -4.5
v 3 9 -5.5
v 3 9 -6.5
v 3 10 -2.5
v 3 10 -4.5
v 3 10 -5.5
v 3 10 -6.5
v 4 3 0.5
v 4 3 -1.5
v 4 4 0.5
v 4 5 -5.5
v 4 5 -6.5
v 4 6 0.5
v 4 6 -1.5
v 4 6 -3.5
v 4 6 -5.5
v 4 6 -6.5
v 4 7 0.5
v 4 7 -2.5
v 4 7 -3.5
v 4 8 0.5
v 4 8 -0.5
v 4 8 -1.5
v 4 8 -2.5
v 4 9 0.5
v 4 9 -0.5
v 4 9 -1.5
v 4 9 -2.5
v 4 10 -2.5
v 4 10 -3.5
v 4 10 -4.5
v 4 10 -5.5
v 4 10 -6.5
v 4 11 0.5
v 4 11 -1.5
v 4 11 -3.5
v 4 11 -5.5
v 4 11 -6.5
v 4 12 -1.5
v 4 12 -4.5
v 5 2 0.5
v 5 2 -3.5
v 5 2 -5.5
v 5 3 0.5
v 5 3 -1.5
v 5 3 -4.5
v 5 3 -5.5
v 5 4 -4.5
v 5 4 -5.5
v 5 6 -1.5
v 5 6 -4.5
v 6 10 -2.5
v 6 10 -3.5
v 6 11 -1.5
v 6 11 -2.5
v 6 12 -1.5
v 6 12 -2.5
v 6 13 -2.5
v 6 13 -3.5
v -4 3 3.5
v -4 3 2.5
v -4 3 -0.5
v -4 4 3.5
v -4 4 1.5
v -4 4 -0.5
v -4 5 1.5
v -4 5 -0.5
v -4 10 -2.5
v -4 10 -3.5
v -4 11 -1.5
v -4 11 -2.5
v -4 12 -1.5
v -4 12 -2.5
v -4 13 -2.5
v -4 13 -3.5
v -3 2 1.5
v -3 2 -1.5
v -3 3 5.5
v -3 3 4.5
v -3 3 3.5
v -3 3 1.5
v -3 3 -0.5
v -3 3 -1.5
v -3 4 5.5
v -3 4 4.5
v -3 4 3.5
v -2 1 3.5
v -2 1 1.5
v -2 1 -5.5
v -2 1 -6.5
v -2 2 3.5
v -2 2 2.5
v -2 2 1.5
v -2 2 -1.5
v -2 2 -3.5
v -2 2 -5.5
v -2 2 -6.5
v -2 3 2.5
v -2 3 1.5
v -2 3 -0.5
v -2 3 -1.5
v -2 3 -2.5
v -2 3 -3.5
v -2 4 5.5
v -2 4 4.5
v -2 4 3.5
v -2 4 2.5
v -2 4 0.5
v -2 4 -0.5
v -2 4 -1.5
v -2 4 -2.5
v -2 4 -3.5
v -2 5 2.5
v -2 5 1.5
v -2 6 5.5
v -2 6 4.5
v -2 6 2.5
v -2 6 1.5
v -2 7 0.5
v -2 8 0.5
v -2 8 -0.5
v -2 8 -1.5
v -2 8 -3.5
v -2 9 0.5
v -2 9 -0.5
v -2 9 -1.5
v -2 9 -2.5
v -2 10 -2.5
v -2 10 -3.5
v -2 10 -4.5
v -2 11 0.5
v -2 11 -1.5
v -2 11 -3.5
v -2 12 -1.5
v -2 12 -4.5
v -1 1 6.5
v -1 1 5.5
v -1 1 4.5
v -1 2 7.5
v -1 2 6.5
v -1 2 5.5
v -1 2 4.5
v -1 2 -3.5
v -1 2 -4.5
v -1 2 -5.5
v -1 2 -6.5
v -1 3 -2.5
v -1 3 -3.5
v -1 3 -4.5
v -1 3 -5.5
v -1 3 -6.5
v -1 4 -2.5
v -1 4 -3.5
v -1 4 -4.5
v -1 6 7.5
v -1 6 6.5
v -1 6 -3.5
v -1 6 -4.5
v -1 7 7.5
v -1 7 6.5
v -1 7 5.5
v -1 8 7.5
v -1 8 6.5
v -1 8 5.5
v -1 8 -1.5
v -1 8 -2.5
v -1 9 -1.5
v -1 9 -2.5
v -1 9 -4.5
v -1 10 -2.5
v -1 10 -4.5
v 0 0 4.5
v 0 0 1.5
v 0 1 3.5
v 0 1 1.5
v 0 2 6.5
v 0 2 5.5
v 0 2 4.5
v 0 2 3.5
v 0 3 4.5
v 0 3 3.5
v 0 3 -3.5
v 0 3 -4.5
v 0 3 -5.5
v 0 3 -6.5
v 0 4 -3.5
v 0 4 -4.5
v 0 4 -5.5
v 0 4 -6.5
v 0 6 7.5
v 0 6 6.5
v 0 7 7.5
v 0 7 6.5
v 0 7 5.5
v 0 8 -2.5
v 0 8 -3.5
v 0 9 -2.5
v 0 9 -3.5
v 1 4 -5.5
v 1 4 -6.5
v 1 5 -5.5
v 1 5 -6.5
v 2 2 -4.5
v 2 2 -5.5
v 2 3 -4.5
v 2 3 -5.5
v 2 4 3.5
v 2 4 2.5
v 2 4 -4.5
v 2 4 -5.5
v 2 5 3.5
v 2 5 2.5
v 2 5 -5.5
v 2 5 -6.5
v 2 6 -5.5
v 2 6 -6.5
v 2 9 6.5
v 2 9 4.5
v 2 9 3.5
v 2 9 -5.5
v 2 9 -6.5
v 2 10 6.5
v 2 10 4.5
v 2 10 3.5
v 2 10 -5.5
v 2 10 -6.5
v 2 10 -7.5
v 2 11 4.5
v 2 11 3.5
v 2 11 -6.5
v 2 12 5.5
v 2 12 4.5
v 2 12 3.5
v 2 12 -5.5
v 2 12 -6.5
v 2 12 -7.5
v 2 13 5.5
v 2 13 4.5
v 2 13 3.5
v 2 13 2.5
v 2 13 -5.5
v 2 13 -6.5
v 2 14 4.5
v 2 14 2.5
v 3 3 3.5
v 3 3 2.5
v 3 4 3.5
v 3 4 2.5
v 3 5 2.5
v 3 5 1.5
v 3 6 3.5
v 3 6 2.5
v 3 6 1.5
v 3 7 4.5
v 3 7 3.5
v 3 7 2.5
v 3 8 -3.5
v 3 8 -4.5
v 3 9 4.5
v 3 9 3.5
v 3 9 2.5
v 3 9 -3.5
v 3 9 -4.5
v 3 9 -5.5
v 3 10 3.5
v 3 10 2.5
v 3 10 -4.5
v 3 10 -5.5
v 3 11 4.5
v 3 11 3.5
v 3 11 2.5
v 3 11 -5.5
v 3 11 -6.5
v 3 12 4.5
v 3 12 3.5
v 3 12 2.5
v 3 12 -4.5
v 3 12 -5.5
v 3 12 -6.5
v 3 13 3.5
v 3 13 2.5
v 3 13 1.5
v 3 13 0.5
v 3 13 -3.5
v 3 13 -4.5
v 3 13 -5.5
v 3 14 2.5
v 3 14 1.5
v 3 14 0.5
v 3 14 -0.5
v 3 14 -1.5
v 3 14 -2.5
v 3 14 -3.5
v 3 14 -4.5
v 3 15 1.5
v 3 15 -0.5
v 3 15 -1.5
v 3 15 -2.5
v 4 1 3.5
v 4 1 2.5
v 4 1 -6.5
v 4 1 -7.5
v 4 3 3.5
v 4 3 2.5
v 4 3 1.5
v 4 3 -6.5
v 4 3 -7.5
v 4 4 2.5
v 4 4 1.5
v 4 4 -5.5
v 4 4 -6.5
v 4 5 2.5
v 4 5 1.5
v 4 5 -5.5
v 4 5 -6.5
v 4 6 2.5
v 4 6 1.5
v 4 6 -4.5
v 4 6 -5.5
v 4 7 3.5
v 4 7 2.5
v 4 7 1.5
v 4 7 0.5
v 4 7 -3.5
v 4 7 -4.5
v 4 7 -5.5
v 4 7 -6.5
v 4 8 2.5
v 4 8 0.5
v 4 8 -2.5
v 4 8 -3.5
v 4 8 -4.5
v 4 8 -5.5
v 4 8 -6.5
v 4 9 3.5
v 4 9 2.5
v 4 9 0.5
v 4 9 -2.5
v 4 9 -3.5
v 4 9 -4.5
v 4 10 -3.5
v 4 10 -4.5
v 4 10 -5.5
v 4 11 3.5
v 4 11 2.5
v 4 11 0.5
v 4 11 -5.5
v 4 12 3.5
v 4 12 2.5
v 4 12 -0.5
v 4 12 -3.5
v 4 12 -4.5
v 4 12 -5.5
v 4 13 2.5
v 4 13 0.5
v 4 13 -0.5
v 4 13 -1.5
v 4 13 -2.5
v 4 13 -3.5
v 4 13 -4.5
v 4 14 0.5
v 4 14 -0.5
v 4 14 -1.5
v 4 14 -2.5
v 4 14 -3.5
v 4 15 -0.5
v 4 15 -1.5
v 5 0 -3.5
v 5 0 -6.5
v 5 1 2.5
v 5 1 1.5
v 5 1 -3.5
v 5 1 -4.5
v 5 2 -4.5
v 5 2 -5.5
v 5 3 2.5
v 5 3 1.5
v 5 3 0.5
v 5 3 -5.5
v 5 3 -6.5
v 5 4 1.5
v 5 4 0.5
v 5 4 -5.5
v 5 4 -6.5
v 5 5 -5.5
v 5 5 -6.5
v 5 6 1.5
v 5 6 -1.5
v 5 6 -2.5
v 5 6 -5.5
v 5 7 1.5
v 5 7 0.5
v 5 7 -0.5
v 5 7 -2.5
v 5 7 -3.5
v 5 7 -5.5
v 5 7 -6.5
v 5 8 2.5
v 5 8 0.5
v 5 8 -0.5
v 5 8 -1.5
v 5 8 -2.5
v 5 8 -3.5
v 5 8 -5.5
v 5 8 -6.5
v 5 9 2.5
v 5 9 0.5
v 5 9 -0.5
v 5 9 -1.5
v 5 9 -2.5
v 5 9 -3.5
v 5 9 -5.5
v 5 9 -6.5
v 5 10 -3.5
v 5 10 -4.5
v 5 11 2.5
v 5 11 0.5
v 5 11 -0.5
v 5 11 -1.5
v 5 11 -2.5
v 5 11 -3.5
v 5 12 2.5
v 5 12 -0.5
v 5 12 -1.5
v 5 12 -3.5
v 5 12 -4.5
v 5 13 -0.5
v 5 13 -1.5
v 5 13 -2.5
v 5 13 -3.5
v 5 14 -1.5
v 5 14 -2.5
v 6 1 1.5
v 6 1 -4.5
v 6 2 -4.5
v 6 2 -5.5
v 6 3 1.5
v 6 3 0.5
v 6 3 -1.5
v 6 3 -4.5
v 6 4 1.5
v 6 4 0.5
v 6 4 -4.5
v 6 4 -5.5
v 6 5 0.5
v 6 5 -1.5
v 6 5 -2.5
v 6 5 -4.5
v 6 5 -5.5
v 6 6 1.5
v 6 6 -1.5
v 6 6 -2.5
v 6 6 -4.5
v 6 6 -5.5
v 6 7 -0.5
v 6 7 -2.5
v 6 7 -4.5
v 6 8 -0.5
v 6 8 -1.5
v 6 8 -2.5
v 6 9 -1.5
v 6 9 -5.5
v 6 9 -6.5
v 6 11 -0.5
v 6 11 -1.5
v 6 11 -5.5
v 6 11 -6.5
v 7 3 0.5
v 7 3 -1.5
v 7 3 -4.5
v 7 4 -4.5
v 7 4 -5.5
v 7 5 0.5
v 7 5 -1.5
v 7 5 -2.5
v 7 5 -4.5
v 7 5 -5.5
v 7 6 -2.5
v 7 6 -4.5
v 7 9 -1.5
v 7 9 -2.5
v 7 10 -2.5
v 7 10 -3.5
v 7 12 -1.5
v 7 12 -2.5
v 7 13 -2.5
v 7 13 -3.5
v -7 2 7.5
v -7 7 7.5
v -6 5 7.5
v -6 6 7.5
v -6 7 7.5
v -6 8 7.5
v -5 3 7.5
v -5 5 7.5
v -5 6 7.5
v -5 7 7.5
v -4 3 7.5
v -4 5 7.5
v -4 6 7.5
v -4 7 7.5
v -3 5 7.5
v -3 6 7.5
v -1 2 7.5
v -1 6 7.5
v -1 7 7.5
v -1 8 7.5
v 0 6 7.5
v 0 7 7.5
v -6 1 6.5
v -6 2 6.5
v -1 1 6.5
v -1 2 6.5
v -1 6 6.5
v 0 2 6.5
v 0 6 6.5
v 0 9 6.5
v 0 10 6.5
v 2 9 6.5
v 2 10 6.5
v 0 12 5.5
v 0 13 5.5
v 2 12 5.5
v 2 13 5.5
v -3 0 4.5
v -3 2 4.5
v -2 1 4.5
v -2 2 4.5
v -2 3 4.5
v -1 1 4.5
v -1 2 4.5
v -1 7 4.5
v -1 9 4.5
v -1 11 4.5
v -1 12 4.5
v 0 0 4.5
v 0 2 4.5
v 0 3 4.5
v 0 7 4.5
v 0 8 4.5
v 0 9 4.5
v 0 10 4.5
v 0 11 4.5
v 0 12 4.5
v 0 13 4.5
v 0 14 4.5
v 2 7 4.5
v 2 8 4.5
v 2 9 4.5
v 2 10 4.5
v 2 11 4.5
v 2 12 4.5
v 2 13 4.5
v 2 14 4.5
v 3 7 4.5
v 3 9 4.5
v 3 11 4.5
v 3 12 4.5
v -3 2 3.5
v -3 3 3.5
v -2 2 3.5
v -2 3 3.5
v -2 4 3.5
v -2 7 3.5
v -2 9 3.5
v -2 11 3.5
v -2 12 3.5
v -1 4 3.5
v -1 5 3.5
v -1 6 3.5
v -1 7 3.5
v -1 9 3.5
v -1 10 3.5
v -1 11 3.5
v -1 12 3.5
v -1 13 3.5
v 0 1 3.5
v 0 2 3.5
v 0 3 3.5
v 0 4 3.5
v 0 7 3.5
v 0 9 3.5
v 0 10 3.5
v 0 11 3.5
v 0 12 3.5
v 0 13 3.5
v 1 3 3.5
v 1 4 3.5
v 2 2 3.5
v 2 3 3.5
v 2 4 3.5
v 2 5 3.5
v 2 7 3.5
v 2 9 3.5
v 2 10 3.5
v 2 11 3.5
v 2 12 3.5
v 2 13 3.5
v 3 3 3.5
v 3 4 3.5
v 3 6 3.5
v 3 7 3.5
v 3 9 3.5
v 3 10 3.5
v 3 11 3.5
v 3 12 3.5
v 3 13 3.5
v 4 1 3.5
v 4 3 3.5
v 4 7 3.5
v 4 9 3.5
v 4 11 3.5
v 4 12 3.5
v -4 1 2.5
v -4 3 2.5
v -3 1 2.5
v -3 3 2.5
v -3 8 2.5
v -3 9 2.5
v -3 11 2.5
v -3 12 2.5
v -2 4 2.5
v -2 5 2.5
v -2 6 2.5
v -2 7 2.5
v -2 8 2.5
v -2 9 2.5
v -2 11 2.5
v -2 12 2.5
v -2 13 2.5
v -1 4 2.5
v -1 5 2.5
v -1 6 2.5
v -1 7 2.5
v -1 9 2.5
v -1 10 2.5
v -1 11 2.5
v -1 12 2.5
v -1 13 2.5
v -1 14 2.5
v 0 13 2.5
v 0 14 2.5
v 2 4 2.5
v 2 5 2.5
v 2 13 2.5
v 2 14 2.5
v 3 3 2.5
v 3 4 2.5
v 3 5 2.5
v 3 6 2.5
v 3 7 2.5
v 3 9 2.5
v 3 10 2.5
v 3 11 2.5
v 3 12 2.5
v 3 13 2.5
v 3 14 2.5
v 4 1 2.5
v 4 3 2.5
v 4 4 2.5
v 4 5 2.5
v 4 6 2.5
v 4 7 2.5
v 4 8 2.5
v 4 9 2.5
v 4 11 2.5
v 4 12 2.5
v 4 13 2.5
v 5 1 2.5
v 5 3 2.5
v 5 8 2.5
v 5 9 2.5
v 5 11 2.5
v 5 12 2.5
v -5 5 1.5
v -5 6 1.5
v -4 5 1.5
v -4 6 1.5
v -4 7 1.5
v -3 6 1.5
v -3 7 1.5
v -2 1 1.5
v -2 2 1.5
v -2 5 1.5
v -2 6 1.5
v -2 7 1.5
v -1 5 1.5
v -1 6 1.5
v -1 14 1.5
v -1 15 1.5
v 0 1 1.5
v 0 2 1.5
v 3 5 1.5
v 3 6 1.5
v 3 14 1.5
v 3 15 1.5
v 4 3 1.5
v 4 4 1.5
v 4 5 1.5
v 4 6 1.5
v 4 7 1.5
v 5 1 1.5
v 5 3 1.5
v 5 4 1.5
v 5 6 1.5
v 5 7 1.5
v 6 1 1.5
v 6 3 1.5
v 6 4 1.5
v 6 6 1.5
v -3 7 0.5
v -3 8 0.5
v -3 9 0.5
v -3 11 0.5
v -2 7 0.5
v -2 8 0.5
v -2 9 0.5
v -2 11 0.5
v -2 13 0.5
v -2 14 0.5
v -1 13 0.5
v -1 14 0.5
v 3 13 0.5
v 3 14 0.5
v 4 7 0.5
v 4 8 0.5
v 4 9 0.5
v 4 11 0.5
v 4 13 0.5
v 4 14 0.5
v 5 3 0.5
v 5 4 0.5
v 5 7 0.5
v 5 8 0.5
v 5 9 0.5
v 5 11 0.5
v 6 3 0.5
v 6 4 0.5
v 6 5 0.5
v 7 3 0.5
v 7 5 0.5
v -4 3 -0.5
v -4 4 -0.5
v -4 5 -0.5
v -4 7 -0.5
v -4 8 -0.5
v -4 11 -0.5
v -3 3 -0.5
v -3 4 -0.5
v -3 5 -0.5
v -3 7 -0.5
v -3 8 -0.5
v -3 9 -0.5
v -3 11 -0.5
v -3 12 -0.5
v -3 13 -0.5
v -2 3 -0.5
v -2 4 -0.5
v -2 12 -0.5
v -2 13 -0.5
v -2 14 -0.5
v -2 15 -0.5
v -1 14 -0.5
v -1 15 -0.5
v 3 14 -0.5
v 3 15 -0.5
v 4 12 -0.5
v 4 13 -0.5
v 4 14 -0.5
v 4 15 -0.5
v 5 7 -0.5
v 5 8 -0.5
v 5 9 -0.5
v 5 11 -0.5
v 5 12 -0.5
v 5 13 -0.5
v 6 7 -0.5
v 6 8 -0.5
v 6 11 -0.5
v -5 9 -1.5
v -5 12 -1.5
v -4 9 -1.5
v -4 11 -1.5
v -4 12 -1.5
v -3 2 -1.5
v -3 3 -1.5
v -3 13 -1.5
v -3 14 -1.5
v -2 2 -1.5
v -2 3 -1.5
v -2 8 -1.5
v -2 9 -1.5
v -2 13 -1.5
v -2 14 -1.5
v -1 8 -1.5
v -1 9 -1.5
v 3 8 -1.5
v 3 9 -1.5
v 4 8 -1.5
v 4 9 -1.5
v 4 13 -1.5
v 4 14 -1.5
v 5 13 -1.5
v 5 14 -1.5
v 6 9 -1.5
v 6 11 -1.5
v 6 12 -1.5
v 7 9 -1.5
v 7 12 -1.5
v -5 12 -2.5
v -5 13 -2.5
v -4 12 -2.5
v -4 13 -2.5
v -2 3 -2.5
v -2 4 -2.5
v -2 9 -2.5
v -2 10 -2.5
v -1 3 -2.5
v -1 4 -2.5
v -1 8 -2.5
v -1 9 -2.5
v -1 10 -2.5
v 0 8 -2.5
v 0 9 -2.5
v 2 8 -2.5
v 2 9 -2.5
v 3 7 -2.5
v 3 8 -2.5
v 3 9 -2.5
v 3 10 -2.5
v 4 7 -2.5
v 4 8 -2.5
v 4 9 -2.5
v 4 10 -2.5
v 5 6 -2.5
v 5 7 -2.5
v 6 5 -2.5
v 6 6 -2.5
v 6 7 -2.5
v 6 12 -2.5
v 6 13 -2.5
v 7 5 -2.5
v 7 6 -2.5
v 7 12 -2.5
v 7 13 -2.5
v -2 2 -3.5
v -2 3 -3.5
v -2 4 -3.5
v -2 8 -3.5
v -1 2 -3.5
v -1 3 -3.5
v -1 4 -3.5
v -1 6 -3.5
v 0 3 -3.5
v 0 4 -3.5
v 0 8 -3.5
v 0 9 -3.5
v 2 0 -3.5
v 2 1 -3.5
v 2 8 -3.5
v 2 9 -3.5
v 3 7 -3.5
v 3 8 -3.5
v 4 6 -3.5
v 4 7 -3.5
v 5 0 -3.5
v 5 1 -3.5
v -2 10 -4.5
v -2 12 -4.5
v -1 2 -4.5
v -1 3 -4.5
v -1 4 -4.5
v -1 6 -4.5
v -1 9 -4.5
v -1 10 -4.5
v 0 3 -4.5
v 0 4 -4.5
v 2 2 -4.5
v 2 3 -4.5
v 2 4 -4.5
v 3 9 -4.5
v 3 10 -4.5
v 4 10 -4.5
v 4 12 -4.5
v 5 4 -4.5
v 5 6 -4.5
v -4 1 -5.5
v -4 3 -5.5
v -3 3 -5.5
v -3 4 -5.5
v -2 1 -5.5
v -2 3 -5.5
v -2 4 -5.5
v -1 3 -5.5
v -1 4 -5.5
v 0 6 -5.5
v 0 7 -5.5
v 1 7 -5.5
v 1 8 -5.5
v 1 9 -5.5
v 2 2 -5.5
v 2 3 -5.5
v 2 4 -5.5
v 2 7 -5.5
v 2 8 -5.5
v 2 9 -5.5
v 3 2 -5.5
v 3 3 -5.5
v 3 6 -5.5
v 3 7 -5.5
v 3 8 -5.5
v 3 9 -5.5
v 3 10 -5.5
v 4 6 -5.5
v 4 7 -5.5
v 4 8 -5.5
v 4 9 -5.5
v 4 10 -5.5
v 4 11 -5.5
v 5 2 -5.5
v 5 3 -5.5
v 5 4 -5.5
v 5 6 -5.5
v 5 7 -5.5
v 5 8 -5.5
v 5 9 -5.5
v 5 10 -5.5
v 6 9 -5.5
v 6 11 -5.5
v 0 10 -6.5
v 0 11 -6.5
v 2 10 -6.5
v 2 11 -6.5
v -7 2 5.5
v -7 7 5.5
v -6 1 5.5
v -6 2 5.5
v -6 7 5.5
v -6 8 5.5
v -5 3 5.5
v -5 5 5.5
v -4 5 5.5
v -4 6 5.5
v -3 3 5.5
v -3 4 5.5
v -2 1 5.5
v -2 2 5.5
v -2 4 5.5
v -2 6 5.5
v -1 2 5.5
v -1 7 5.5
v -1 8 5.5
v 0 2 5.5
v 0 7 5.5
v -4 3 3.5
v -4 4 3.5
v -3 3 3.5
v -3 4 3.5
v -2 1 3.5
v -2 2 3.5
v -1 1 3.5
v -1 2 3.5
v -3 0 2.5
v -3 1 2.5
v -2 0 2.5
v -2 1 2.5
v -2 2 2.5
v -2 3 2.5
v -2 4 2.5
v -1 1 2.5
v -1 2 2.5
v -1 3 2.5
v 0 1 2.5
v 0 2 2.5
v 0 3 2.5
v 0 4 2.5
v 1 3 2.5
v 1 4 2.5
v 2 2 2.5
v 2 3 2.5
v 2 4 2.5
v -4 4 1.5
v -4 5 1.5
v -3 2 1.5
v -3 3 1.5
v -3 4 1.5
v -3 5 1.5
v -2 0 1.5
v -2 1 1.5
v -2 2 1.5
v -2 3 1.5
v 0 0 1.5
v 0 1 1.5
v 2 2 1.5
v 2 3 1.5
v 2 4 1.5
v 3 2 1.5
v 3 3 1.5
v 3 4 1.5
v -2 4 0.5
v -2 7 0.5
v -2 8 0.5
v -2 9 0.5
v -2 11 0.5
v 3 2 0.5
v 3 3 0.5
v 3 4 0.5
v 4 3 0.5
v 4 4 0.5
v 4 6 0.5
v 4 7 0.5
v 4 8 0.5
v 4 9 0.5
v 4 11 0.5
v 5 2 0.5
v 5 3 0.5
v -5 3 -0.5
v -5 4 -0.5
v -5 5 -0.5
v -5 6 -0.5
v -4 3 -0.5
v -4 4 -0.5
v -4 5 -0.5
v -4 6 -0.5
v -4 7 -0.5
v -3 6 -0.5
v -3 7 -0.5
v -5 4 -1.5
v -5 5 -1.5
v -4 3 -1.5
v -4 4 -1.5
v -4 5 -1.5
v -4 6 -1.5
v -4 8 -1.5
v -4 9 -1.5
v -3 3 -1.5
v -3 4 -1.5
v -3 6 -1.5
v -3 8 -1.5
v -3 9 -1.5
v -2 11 -1.5
v -2 12 -1.5
v -2 14 -1.5
v -2 15 -1.5
v -1 14 -1.5
v -1 15 -1.5
v 3 14 -1.5
v 3 15 -1.5
v 4 3 -1.5
v 4 6 -1.5
v 4 11 -1.5
v 4 12 -1.5
v 4 14 -1.5
v 4 15 -1.5
v 5 3 -1.5
v 5 6 -1.5
v 5 8 -1.5
v 5 9 -1.5
v 6 8 -1.5
v 6 9 -1.5
v -5 9 -2.5
v -5 10 -2.5
v -4 7 -2.5
v -4 8 -2.5
v -4 10 -2.5
v -4 11 -2.5
v -3 7 -2.5
v -3 8 -2.5
v -3 9 -2.5
v -3 11 -2.5
v -3 13 -2.5
v -3 14 -2.5
v -2 8 -2.5
v -2 9 -2.5
v -2 13 -2.5
v -2 14 -2.5
v -1 14 -2.5
v -1 15 -2.5
v 3 14 -2.5
v 3 15 -2.5
v 4 8 -2.5
v 4 9 -2.5
v 4 13 -2.5
v 4 14 -2.5
v 5 7 -2.5
v 5 8 -2.5
v 5 9 -2.5
v 5 11 -2.5
v 5 13 -2.5
v 5 14 -2.5
v 6 7 -2.5
v 6 8 -2.5
v 6 10 -2.5
v 6 11 -2.5
v 7 9 -2.5
v 7 10 -2.5
v -5 10 -3.5
v -5 13 -3.5
v -4 1 -3.5
v -4 3 -3.5
v -4 10 -3.5
v -4 13 -3.5
v -3 1 -3.5
v -3 3 -3.5
v -3 4 -3.5
v -3 6 -3.5
v -3 8 -3.5
v -3 9 -3.5
v -3 10 -3.5
v -3 12 -3.5
v -3 13 -3.5
v -2 3 -3.5
v -2 4 -3.5
v -2 6 -3.5
v -2 8 -3.5
v -2 9 -3.5
v -2 10 -3.5
v -2 12 -3.5
v -2 13 -3.5
v -2 14 -3.5
v -1 8 -3.5
v -1 9 -3.5
v -1 13 -3.5
v -1 14 -3.5
v 3 8 -3.5
v 3 9 -3.5
v 3 13 -3.5
v 3 14 -3.5
v 4 7 -3.5
v 4 8 -3.5
v 4 9 -3.5
v 4 10 -3.5
v 4 12 -3.5
v 4 13 -3.5
v 4 14 -3.5
v 5 7 -3.5
v 5 8 -3.5
v 5 9 -3.5
v 5 10 -3.5
v 5 12 -3.5
v 5 13 -3.5
v 6 10 -3.5
v 6 13 -3.5
v 7 10 -3.5
v 7 13 -3.5
v -3 1 -4.5
v -3 3 -4.5
v -3 4 -4.5
v -3 6 -4.5
v -3 10 -4.5
v -3 12 -4.5
v -2 1 -4.5
v -2 3 -4.5
v -2 4 -4.5
v -2 6 -4.5
v -2 8 -4.5
v -2 9 -4.5
v -2 10 -4.5
v -2 12 -4.5
v -2 13 -4.5
v -1 3 -4.5
v -1 4 -4.5
v -1 8 -4.5
v -1 9 -4.5
v -1 10 -4.5
v -1 12 -4.5
v -1 13 -4.5
v -1 14 -4.5
v 3 6 -4.5
v 3 7 -4.5
v 3 8 -4.5
v 3 9 -4.5
v 3 10 -4.5
v 3 12 -4.5
v 3 13 -4.5
v 3 14 -4.5
v 4 6 -4.5
v 4 7 -4.5
v 4 8 -4.5
v 4 9 -4.5
v 4 10 -4.5
v 4 12 -4.5
v 4 13 -4.5
v 5 1 -4.5
v 5 2 -4.5
v 5 6 -4.5
v 5 7 -4.5
v 5 10 -4.5
v 5 12 -4.5
v 6 1 -4.5
v 6 2 -4.5
v 6 3 -4.5
v 6 4 -4.5
v 6 5 -4.5
v 6 6 -4.5
v 6 7 -4.5
v 7 3 -4.5
v 7 4 -4.5
v 7 5 -4.5
v 7 6 -4.5
v -2 1 -5.5
v -2 2 -5.5
v -2 5 -5.5
v -2 6 -5.5
v -2 10 -5.5
v -2 12 -5.5
v -1 2 -5.5
v -1 3 -5.5
v -1 5 -5.5
v -1 6 -5.5
v -1 9 -5.5
v -1 10 -5.5
v -1 11 -5.5
v -1 12 -5.5
v -1 13 -5.5
v 0 3 -5.5
v 0 4 -5.5
v 0 9 -5.5
v 0 10 -5.5
v 0 12 -5.5
v 0 13 -5.5
v 1 2 -5.5
v 1 3 -5.5
v 1 4 -5.5
v 1 5 -5.5
v 2 1 -5.5
v 2 2 -5.5
v 2 3 -5.5
v 2 4 -5.5
v 2 5 -5.5
v 2 6 -5.5
v 2 9 -5.5
v 2 10 -5.5
v 2 12 -5.5
v 2 13 -5.5
v 3 4 -5.5
v 3 5 -5.5
v 3 6 -5.5
v 3 9 -5.5
v 3 10 -5.5
v 3 11 -5.5
v 3 12 -5.5
v 3 13 -5.5
v 4 4 -5.5
v 4 5 -5.5
v 4 6 -5.5
v 4 10 -5.5
v 4 11 -5.5
v 4 12 -5.5
v 5 2 -5.5
v 5 3 -5.5
v 5 4 -5.5
v 5 5 -5.5
v 5 6 -5.5
v 6 2 -5.5
v 6 4 -5.5
v 6 5 -5.5
v 6 6 -5.5
v 7 4 -5.5
v 7 5 -5.5
v -4 1 -6.5
v -4 3 -6.5
v -3 3 -6.5
v -3 4 -6.5
v -2 1 -6.5
v -2 2 -6.5
v -2 4 -6.5
v -2 5 -6.5
v -1 2 -6.5
v -1 3 -6.5
v -1 5 -6.5
v -1 6 -6.5
v -1 11 -6.5
v -1 12 -6.5
v 0 3 -6.5
v 0 4 -6.5
v 0 6 -6.5
v 0 7 -6.5
v 0 9 -6.5
v 0 10 -6.5
v 0 11 -6.5
v 0 12 -6.5
v 0 13 -6.5
v 1 2 -6.5
v 1 3 -6.5
v 1 4 -6.5
v 1 5 -6.5
v 1 7 -6.5
v 1 8 -6.5
v 1 9 -6.5
v 2 0 -6.5
v 2 1 -6.5
v 2 2 -6.5
v 2 3 -6.5
v 2 4 -6.5
v 2 5 -6.5
v 2 6 -6.5
v 2 7 -6.5
v 2 8 -6.5
v 2 9 -6.5
v 2 10 -6.5
v 2 11 -6.5
v 2 12 -6.5
v 2 13 -6.5
v 3 2 -6.5
v 3 3 -6.5
v 3 4 -6.5
v 3 5 -6.5
v 3 6 -6.5
v 3 7 -6.5
v 3 8 -6.5
v 3 9 -6.5
v 3 10 -6.5
v 3 11 -6.5
v 3 12 -6.5
v 4 1 -6.5
v 4 3 -6.5
v 4 4 -6.5
v 4 5 -6.5
v 4 6 -6.5
v 4 7 -6.5
v 4 8 -6.5
v 4 9 -6.5
v 4 10 -6.5
v 4 11 -6.5
v 5 0 -6.5
v 5 3 -6.5
v 5 4 -6.5
v 5 5 -6.5
v 5 7 -6.5
v 5 8 -6.5
v 5 9 -6.5
v 5 10 -6.5
v 6 9 -6.5
v 6 11 -6.5
v 0 10 -7.5
v 0 12 -7.5
v 2 1 -7.5
v 2 2 -7.5
v 2 10 -7.5
v 2 12 -7.5
v 3 2 -7.5
v 3 3 -7.5
v 4 1 -7.5
v 4 3 -7.5
v -3 0 4.5
v 0 0 4.5
v -3 0 2.5
v -2 0 2.5
v -2 0 1.5
v 0 0 1.5
v 2 0 -3.5
v 5 0 -3.5
v 2 0 -6.5
v 5 0 -6.5
v -6 1 6.5
v -1 1 6.5
v -6 1 5.5
v -2 1 5.5
v -1 1 5.5
v -2 1 4.5
v -1 1 4.5
v 0 1 3.5
v 4 1 3.5
v -4 1 2.5
v -3 1 2.5
v -2 1 2.5
v 4 1 2.5
v 5 1 2.5
v -2 1 1.5
v 0 1 1.5
v 5 1 1.5
v 6 1 1.5
v -4 1 -3.5
v -3 1 -3.5
v 2 1 -3.5
v 5 1 -3.5
v -3 1 -4.5
v -2 1 -4.5
v 5 1 -4.5
v 6 1 -4.5
v -4 1 -5.5
v -2 1 -5.5
v 2 1 -5.5
v -4 1 -6.5
v -2 1 -6.5
v 2 1 -6.5
v 4 1 -6.5
v 2 1 -7.5
v 4 1 -7.5
v -7 2 7.5
v -1 2 7.5
v -7 2 6.5
v -6 2 6.5
v -1 2 6.5
v 0 2 6.5
v -7 2 5.5
v -6 2 5.5
v -1 2 5.5
v 0 2 5.5
v -2 2 3.5
v -1 2 3.5
v -2 2 2.5
v -1 2 2.5
v 5 2 -4.5
v 6 2 -4.5
v -2 2 -5.5
v -1 2 -5.5
v 1 2 -5.5
v 2 2 -5.5
v 5 2 -5.5
v 6 2 -5.5
v -2 2 -6.5
v -1 2 -6.5
v 1 2 -6.5
v 2 2 -6.5
v -5 3 5.5
v -3 3 5.5
v -4 3 4.5
v -3 3 4.5
v -5 3 3.5
v -4 3 3.5
v -3 3 3.5
v -4 3 2.5
v 4 3 0.5
v 5 3 0.5
v 6 3 0.5
v 7 3 0.5
v -5 3 -0.5
v -4 3 -0.5
v -3 3 -0.5
v -2 3 -0.5
v -3 3 -1.5
v -2 3 -1.5
v 4 3 -1.5
v 5 3 -1.5
v 6 3 -1.5
v 7 3 -1.5
v -2 3 -2.5
v -1 3 -2.5
v -2 3 -3.5
v -1 3 -3.5
v 0 3 -3.5
v -1 3 -4.5
v 0 3 -4.5
v 6 3 -4.5
v 7 3 -4.5
v -1 3 -5.5
v 0 3 -5.5
v -1 3 -6.5
v 0 3 -6.5
v -3 4 5.5
v -2 4 5.5
v -3 4 4.5
v -2 4 4.5
v -4 4 3.5
v -3 4 3.5
v -2 4 3.5
v -2 4 2.5
v 0 4 2.5
v 1 4 2.5
v 2 4 2.5
v -4 4 1.5
v -3 4 1.5
v -2 4 1.5
v 2 4 1.5
v 3 4 1.5
v 5 4 1.5
v 6 4 1.5
v -2 4 0.5
v 3 4 0.5
v 5 4 0.5
v 6 4 0.5
v -5 4 -0.5
v -4 4 -0.5
v -3 4 -0.5
v -2 4 -0.5
v -5 4 -1.5
v -4 4 -1.5
v -3 4 -3.5
v -2 4 -3.5
v -3 4 -4.5
v -2 4 -4.5
v -1 4 -4.5
v 2 4 -4.5
v 5 4 -4.5
v 6 4 -4.5
v 7 4 -4.5
v -2 4 -5.5
v -1 4 -5.5
v 0 4 -5.5
v 1 4 -5.5
v 2 4 -5.5
v 5 4 -5.5
v 6 4 -5.5
v 7 4 -5.5
v 0 4 -6.5
v 1 4 -6.5
v -4 5 1.5
v -3 5 1.5
v -4 5 -0.5
v -3 5 -0.5
v 1 5 -5.5
v 2 5 -5.5
v 4 5 -5.5
v 5 5 -5.5
v 1 5 -6.5
v 2 5 -6.5
v 4 5 -6.5
v 5 5 -6.5
v -1 6 7.5
v 0 6 7.5
v -1 6 6.5
v 0 6 6.5
v -1 6 3.5
v 3 6 3.5
v -2 6 2.5
v -1 6 2.5
v 3 6 2.5
v 4 6 2.5
v -2 6 1.5
v -1 6 1.5
v 3 6 1.5
v 4 6 1.5
v 4 6 -1.5
v 5 6 -1.5
v -1 6 -3.5
v 4 6 -3.5
v -1 6 -4.5
v 5 6 -4.5
v 2 6 -5.5
v 3 6 -5.5
v 4 6 -5.5
v 2 6 -6.5
v 3 6 -6.5
v 4 6 -6.5
v -1 7 4.5
v 0 7 4.5
v 2 7 4.5
v 3 7 4.5
v -2 7 3.5
v -1 7 3.5
v 0 7 3.5
v 2 7 3.5
v 3 7 3.5
v 4 7 3.5
v -2 7 2.5
v -1 7 2.5
v 3 7 2.5
v 4 7 2.5
v -4 7 -0.5
v -3 7 -0.5
v 5 7 -0.5
v 6 7 -0.5
v -4 7 -2.5
v -3 7 -2.5
v 3 7 -2.5
v 4 7 -2.5
v 5 7 -2.5
v 6 7 -2.5
v 3 7 -3.5
v 4 7 -3.5
v -3 8 2.5
v -2 8 2.5
v 4 8 2.5
v 5 8 2.5
v -3 8 0.5
v -2 8 0.5
v 4 8 0.5
v 5 8 0.5
v -2 8 -1.5
v -1 8 -1.5
v 3 8 -1.5
v 4 8 -1.5
v -1 8 -2.5
v 0 8 -2.5
v 2 8 -2.5
v 3 8 -2.5
v 4 8 -2.5
v -2 8 -3.5
v 0 8 -3.5
v 2 8 -3.5
v 3 8 -3.5
v 4 8 -5.5
v 5 8 -5.5
v 4 8 -6.5
v 5 8 -6.5
v 0 9 6.5
v 2 9 6.5
v 0 9 4.5
v 2 9 4.5
v -5 9 -1.5
v -4 9 -1.5
v -3 9 -1.5
v 5 9 -1.5
v 6 9 -1.5
v 7 9 -1.5
v -5 9 -2.5
v -3 9 -2.5
v -2 9 -2.5
v 4 9 -2.5
v 5 9 -2.5
v 7 9 -2.5
v -3 9 -3.5
v -2 9 -3.5
v -1 9 -3.5
v 3 9 -3.5
v 4 9 -3.5
v 5 9 -3.5
v -2 9 -4.5
v -1 9 -4.5
v 3 9 -4.5
v 4 9 -4.5
v -1 9 -5.5
v 0 9 -5.5
v 1 9 -5.5
v 2 9 -5.5
v 3 9 -5.5
v 5 9 -5.5
v 6 9 -5.5
v 0 9 -6.5
v 1 9 -6.5
v 5 9 -6.5
v 6 9 -6.5
v -5 10 -2.5
v -4 10 -2.5
v 6 10 -2.5
v 7 10 -2.5
v -5 10 -3.5
v -4 10 -3.5
v -3 10 -3.5
v -2 10 -3.5
v 4 10 -3.5
v 5 10 -3.5
v 6 10 -3.5
v 7 10 -3.5
v -3 10 -4.5
v -2 10 -4.5
v -1 10 -4.5
v 3 10 -4.5
v 4 10 -4.5
v 5 10 -4.5
v -2 10 -5.5
v -1 10 -5.5
v 3 10 -5.5
v 4 10 -5.5
v 0 10 -6.5
v 2 10 -6.5
v 0 10 -7.5
v 2 10 -7.5
v -1 11 4.5
v 0 11 4.5
v 2 11 4.5
v 3 11 4.5
v -2 11 3.5
v -1 11 3.5
v 0 11 3.5
v 2 11 3.5
v 3 11 3.5
v 4 11 3.5
v -3 11 2.5
v -2 11 2.5
v -1 11 2.5
v 3 11 2.5
v 4 11 2.5
v 5 11 2.5
v -3 11 0.5
v -2 11 0.5
v 4 11 0.5
v 5 11 0.5
v -2 11 -1.5
v 4 11 -1.5
v -1 11 -5.5
v 3 11 -5.5
v -1 11 -6.5
v 0 11 -6.5
v 2 11 -6.5
v 3 11 -6.5
v 0 12 5.5
v 2 12 5.5
v 0 12 4.5
v 2 12 4.5
v -2 12 -1.5
v 4 12 -1.5
v -2 12 -4.5
v 4 12 -4.5
v -2 1 3.5
v -1 1 3.5
v -1 1 2.5
v 0 1 2.5
v -2 1 1.5
v 0 1 1.5
v -2 2 5.5
v -1 2 5.5
v -3 2 4.5
v -2 2 4.5
v -1 2 4.5
v -3 2 3.5
v -2 2 3.5
v 0 2 2.5
v 2 2 2.5
v -3 2 1.5
v -2 2 1.5
v 0 2 1.5
v 2 2 1.5
v 3 2 1.5
v 3 2 0.5
v 5 2 0.5
v -3 2 -1.5
v -2 2 -1.5
v -2 2 -3.5
v -1 2 -3.5
v 2 2 -3.5
v 5 2 -3.5
v -1 2 -4.5
v 2 2 -4.5
v 2 2 -5.5
v 3 2 -5.5
v 5 2 -5.5
v 2 2 -6.5
v 3 2 -6.5
v 2 2 -7.5
v 3 2 -7.5
v -2 3 4.5
v 0 3 4.5
v -3 3 3.5
v -2 3 3.5
v 0 3 3.5
v 3 3 3.5
v 4 3 3.5
v -4 3 2.5
v -3 3 2.5
v -2 3 2.5
v 3 3 2.5
v 4 3 2.5
v 5 3 2.5
v -3 3 1.5
v -2 3 1.5
v 4 3 1.5
v 5 3 1.5
v 6 3 1.5
v 5 3 0.5
v 6 3 0.5
v -4 3 -0.5
v -3 3 -0.5
v -4 3 -1.5
v -3 3 -1.5
v -4 3 -3.5
v -3 3 -3.5
v -2 3 -3.5
v -3 3 -4.5
v -2 3 -4.5
v -1 3 -4.5
v -4 3 -5.5
v -3 3 -5.5
v -2 3 -5.5
v -1 3 -5.5
v 1 3 -5.5
v 2 3 -5.5
v -4 3 -6.5
v -3 3 -6.5
v 1 3 -6.5
v 2 3 -6.5
v 3 3 -6.5
v 4 3 -6.5
v 3 3 -7.5
v 4 3 -7.5
v -2 4 3.5
v -1 4 3.5
v 2 4 3.5
v 3 4 3.5
v -2 4 2.5
v -1 4 2.5
v 2 4 2.5
v 3 4 2.5
v -2 4 -2.5
v -1 4 -2.5
v -2 4 -3.5
v -1 4 -3.5
v 0 4 -3.5
v -1 4 -4.5
v 0 4 -4.5
v -3 4 -5.5
v -2 4 -5.5
v 2 4 -5.5
v 3 4 -5.5
v 4 4 -5.5
v 5 4 -5.5
v -3 4 -6.5
v -2 4 -6.5
v 2 4 -6.5
v 3 4 -6.5
v 4 4 -6.5
v 5 4 -6.5
v -5 5 5.5
v -4 5 5.5
v -5 5 3.5
v -4 5 3.5
v -1 5 3.5
v 2 5 3.5
v -2 5 2.5
v -1 5 2.5
v 2 5 2.5
v 3 5 2.5
v 4 5 2.5
v -5 5 1.5
v -4 5 1.5
v -2 5 1.5
v -1 5 1.5
v 3 5 1.5
v 4 5 1.5
v 6 5 0.5
v 7 5 0.5
v -5 5 -0.5
v -4 5 -0.5
v -5 5 -1.5
v -4 5 -1.5
v 6 5 -1.5
v 7 5 -1.5
v 6 5 -2.5
v 7 5 -2.5
v 6 5 -4.5
v 7 5 -4.5
v -2 5 -5.5
v -1 5 -5.5
v 3 5 -5.5
v 4 5 -5.5
v 6 5 -5.5
v 7 5 -5.5
v -2 5 -6.5
v -1 5 -6.5
v 3 5 -6.5
v 4 5 -6.5
v -4 6 5.5
v -2 6 5.5
v -3 6 4.5
v -2 6 4.5
v -4 6 3.5
v -3 6 3.5
v -2 6 2.5
v -5 6 1.5
v -4 6 1.5
v -3 6 1.5
v -2 6 1.5
v 5 6 1.5
v 6 6 1.5
v -5 6 -0.5
v -4 6 -0.5
v -3 6 -0.5
v -4 6 -1.5
v -3 6 -1.5
v 5 6 -1.5
v 6 6 -1.5
v 5 6 -2.5
v 6 6 -2.5
v 7 6 -2.5
v -3 6 -3.5
v -2 6 -3.5
v -3 6 -4.5
v -2 6 -4.5
v 3 6 -4.5
v 4 6 -4.5
v 5 6 -4.5
v 6 6 -4.5
v 7 6 -4.5
v -2 6 -5.5
v -1 6 -5.5
v 0 6 -5.5
v 3 6 -5.5
v 4 6 -5.5
v 5 6 -5.5
v 6 6 -5.5
v -1 6 -6.5
v 0 6 -6.5
v -7 7 7.5
v -6 7 7.5
v -1 7 7.5
v 0 7 7.5
v -7 7 6.5
v -6 7 6.5
v -1 7 6.5
v 0 7 6.5
v -7 7 5.5
v -6 7 5.5
v -1 7 5.5
v 0 7 5.5
v -4 7 1.5
v -3 7 1.5
v -2 7 1.5
v 4 7 1.5
v 5 7 1.5
v -3 7 0.5
v -2 7 0.5
v 4 7 0.5
v 5 7 0.5
v -4 7 -0.5
v -3 7 -0.5
v 5 7 -2.5
v 6 7 -2.5
v 4 7 -3.5
v 5 7 -3.5
v 3 7 -4.5
v 4 7 -4.5
v 5 7 -4.5
v 6 7 -4.5
v 0 7 -5.5
v 1 7 -5.5
v 3 7 -5.5
v 4 7 -5.5
v 5 7 -5.5
v 0 7 -6.5
v 1 7 -6.5
v 4 7 -6.5
v 5 7 -6.5
v -6 8 7.5
v -1 8 7.5
v -6 8 6.5
v -1 8 6.5
v -6 8 5.5
v -1 8 5.5
v -4 8 -1.5
v -3 8 -1.5
v 5 8 -1.5
v 6 8 -1.5
v -4 8 -2.5
v -3 8 -2.5
v -2 8 -2.5
v 4 8 -2.5
v 5 8 -2.5
v 6 8 -2.5
v -3 8 -3.5
v -2 8 -3.5
v -1 8 -3.5
v 3 8 -3.5
v 4 8 -3.5
v 5 8 -3.5
v -2 8 -4.5
v -1 8 -4.5
v 3 8 -4.5
v 4 8 -4.5
v -1 9 4.5
v 0 9 4.5
v 2 9 4.5
v 3 9 4.5
v -2 9 3.5
v -1 9 3.5
v 0 9 3.5
v 2 9 3.5
v 3 9 3.5
v 4 9 3.5
v -3 9 2.5
v -2 9 2.5
v -1 9 2.5
v 3 9 2.5
v 4 9 2.5
v 5 9 2.5
v -3 9 0.5
v -2 9 0.5
v 4 9 0.5
v 5 9 0.5
v -2 9 -1.5
v -1 9 -1.5
v 3 9 -1.5
v 4 9 -1.5
v -2 9 -2.5
v -1 9 -2.5
v 0 9 -2.5
v 2 9 -2.5
v 3 9 -2.5
v 4 9 -2.5
v 0 9 -3.5
v 2 9 -3.5
v -1 9 -4.5
v 3 9 -4.5
v 2 9 -5.5
v 3 9 -5.5
v 2 9 -6.5
v 3 9 -6.5
v 0 10 6.5
v 2 10 6.5
v 0 10 4.5
v 2 10 4.5
v -2 10 -2.5
v -1 10 -2.5
v 3 10 -2.5
v 4 10 -2.5
v -2 10 -3.5
v 4 10 -3.5
v -2 10 -4.5
v -1 10 -4.5
v 3 10 -4.5
v 4 10 -4.5
v 0 10 -5.5
v 2 10 -5.5
v 3 10 -5.5
v 4 10 -5.5
v 0 10 -6.5
v 2 10 -6.5
v 3 10 -6.5
v 4 10 -6.5
v -4 11 -0.5
v -3 11 -0.5
v 5 11 -0.5
v 6 11 -0.5
v -4 11 -1.5
v 5 11 -1.5
v 6 11 -1.5
v -4 11 -2.5
v -3 11 -2.5
v 5 11 -2.5
v 6 11 -2.5
v 4 11 -5.5
v 6 11 -5.5
v 4 11 -6.5
v 6 11 -6.5
v -1 12 4.5
v 0 12 4.5
v 2 12 4.5
v 3 12 4.5
v -2 12 3.5
v -1 12 3.5
v 0 12 3.5
v 2 12 3.5
v 3 12 3.5
v 4 12 3.5
v -3 12 2.5
v -2 12 2.5
v -1 12 2.5
v 3 12 2.5
v 4 12 2.5
v 5 12 2.5
v -3 12 -0.5
v -2 12 -0.5
v 4 12 -0.5
v 5 12 -0.5
v -5 12 -1.5
v -4 12 -1.5
v 6 12 -1.5
v 7 12 -1.5
v -5 12 -2.5
v -4 12 -2.5
v 6 12 -2.5
v 7 12 -2.5
v -3 12 -3.5
v -2 12 -3.5
v 4 12 -3.5
v 5 12 -3.5
v -3 12 -4.5
v -2 12 -4.5
v -1 12 -4.5
v 3 12 -4.5
v 4 12 -4.5
v 5 12 -4.5
v -2 12 -5.5
v -1 12 -5.5
v 0 12 -5.5
v 2 12 -5.5
v 3 12 -5.5
v 4 12 -5.5
v -1 12 -6.5
v 0 12 -6.5
v 2 12 -6.5
v 3 12 -6.5
v 0 12 -7.5
v 2 12 -7.5
v 0 13 5.5
v 2 13 5.5
v 0 13 4.5
v 2 13 4.5
v -1 13 3.5
v 0 13 3.5
v 2 13 3.5
v 3 13 3.5
v -2 13 2.5
v -1 13 2.5
v 0 13 2.5
v 2 13 2.5
v 3 13 2.5
v 4 13 2.5
v 3 13 1.5
v -2 13 0.5
v -1 13 0.5
v 3 13 0.5
v 4 13 0.5
v -3 13 -0.5
v -2 13 -0.5
v 4 13 -0.5
v 5 13 -0.5
v -3 13 -1.5
v -2 13 -1.5
v 4 13 -1.5
v 5 13 -1.5
v -5 13 -2.5
v -4 13 -2.5
v -3 13 -2.5
v -2 13 -2.5
v 4 13 -2.5
v 5 13 -2.5
v 6 13 -2.5
v 7 13 -2.5
v -5 13 -3.5
v -4 13 -3.5
v -3 13 -3.5
v -2 13 -3.5
v -1 13 -3.5
v 3 13 -3.5
v 4 13 -3.5
v 5 13 -3.5
v 6 13 -3.5
v 7 13 -3.5
v -2 13 -4.5
v -1 13 -4.5
v 3 13 -4.5
v 4 13 -4.5
v -1 13 -5.5
v 0 13 -5.5
v 2 13 -5.5
v 3 13 -5.5
v 0 13 -6.5
v 2 13 -6.5
v 0 14 4.5
v 2 14 4.5
v -1 14 2.5
v 0 14 2.5
v 2 14 2.5
v 3 14 2.5
v -1 14 1.5
v 3 14 1.5
v -2 14 0.5
v -1 14 0.5
v 3 14 0.5
v 4 14 0.5
v -2 14 -0.5
v -1 14 -0.5
v 3 14 -0.5
v 4 14 -0.5
v -3 14 -1.5
v -2 14 -1.5
v -1 14 -1.5
v 3 14 -1.5
v 4 14 -1.5
v 5 14 -1.5
v -3 14 -2.5
v -2 14 -2.5
v -1 14 -2.5
v 3 14 -2.5
v 4 14 -2.5
v 5 14 -2.5
v -2 14 -3.5
v -1 14 -3.5
v 3 14 -3.5
v 4 14 -3.5
v -1 14 -4.5
v 3 14 -4.5
v -1 15 1.5
v 3 15 1.5
v -2 15 -0.5
v -1 15 -0.5
v 3 15 -0.5
v 4 15 -0.5
v -2 15 -1.5
v -1 15 -1.5
v 3 15 -1.5
v 4 15 -1.5
v -1 15 -2.5
v 3 15 -2.5

# faces
f 4/4/1 2/4/1 1/4/1
f 5/1/1 3/1/1 2/1/1
f 5/4/1 2/4/1 4/4/1
f 6/1/1 3/1/1 5/1/1
f 9/1/1 8/1/1 7/1/1
f 10/1/1 8/1/1 9/1/1
f 14/4/1 12/4/1 11/4/1
f 15/1/1 13/1/1 12/1/1
f 15/4/1 12/4/1 14/4/1
f 16/1/1 13/1/1 15/1/1
f 20/4/1 19/4/1 18/4/1
f 22/1/1 18/1/1 17/1/1
f 23/4/1 21/4/1 20/4/1
f 23/1/1 18/1/1 22/1/1
f 23/4/1 20/4/1 18/4/1
f 24/4/1 21/4/1 23/4/1
f 25/4/1 21/4/1 24/4/1
f 26/4/1 21/4/1 25/4/1
f 27/4/1 25/4/1 24/4/1
f 28/4/1 25/4/1 27/4/1
f 31/1/1 30/1/1 29/1/1
f 33/1/1 31/1/1 29/1/1
f 33/1/1 32/1/1 31/1/1
f 34/1/1 32/1/1 33/1/1
f 35/1/1 32/1/1 34/1/1
f 36/1/1 32/1/1 35/1/1
f 41/2/1 38/2/1 37/2/1
f 42/2/1 38/2/1 41/2/1
f 43/2/1 38/2/1 42/2/1
f 44/2/1 38/2/1 43/2/1
f 45/7/1 40/7/1 39/7/1
f 46/7/1 40/7/1 45/7/1
f 47/2/1 43/2/1 42/2/1
f 48/2/1 43/2/1 47/2/1
f 54/1/1 50/1/1 49/1/1
f 55/4/1 51/4/1 50/4/1
f 55/1/1 50/1/1 54/1/1
f 56/4/1 51/4/1 55/4/1
f 57/4/1 53/4/1 52/4/1
f 58/4/1 53/4/1 57/4/1
f 59/4/1 57/4/1 56/4/1
f 60/4/1 57/4/1 59/4/1
f 62/2/1 61/2/1 60/2/1
f 63/2/1 61/2/1 62/2/1
f 64/2/1 61/2/1 63/2/1
f 65/1/1 63/1/1 62/1/1
f 66/1/1 65/1/1 62/1/1
f 67/1/1 65/1/1 66/1/1
f 70/4/1 69/4/1 68/4/1
f 71/4/1 69/4/1 70/4/1
f 74/4/1 70/4/1 68/4/1
f 75/2/1 71/2/1 70/2/1
f 75/4/1 70/4/1 74/4/1
f 76/2/1 71/2/1 75/2/1
f 77/2/1 71/2/1 76/2/1
f 79/2/1 73/2/1 72/2/1
f 80/2/1 73/2/1 79/2/1
f 85/4/1 79/4/1 78/4/1
f 86/4/1 79/4/1 85/4/1
f 88/7/1 82/7/1 81/7/1
f 89/7/1 82/7/1 88/7/1
f 90/2/1 84/2/1 83/2/1
f 91/2/1 84/2/1 90/2/1
f 93/2/1 87/2/1 86/2/1
f 93/2/1 86/2/1 85/2/1
f 94/2/1 87/2/1 93/2/1
f 95/2/1 87/2/1 94/2/1
f 97/2/1 93/2/1 92/2/1
f 97/2/1 94/2/1 93/2/1
f 98/2/1 94/2/1 97/2/1
f 100/2/1 97/2/1 96/2/1
f 101/2/1 97/2/1 100/2/1
f 103/2/1 94/2/1 98/2/1
f 104/2/1 94/2/1 103/2/1
f 105/1/1 101/1/1 100/1/1
f 105/1/1 100/1/1 99/1/1
f 106/1/1 101/1/1 105/1/1
f 107/1/1 101/1/1 106/1/1
f 108/4/1 103/4/1 102/4/1
f 109/4/1 103/4/1 108/4/1
f 111/4/1 110/4/1 109/4/1
f 114/4/1 107/4/1 106/4/1
f 115/4/1 107/4/1 114/4/1
f 116/4/1 111/4/1 109/4/1
f 117/2/1 112/2/1 111/2/1
f 117/4/1 111/4/1 116/4/1
f 118/4/1 115/4/1 114/4/1
f 118/4/1 114/4/1 113/4/1
f 119/2/1 116/2/1 115/2/1
f 119/4/1 115/4/1 118/4/1
f 119/2/1 117/2/1 116/2/1
f 120/2/1 112/2/1 117/2/1
f 120/2/1 117/2/1 119/2/1
f 121/2/1 112/2/1 120/2/1
f 122/2/1 120/2/1 119/2/1
f 123/2/1 120/2/1 122/2/1
f 124/2/1 120/2/1 123/2/1
f 125/2/1 120/2/1 124/2/1
f 126/2/1 124/2/1 123/2/1
f 127/2/1 124/2/1 126/2/1
f 132/4/1 129/4/1 128/4/1
f 133/4/1 129/4/1 132/4/1
f 136/4/1 131/4/1 130/4/1
f 137/4/1 131/4/1 136/4/1
f 139/2/1 138/2/1 137/2/1
f 140/2/1 138/2/1 139/2/1
f 143/2/1 135/2/1 134/2/1
f 144/2/1 135/2/1 143/2/1
f 145/4/1 141/4/1 140/4/1
f 146/4/1 141/4/1 145/4/1
f 147/4/1 143/4/1 142/4/1
f 148/4/1 143/4/1 147/4/1
f 151/2/1 149/2/1 148/2/1
f 151/7/1 150/7/1 149/7/1
f 152/7/1 150/7/1 151/7/1
f 156/2/1 151/2/1 148/2/1
f 157/2/1 151/2/1 156/2/1
f 159/2/1 154/2/1 153/2/1
f 160/2/1 154/2/1 159/2/1
f 162/1/1 159/1/1 158/1/1
f 162/1/1 161/1/1 160/1/1
f 162/1/1 160/1/1 159/1/1
f 163/1/1 161/1/1 162/1/1
f 165/2/1 156/2/1 155/2/1
f 166/2/1 156/2/1 165/2/1
f 167/1/1 162/1/1 158/1/1
f 168/1/1 162/1/1 167/1/1
f 170/4/1 165/4/1 164/4/1
f 171/4/1 165/4/1 170/4/1
f 173/4/1 172/4/1 171/4/1
f 174/4/1 172/4/1 173/4/1
f 177/1/1 169/1/1 168/1/1
f 178/1/1 169/1/1 177/1/1
f 179/4/1 177/4/1 176/4/1
f 180/4/1 177/4/1 179/4/1
f 183/2/1 175/2/1 174/2/1
f 184/2/1 175/2/1 183/2/1
f 185/4/1 181/4/1 180/4/1
f 186/4/1 181/4/1 185/4/1
f 187/4/1 181/4/1 186/4/1
f 190/2/1 183/2/1 182/2/1
f 191/2/1 183/2/1 190/2/1
f 192/2/1 188/2/1 187/2/1
f 192/2/1 187/2/1 186/2/1
f 193/2/1 188/2/1 192/2/1
f 194/2/1 188/2/1 193/2/1
f 195/2/1 190/2/1 189/2/1
f 196/2/1 190/2/1 195/2/1
f 197/2/1 194/2/1 193/2/1
f 198/2/1 194/2/1 197/2/1
f 201/2/1 200/2/1 199/2/1
f 202/2/1 200/2/1 201/2/1
f 207/4/1 204/4/1 203/4/1
f 208/4/1 204/4/1 207/4/1
f 209/4/1 206/4/1 205/4/1
f 210/4/1 206/4/1 209/4/1
f 215/2/1 211/2/1 210/2/1
f 216/2/1 211/2/1 215/2/1
f 217/7/1 213/7/1 212/7/1
f 218/7/1 213/7/1 217/7/1
f 220/1/1 215/1/1 214/1/1
f 221/1/1 215/1/1 220/1/1
f 224/1/1 220/1/1 219/1/1
f 225/1/1 220/1/1 224/1/1
f 227/4/1 223/4/1 222/4/1
f 228/4/1 223/4/1 227/4/1
f 230/4/1 226/4/1 225/4/1
f 231/4/1 226/4/1 230/4/1
f 232/2/1 229/2/1 228/2/1
f 233/2/1 229/2/1 232/2/1
f 235/2/1 231/2/1 230/2/1
f 236/2/1 231/2/1 235/2/1
f 239/4/1 235/4/1 234/4/1
f 240/4/1 235/4/1 239/4/1
f 243/2/1 238/2/1 237/2/1
f 244/2/1 238/2/1 243/2/1
f 245/4/1 241/4/1 240/4/1
f 246/4/1 241/4/1 245/4/1
f 249/2/1 243/2/1 242/2/1
f 250/2/1 243/2/1 249/2/1
f 251/4/1 247/4/1 246/4/1
f 252/4/1 247/4/1 251/4/1
f 253/4/1 247/4/1 252/4/1
f 257/2/1 249/2/1 248/2/1
f 258/2/1 249/2/1 257/2/1
f 259/2/1 253/2/1 252/2/1
f 259/2/1 254/2/1 253/2/1
f 260/2/1 254/2/1 259/2/1
f 261/2/1 256/2/1 255/2/1
f 262/2/1 256/2/1 261/2/1
f 265/2/1 264/2/1 263/2/1
f 266/2/1 264/2/1 265/2/1
f 269/7/1 268/7/1 267/7/1
f 270/7/1 268/7/1 269/7/1
f 276/1/1 272/1/1 271/1/1
f 276/1/1 273/1/1 272/1/1
f 277/1/1 273/1/1 276/1/1
f 278/1/1 273/1/1 277/1/1
f 279/6/1 275/6/1 274/6/1
f 280/6/1 275/6/1 279/6/1
f 282/1/1 278/1/1 277/1/1
f 283/1/1 278/1/1 282/1/1
f 284/2/1 281/2/1 280/2/1
f 289/2/1 281/2/1 284/2/1
f 290/2/1 281/2/1 289/2/1
f 291/4/1 287/4/1 286/4/1
f 291/4/1 286/4/1 285/4/1
f 292/4/1 287/4/1 291/4/1
f 293/4/1 287/4/1 292/4/1
f 295/2/1 289/2/1 288/2/1
f 296/2/1 289/2/1 295/2/1
f 297/4/1 294/4/1 293/4/1
f 297/4/1 293/4/1 292/4/1
f 298/4/1 294/4/1 297/4/1
f 301/2/1 300/2/1 299/2/1
f 302/2/1 300/2/1 301/2/1
f 305/7/1 304/7/1 303/7/1
f 306/7/1 304/7/1 305/7/1
f 307/6/1 306/6/1 305/6/1
f 308/6/1 306/6/1 307/6/1
f 311/4/1 310/4/1 309/4/1
f 312/4/1 310/4/1 311/4/1
f 313/4/1 310/4/1 312/4/1
f 317/4/1 314/4/1 313/4/1
f 317/4/1 313/4/1 312/4/1
f 318/4/1 314/4/1 317/4/1
f 319/4/1 314/4/1 318/4/1
f 320/2/1 316/2/1 315/2/1
f 321/2/1 316/2/1 320/2/1
f 324/4/1 321/4/1 320/4/1
f 325/4/1 321/4/1 324/4/1
f 326/2/1 323/2/1 322/2/1
f 327/2/1 323/2/1 326/2/1
f 330/4/1 329/4/1 328/4/1
f 331/4/1 329/4/1 330/4/1
f 336/2/1 333/2/1 332/2/1
f 337/2/1 333/2/1 336/2/1
f 338/4/1 335/4/1 334/4/1
f 339/4/1 335/4/1 338/4/1
f 340/4/1 337/4/1 336/4/1
f 341/4/1 337/4/1 340/4/1
f 344/2/1 343/2/1 342/2/1
f 345/2/1 343/2/1 344/2/1
f 350/2/1 347/2/1 346/2/1
f 351/2/1 347/2/1 350/2/1
f 353/2/1 349/2/1 348/2/1
f 354/2/1 349/2/1 353/2/1
f 355/4/1 353/4/1 352/4/1
f 356/4/1 353/4/1 355/4/1
f 360/4/1 357/4/1 356/4/1
f 361/4/1 357/4/1 360/4/1
f 362/6/1 359/6/1 358/6/1
f 363/6/1 359/6/1 362/6/1
f 366/1/1 365/1/1 364/1/1
f 369/1/1 365/1/1 366/1/1
f 370/1/1 365/1/1 369/1/1
f 372/6/1 368/6/1 367/6/1
f 373/6/1 368/6/1 372/6/1
f 374/2/1 371/2/1 370/2/1
f 374/2/1 370/2/1 369/2/1
f 375/2/1 371/2/1 374/2/1
f 376/2/1 371/2/1 375/2/1
f 377/2/1 375/2/1 374/2/1
f 378/2/1 375/2/1 377/2/1
f 379/2/1 375/2/1 378/2/1
f 380/2/1 375/2/1 379/2/1
f 381/1/1 378/1/1 377/1/1
f 382/4/1 379/4/1 378/4/1
f 382/1/1 378/1/1 381/1/1
f 383/4/1 379/4/1 382/4/1
f 385/4/1 382/4/1 381/4/1
f 385/4/1 384/4/1 383/4/1
f 385/4/1 383/4/1 382/4/1
f 390/4/1 386/4/1 385/4/1
f 390/4/1 385/4/1 381/4/1
f 391/4/1 386/4/1 390/4/1
f 392/2/1 387/2/1 386/2/1
f 392/4/1 386/4/1 391/4/1
f 393/3/1 389/3/1 388/3/1
f 394/3/1 389/3/1 393/3/1
f 395/2/1 392/2/1 391/2/1
f 396/2/1 387/2/1 392/2/1
f 396/2/1 392/2/1 395/2/1
f 400/2/1 398/2/1 397/2/1
f 400/2/1 399/2/1 398/2/1
f 401/2/1 399/2/1 400/2/1
f 402/2/1 399/2/1 401/2/1
f 403/2/1 399/2/1 402/2/1
f 404/4/1 402/4/1 401/4/1
f 404/2/1 403/2/1 402/2/1
f 405/2/1 403/2/1 404/2/1
f 406/4/1 404/4/1 401/4/1
f 407/4/1 404/4/1 406/4/1
f 411/1/1 409/1/1 408/1/1
f 412/1/1 411/1/1 410/1/1
f 413/1/1 409/1/1 411/1/1
f 413/1/1 411/1/1 412/1/1
f 414/1/1 409/1/1 413/1/1
f 415/1/1 409/1/1 414/1/1
f 416/4/2 417/4/2 419/4/2
f 417/4/2 418/4/2 419/4/2
f 419/4/2 418/4/2 420/4/2
f 420/4/2 418/4/2 421/4/2
f 420/4/2 421/4/2 422/4/2
f 422/4/2 421/4/2 423/4/2
f 424/1/2 425/1/2 427/1/2
f 426/1/2 427/1/2 428/1/2
f 427/1/2 425/1/2 429/1/2
f 428/1/2 427/1/2 429/1/2
f 429/1/2 425/1/2 430/1/2
f 430/1/2 425/1/2 431/1/2
f 432/2/2 433/2/2 437/2/2
f 437/2/2 433/2/2 438/2/2
f 438/2/2 433/2/2 439/2/2
f 434/1/2 435/1/2 440/1/2
f 435/4/2 436/4/2 441/4/2
f 440/1/2 435/1/2 441/1/2
f 441/4/2 436/4/2 442/4/2
f 443/2/2 444/2/2 447/2/2
f 447/2/2 444/2/2 448/2/2
f 448/2/2 444/2/2 449/2/2
f 445/7/2 446/7/2 452/7/2
f 452/7/2 446/7/2 453/7/2
f 448/2/2 449/2/2 454/2/2
f 454/2/2 449/2/2 455/2/2
f 450/2/2 451/2/2 457/2/2
f 457/2/2 451/2/2 458/2/2
f 458/2/2 451/2/2 459/2/2
f 456/2/2 457/2/2 465/2/2
f 457/4/2 458/4/2 466/4/2
f 465/2/2 457/2/2 466/2/2
f 466/4/2 458/4/2 467/4/2
f 462/4/2 463/4/2 469/4/2
f 461/4/2 462/4/2 469/4/2
f 460/1/2 461/1/2 471/1/2
f 469/4/2 470/4/2 472/4/2
f 471/1/2 461/1/2 472/1/2
f 461/4/2 469/4/2 472/4/2
f 472/4/2 470/4/2 473/4/2
f 473/4/2 470/4/2 474/4/2
f 467/2/2 468/2/2 475/2/2
f 465/2/2 466/2/2 475/2/2
f 464/2/2 465/2/2 475/2/2
f 466/2/2 467/2/2 475/2/2
f 475/2/2 468/2/2 476/2/2
f 476/2/2 468/2/2 477/2/2
f 477/2/2 468/2/2 478/2/2
f 478/2/2 468/2/2 479/2/2
f 476/1/2 477/1/2 480/1/2
f 477/4/2 478/4/2 481/4/2
f 480/1/2 477/1/2 481/1/2
f 481/4/2 478/4/2 482/4/2
f 480/4/2 481/4/2 484/4/2
f 482/4/2 483/4/2 484/4/2
f 481/4/2 482/4/2 484/4/2
f 484/4/2 485/4/2 487/4/2
f 480/4/2 484/4/2 487/4/2
f 487/4/2 485/4/2 488/4/2
f 485/2/2 486/2/2 489/2/2
f 488/4/2 485/4/2 489/4/2
f 488/2/2 489/2/2 490/2/2
f 489/2/2 486/2/2 491/2/2
f 490/2/2 489/2/2 491/2/2
f 492/1/2 493/1/2 496/1/2
f 493/4/2 494/4/2 497/4/2
f 496/1/2 493/1/2 497/1/2
f 497/4/2 494/4/2 498/4/2
f 499/2/2 500/2/2 504/2/2
f 504/2/2 500/2/2 505/2/2
f 501/7/2 502/7/2 506/7/2
f 506/7/2 502/7/2 507/7/2
f 503/4/2 504/4/2 508/4/2
f 508/4/2 504/4/2 509/4/2
f 495/4/2 496/4/2 511/4/2
f 511/4/2 496/4/2 512/4/2
f 509/2/2 510/2/2 513/2/2
f 513/2/2 510/2/2 514/2/2
f 515/4/2 516/4/2 518/4/2
f 516/1/2 517/1/2 519/1/2
f 518/4/2 516/4/2 519/4/2
f 519/1/2 517/1/2 520/1/2
f 521/4/2 522/4/2 523/4/2
f 523/4/2 522/4/2 524/4/2
f 524/4/2 525/4/2 526/4/2
f 526/4/2 525/4/2 527/4/2
f 528/4/2 529/4/2 530/4/2
f 530/4/2 529/4/2 531/4/2
f 528/4/2 530/4/2 534/4/2
f 534/4/2 530/4/2 535/4/2
f 534/2/2 535/2/2 536/2/2
f 536/2/2 535/2/2 537/2/2
f 538/4/2 539/4/2 542/4/2
f 542/4/2 539/4/2 543/4/2
f 540/7/2 541/7/2 544/7/2
f 544/7/2 541/7/2 545/7/2
f 532/1/2 533/1/2 547/1/2
f 546/4/2 547/4/2 548/4/2
f 547/1/2 533/1/2 549/1/2
f 548/4/2 547/4/2 549/4/2
f 549/1/2 533/1/2 550/1/2
f 551/4/2 552/4/2 553/4/2
f 553/4/2 552/4/2 554/4/2
f 555/7/2 556/7/2 557/7/2
f 557/7/2 556/7/2 558/7/2
f 559/2/2 560/2/2 561/2/2
f 561/2/2 560/2/2 562/2/2
f 561/4/2 562/4/2 565/4/2
f 565/4/2 562/4/2 566/4/2
f 563/4/2 564/4/2 567/4/2
f 567/4/2 564/4/2 568/4/2
f 569/7/2 570/7/2 571/7/2
f 571/7/2 570/7/2 572/7/2
f 573/1/2 574/1/2 578/1/2
f 574/1/2 575/1/2 578/1/2
f 578/1/2 575/1/2 579/1/2
f 579/1/2 575/1/2 580/1/2
f 576/6/2 577/6/2 581/6/2
f 581/6/2 577/6/2 582/6/2
f 579/1/2 580/1/2 584/1/2
f 584/1/2 580/1/2 585/1/2
f 582/2/2 583/2/2 586/2/2
f 586/2/2 583/2/2 591/2/2
f 591/2/2 583/2/2 592/2/2
f 588/4/2 589/4/2 593/4/2
f 587/4/2 588/4/2 593/4/2
f 593/4/2 589/4/2 594/4/2
f 594/4/2 589/4/2 595/4/2
f 590/2/2 591/2/2 597/2/2
f 597/2/2 591/2/2 598/2/2
f 595/4/2 596/4/2 599/4/2
f 594/4/2 595/4/2 599/4/2
f 599/4/2 596/4/2 600/4/2
f 601/4/2 602/4/2 603/4/2
f 603/4/2 602/4/2 604/4/2
f 605/2/2 606/2/2 608/2/2
f 608/2/2 606/2/2 609/2/2
f 607/1/2 608/1/2 611/1/2
f 611/1/2 608/1/2 612/1/2
f 610/1/2 611/1/2 615/1/2
f 615/1/2 611/1/2 616/1/2
f 613/4/2 614/4/2 618/4/2
f 618/4/2 614/4/2 619/4/2
f 616/4/2 617/4/2 621/4/2
f 621/4/2 617/4/2 622/4/2
f 619/2/2 620/2/2 623/2/2
f 623/2/2 620/2/2 624/2/2
f 621/2/2 622/2/2 626/2/2
f 626/2/2 622/2/2 627/2/2
f 625/4/2 626/4/2 630/4/2
f 630/4/2 626/4/2 631/4/2
f 628/2/2 629/2/2 634/2/2
f 634/2/2 629/2/2 635/2/2
f 631/4/2 632/4/2 636/4/2
f 636/4/2 632/4/2 637/4/2
f 633/2/2 634/2/2 641/2/2
f 641/2/2 634/2/2 642/2/2
f 637/4/2 638/4/2 643/4/2
f 638/2/2 639/2/2 644/2/2
f 643/4/2 638/4/2 644/4/2
f 644/2/2 639/2/2 645/2/2
f 640/2/2 641/2/2 649/2/2
f 649/2/2 641/2/2 650/2/2
f 644/2/2 645/2/2 651/2/2
f 645/2/2 646/2/2 651/2/2
f 651/2/2 646/2/2 652/2/2
f 647/2/2 648/2/2 653/2/2
f 653/2/2 648/2/2 654/2/2
f 655/2/2 656/2/2 659/2/2
f 659/2/2 656/2/2 660/2/2
f 657/4/2 658/4/2 662/4/2
f 662/4/2 658/4/2 663/4/2
f 660/4/2 661/4/2 664/4/2
f 664/4/2 661/4/2 665/4/2
f 664/2/2 665/2/2 668/2/2
f 668/2/2 665/2/2 669/2/2
f 666/2/2 667/2/2 670/2/2
f 670/2/2 667/2/2 671/2/2
f 672/2/2 673/2/2 677/2/2
f 677/2/2 673/2/2 678/2/2
f 674/2/2 675/2/2 681/2/2
f 681/2/2 675/2/2 682/2/2
f 678/1/2 679/1/2 684/1/2
f 676/1/2 677/1/2 684/1/2
f 677/1/2 678/1/2 684/1/2
f 684/1/2 679/1/2 685/1/2
f 680/2/2 681/2/2 687/2/2
f 687/2/2 681/2/2 688/2/2
f 682/3/2 683/3/2 689/3/2
f 689/3/2 683/3/2 690/3/2
f 676/1/2 684/1/2 691/1/2
f 691/1/2 684/1/2 692/1/2
f 686/4/2 687/4/2 694/4/2
f 694/4/2 687/4/2 695/4/2
f 695/4/2 696/4/2 697/4/2
f 697/4/2 696/4/2 698/4/2
f 692/1/2 693/1/2 701/1/2
f 701/1/2 693/1/2 702/1/2
f 698/2/2 699/2/2 703/2/2
f 700/4/2 701/4/2 704/4/2
f 704/4/2 701/4/2 705/4/2
f 698/2/2 703/2/2 708/2/2
f 708/2/2 703/2/2 709/2/2
f 705/4/2 706/4/2 710/4/2
f 710/4/2 706/4/2 711/4/2
f 711/4/2 706/4/2 712/4/2
f 707/2/2 708/2/2 715/2/2
f 715/2/2 708/2/2 716/2/2
f 712/2/2 713/2/2 717/2/2
f 711/2/2 712/2/2 717/2/2
f 717/2/2 713/2/2 718/2/2
f 718/2/2 713/2/2 719/2/2
f 714/2/2 715/2/2 720/2/2
f 720/2/2 715/2/2 721/2/2
f 718/2/2 719/2/2 722/2/2
f 722/2/2 719/2/2 723/2/2
f 724/4/2 725/4/2 728/4/2
f 728/4/2 725/4/2 729/4/2
f 729/4/2 725/4/2 730/4/2
f 730/4/2 725/4/2 731/4/2
f 726/2/2 727/2/2 732/2/2
f 732/2/2 727/2/2 733/2/2
f 731/4/2 725/4/2 735/4/2
f 735/4/2 725/4/2 736/4/2
f 733/4/2 734/4/2 737/4/2
f 737/4/2 734/4/2 738/4/2
f 735/2/2 736/2/2 739/2/2
f 739/2/2 736/2/2 740/2/2
f 741/6/2 742/6/2 746/6/2
f 744/2/2 745/2/2 747/2/2
f 743/2/2 744/2/2 747/2/2
f 747/2/2 745/2/2 748/2/2
f 748/2/2 745/2/2 749/2/2
f 749/2/2 745/2/2 750/2/2
f 746/6/2 742/6/2 752/6/2
f 752/6/2 742/6/2 753/6/2
f 748/2/2 749/2/2 755/2/2
f 755/2/2 749/2/2 756/2/2
f 750/2/2 751/2/2 758/2/2
f 758/2/2 751/2/2 759/2/2
f 755/1/2 756/1/2 762/1/2
f 754/1/2 755/1/2 762/1/2
f 762/1/2 756/1/2 763/1/2
f 763/1/2 756/1/2 764/1/2
f 757/4/2 758/4/2 765/4/2
f 765/4/2 758/4/2 766/4/2
f 760/6/2 761/6/2 768/6/2
f 768/6/2 761/6/2 769/6/2
f 766/4/2 767/4/2 770/4/2
f 763/4/2 764/4/2 773/4/2
f 773/4/2 764/4/2 774/4/2
f 766/4/2 770/4/2 776/4/2
f 770/2/2 771/2/2 777/2/2
f 776/4/2 770/4/2 777/4/2
f 774/4/2 775/4/2 778/4/2
f 772/4/2 773/4/2 778/4/2
f 773/4/2 774/4/2 778/4/2
f 778/4/2 775/4/2 779/4/2
f 775/2/2 776/2/2 780/2/2
f 779/4/2 775/4/2 780/4/2
f 776/2/2 777/2/2 780/2/2
f 777/2/2 771/2/2 781/2/2
f 780/2/2 777/2/2 781/2/2
f 781/2/2 771/2/2 782/2/2
f 779/2/2 780/2/2 783/2/2
f 780/2/2 781/2/2 783/2/2
f 783/2/2 781/2/2 784/2/2
f 784/2/2 781/2/2 785/2/2
f 785/2/2 781/2/2 786/2/2
f 784/2/2 785/2/2 787/2/2
f 787/2/2 785/2/2 788/2/2
f 789/2/2 790/2/2 791/2/2
f 789/2/2 791/2/2 793/2/2
f 791/2/2 792/2/2 793/2/2
f 793/2/2 792/2/2 794/2/2
f 794/2/2 792/2/2 795/2/2
f 795/2/2 792/2/2 796/2/2
f 796/2/2 792/2/2 799/2/2
f 799/2/2 792/2/2 800/2/2
f 797/1/2 798/1/2 801/1/2
f 797/1/2 801/1/2 806/1/2
f 801/1/2 802/1/2 806/1/2
f 802/4/2 803/4/2 807/4/2
f 806/1/2 802/1/2 807/1/2
f 807/4/2 803/4/2 808/4/2
f 804/4/2 805/4/2 809/4/2
f 809/4/2 805/4/2 810/4/2
f 808/4/2 809/4/2 812/4/2
f 812/4/2 809/4/2 813/4/2
f 811/2/2 812/2/2 814/2/2
f 814/2/2 812/2/2 815/2/2
f 815/2/2 812/2/2 816/2/2
f 814/1/2 815/1/2 817/1/2
f 814/1/2 817/1/2 820/1/2
f 820/1/2 817/1/2 821/1/2
f 818/3/2 819/3/2 822/3/2
f 822/3/2 819/3/2 823/3/2
f 825/4/2 826/4/2 827/4/2
f 824/1/2 825/1/2 829/1/2
f 827/4/2 828/4/2 830/4/2
f 829/1/2 825/1/2 830/1/2
f 825/4/2 827/4/2 830/4/2
f 830/4/2 828/4/2 831/4/2
f 831/4/2 828/4/2 832/4/2
f 832/4/2 828/4/2 833/4/2
f 831/4/2 832/4/2 834/4/2
f 834/4/2 832/4/2 835/4/2
f 836/1/2 837/1/2 838/1/2
f 836/1/2 838/1/2 840/1/2
f 838/1/2 839/1/2 840/1/2
f 840/1/2 839/1/2 841/1/2
f 841/1/2 839/1/2 842/1/2
f 842/1/2 839/1/2 843/1/2
f 846/4/3 845/4/3 844/4/3
f 847/4/3 845/4/3 846/4/3
f 848/4/3 845/4/3 847/4/3
f 850/4/3 846/4/3 844/4/3
f 851/1/3 847/1/3 846/1/3
f 851/4/3 846/4/3 850/4/3
f 852/4/3 849/4/3 848/4/3
f 852/1/3 847/1/3 851/1/3
f 852/4/3 848/4/3 847/4/3
f 853/4/3 849/4/3 852/4/3
f 854/1/3 851/1/3 850/1/3
f 854/4/3 850/4/3 844/4/3
f 854/1/3 853/1/3 852/1/3
f 854/1/3 852/1/3 851/1/3
f 855/1/3 853/1/3 854/1/3
f 856/1/3 853/1/3 855/1/3
f 857/4/3 849/4/3 853/4/3
f 857/1/3 853/1/3 856/1/3
f 858/1/3 856/1/3 855/1/3
f 858/4/3 855/4/3 854/4/3
f 859/4/3 857/4/3 856/4/3
f 859/1/3 856/1/3 858/1/3
f 860/4/3 854/4/3 844/4/3
f 860/4/3 858/4/3 854/4/3
f 860/4/3 859/4/3 858/4/3
f 861/4/3 857/4/3 859/4/3
f 861/4/3 859/4/3 860/4/3
f 862/4/3 849/4/3 857/4/3
f 862/4/3 857/4/3 861/4/3
f 863/4/3 849/4/3 862/4/3
f 864/4/3 862/4/3 861/4/3
f 865/4/3 862/4/3 864/4/3
f 868/1/3 867/1/3 866/1/3
f 869/1/3 867/1/3 868/1/3
f 871/1/3 870/1/3 869/1/3
f 872/1/3 870/1/3 871/1/3
f 875/1/3 874/1/3 873/1/3
f 876/1/3 874/1/3 875/1/3
f 879/4/3 878/4/3 877/4/3
f 880/4/3 878/4/3 879/4/3
f 883/4/3 882/4/3 881/4/3
f 884/4/3 882/4/3 883/4/3
f 886/4/3 883/4/3 881/4/3
f 887/2/3 885/2/3 884/2/3
f 892/4/3 886/4/3 881/4/3
f 892/4/3 887/4/3 886/4/3
f 893/2/3 885/2/3 887/2/3
f 893/4/3 887/4/3 892/4/3
f 894/2/3 885/2/3 893/2/3
f 895/1/3 889/1/3 888/1/3
f 896/1/3 889/1/3 895/1/3
f 897/1/3 889/1/3 896/1/3
f 899/4/3 891/4/3 890/4/3
f 900/4/3 891/4/3 899/4/3
f 903/4/3 896/4/3 895/4/3
f 904/1/3 897/1/3 896/1/3
f 904/4/3 896/4/3 903/4/3
f 905/1/3 897/1/3 904/1/3
f 906/1/3 899/1/3 898/1/3
f 907/4/3 900/4/3 899/4/3
f 907/1/3 899/1/3 906/1/3
f 908/4/3 900/4/3 907/4/3
f 909/4/3 902/4/3 901/4/3
f 910/4/3 902/4/3 909/4/3
f 911/1/3 905/1/3 904/1/3
f 911/1/3 904/1/3 903/1/3
f 912/1/3 905/1/3 911/1/3
f 913/4/3 908/4/3 907/4/3
f 914/4/3 908/4/3 913/4/3
f 917/2/3 916/2/3 915/2/3
f 918/2/3 916/2/3 917/2/3
f 924/4/3 919/4/3 918/4/3
f 927/1/3 921/1/3 920/1/3
f 928/1/3 921/1/3 927/1/3
f 930/4/3 923/4/3 922/4/3
f 931/4/3 923/4/3 930/4/3
f 935/4/3 925/4/3 924/4/3
f 935/4/3 924/4/3 918/4/3
f 936/4/3 925/4/3 935/4/3
f 937/1/3 927/1/3 926/1/3
f 938/4/3 929/4/3 928/4/3
f 939/2/3 930/2/3 929/2/3
f 939/4/3 929/4/3 938/4/3
f 940/2/3 930/2/3 939/2/3
f 941/4/3 932/4/3 931/4/3
f 942/4/3 932/4/3 941/4/3
f 943/4/3 935/4/3 934/4/3
f 943/2/3 936/2/3 935/2/3
f 944/4/3 925/4/3 936/4/3
f 944/2/3 936/2/3 943/2/3
f 945/2/3 934/2/3 933/2/3
f 945/4/3 943/4/3 934/4/3
f 945/4/3 944/4/3 943/4/3
f 946/4/3 944/4/3 945/4/3
f 947/4/3 925/4/3 944/4/3
f 947/4/3 944/4/3 946/4/3
f 948/4/3 925/4/3 947/4/3
f 949/1/3 937/1/3 926/1/3
f 955/2/3 946/2/3 945/2/3
f 955/4/3 947/4/3 946/4/3
f 956/4/3 947/4/3 955/4/3
f 957/1/3 949/1/3 926/1/3
f 958/1/3 949/1/3 957/1/3
f 959/4/3 951/4/3 950/4/3
f 960/2/3 952/2/3 951/2/3
f 960/4/3 951/4/3 959/4/3
f 961/2/3 952/2/3 960/2/3
f 962/4/3 954/4/3 953/4/3
f 963/4/3 954/4/3 962/4/3
f 964/2/3 945/2/3 933/2/3
f 964/2/3 955/2/3 945/2/3
f 965/2/3 955/2/3 964/2/3
f 966/1/3 959/1/3 958/1/3
f 967/1/3 959/1/3 966/1/3
f 968/4/3 962/4/3 961/4/3
f 969/4/3 962/4/3 968/4/3
f 972/2/3 971/2/3 970/2/3
f 973/2/3 971/2/3 972/2/3
f 982/1/3 975/1/3 974/1/3
f 983/1/3 975/1/3 982/1/3
f 984/4/3 977/4/3 976/4/3
f 985/4/3 977/4/3 984/4/3
f 987/2/3 979/2/3 978/2/3
f 988/2/3 979/2/3 987/2/3
f 989/2/3 981/2/3 980/2/3
f 990/2/3 981/2/3 989/2/3
f 991/1/3 984/1/3 983/1/3
f 992/1/3 984/1/3 991/1/3
f 993/1/3 984/1/3 992/1/3
f 994/4/3 986/4/3 985/4/3
f 995/4/3 986/4/3 994/4/3
f 997/4/3 996/4/3 995/4/3
f 998/4/3 996/4/3 997/4/3
f 1000/2/3 989/2/3 988/2/3
f 1004/2/3 1000/2/3 999/2/3
f 1005/2/3 989/2/3 1000/2/3
f 1005/2/3 1000/2/3 1004/2/3
f 1006/2/3 989/2/3 1005/2/3
f 1012/4/3 1002/4/3 1001/4/3
f 1013/4/3 1002/4/3 1012/4/3
f 1015/4/3 1004/4/3 1003/4/3
f 1016/2/3 1005/2/3 1004/2/3
f 1016/4/3 1004/4/3 1015/4/3
f 1017/2/3 1005/2/3 1016/2/3
f 1018/2/3 1007/2/3 1006/2/3
f 1019/2/3 1007/2/3 1018/2/3
f 1021/1/3 1010/1/3 1009/1/3
f 1021/1/3 1009/1/3 1008/1/3
f 1022/1/3 1010/1/3 1021/1/3
f 1023/4/3 1012/4/3 1011/4/3
f 1024/4/3 1012/4/3 1023/4/3
f 1025/2/3 1015/2/3 1014/2/3
f 1026/2/3 1015/2/3 1025/2/3
f 1027/1/3 1021/1/3 1020/1/3
f 1028/1/3 1021/1/3 1027/1/3
f 1029/4/3 1023/4/3 1022/4/3
f 1030/4/3 1023/4/3 1029/4/3
f 1033/4/3 1032/4/3 1031/4/3
f 1034/4/3 1032/4/3 1033/4/3
f 1036/4/3 1035/4/3 1034/4/3
f 1037/4/3 1035/4/3 1036/4/3
f 1041/2/3 1037/2/3 1036/2/3
f 1042/2/3 1037/2/3 1041/2/3
f 1043/2/3 1041/2/3 1040/2/3
f 1044/2/3 1041/2/3 1043/2/3
f 1047/2/3 1039/2/3 1038/2/3
f 1048/2/3 1039/2/3 1047/2/3
f 1051/2/3 1046/2/3 1045/2/3
f 1052/2/3 1046/2/3 1051/2/3
f 1055/2/3 1050/2/3 1049/2/3
f 1056/2/3 1050/2/3 1055/2/3
f 1059/4/3 1054/4/3 1053/4/3
f 1060/1/3 1055/1/3 1054/1/3
f 1060/1/3 1056/1/3 1055/1/3
f 1060/4/3 1054/4/3 1059/4/3
f 1061/2/3 1057/2/3 1056/2/3
f 1061/1/3 1056/1/3 1060/1/3
f 1062/2/3 1057/2/3 1061/2/3
f 1063/2/3 1059/2/3 1058/2/3
f 1064/2/3 1059/2/3 1063/2/3
f 1065/1/3 1061/1/3 1060/1/3
f 1066/1/3 1061/1/3 1065/1/3
f 1071/2/3 1068/2/3 1067/2/3
f 1072/2/3 1068/2/3 1071/2/3
f 1073/4/3 1070/4/3 1069/4/3
f 1074/4/3 1070/4/3 1073/4/3
f 1077/2/3 1076/2/3 1075/2/3
f 1078/2/3 1076/2/3 1077/2/3
f 1085/2/3 1080/2/3 1079/2/3
f 1086/2/3 1080/2/3 1085/2/3
f 1089/2/3 1082/2/3 1081/2/3
f 1090/2/3 1082/2/3 1089/2/3
f 1091/4/3 1084/4/3 1083/4/3
f 1092/4/3 1084/4/3 1091/4/3
f 1093/1/3 1088/1/3 1087/1/3
f 1094/1/3 1088/1/3 1093/1/3
f 1096/1/3 1094/1/3 1093/1/3
f 1096/1/3 1095/1/3 1094/1/3
f 1097/1/3 1095/1/3 1096/1/3
f 1104/2/3 1099/2/3 1098/2/3
f 1105/4/3 1100/4/3 1099/4/3
f 1105/2/3 1099/2/3 1104/2/3
f 1106/4/3 1100/4/3 1105/4/3
f 1107/2/3 1102/2/3 1101/2/3
f 1108/1/3 1103/1/3 1102/1/3
f 1108/2/3 1102/2/3 1107/2/3
f 1109/1/3 1103/1/3 1108/1/3
f 1110/1/3 1103/1/3 1109/1/3
f 1113/2/3 1105/2/3 1104/2/3
f 1114/2/3 1105/2/3 1113/2/3
f 1115/2/3 1112/2/3 1111/2/3
f 1116/2/3 1112/2/3 1115/2/3
f 1119/2/3 1118/2/3 1117/2/3
f 1120/2/3 1118/2/3 1119/2/3
f 1125/2/3 1122/2/3 1121/2/3
f 1126/2/3 1122/2/3 1125/2/3
f 1131/2/3 1124/2/3 1123/2/3
f 1132/2/3 1124/2/3 1131/2/3
f 1133/2/3 1128/2/3 1127/2/3
f 1134/1/3 1130/1/3 1129/1/3
f 1134/2/3 1128/2/3 1133/2/3
f 1134/1/3 1129/1/3 1128/1/3
f 1135/1/3 1130/1/3 1134/1/3
f 1138/1/3 1137/1/3 1136/1/3
f 1139/1/3 1137/1/3 1138/1/3
f 1140/1/3 1137/1/3 1139/1/3
f 1145/2/3 1142/2/3 1141/2/3
f 1146/2/3 1142/2/3 1145/2/3
f 1149/2/3 1144/2/3 1143/2/3
f 1150/2/3 1144/2/3 1149/2/3
f 1151/4/3 1148/4/3 1147/4/3
f 1152/4/3 1148/4/3 1151/4/3
f 1155/4/3 1154/4/3 1153/4/3
f 1156/4/3 1154/4/3 1155/4/3
f 1159/2/3 1158/2/3 1157/2/3
f 1160/2/3 1158/2/3 1159/2/3
f 1164/1/3 1162/1/3 1161/1/3
f 1164/1/3 1163/1/3 1162/1/3
f 1165/1/3 1163/1/3 1164/1/3
f 1168/1/3 1167/1/3 1166/1/3
f 1169/1/3 1167/1/3 1168/1/3
f 1174/4/3 1171/4/3 1170/4/3
f 1175/4/3 1171/4/3 1174/4/3
f 1177/4/3 1173/4/3 1172/4/3
f 1178/4/3 1173/4/3 1177/4/3
f 1179/4/3 1177/4/3 1176/4/3
f 1180/4/3 1177/4/3 1179/4/3
f 1184/4/3 1182/4/3 1181/4/3
f 1185/4/3 1182/4/3 1184/4/3
f 1187/2/3 1184/2/3 1183/2/3
f 1188/2/3 1184/2/3 1187/2/3
f 1189/4/3 1186/4/3 1185/4/3
f 1190/4/3 1186/4/3 1189/4/3
f 1194/4/3 1192/4/3 1191/4/3
f 1195/4/3 1192/4/3 1194/4/3
f 1198/4/3 1194/4/3 1193/4/3
f 1199/4/3 1194/4/3 1198/4/3
f 1200/1/3 1197/1/3 1196/1/3
f 1201/1/3 1197/1/3 1200/1/3
f 1206/2/3 1203/2/3 1202/2/3
f 1207/2/3 1203/2/3 1206/2/3
f 1208/2/3 1205/2/3 1204/2/3
f 1209/2/3 1205/2/3 1208/2/3
f 1210/4/3 1208/4/3 1207/4/3
f 1211/4/3 1208/4/3 1210/4/3
f 1212/2/3 1205/2/3 1209/2/3
f 1216/4/3 1213/4/3 1212/4/3
f 1216/2/3 1212/2/3 1209/2/3
f 1217/4/3 1213/4/3 1216/4/3
f 1218/2/3 1216/2/3 1209/2/3
f 1219/2/3 1216/2/3 1218/2/3
f 1220/2/3 1218/2/3 1209/2/3
f 1221/2/3 1218/2/3 1220/2/3
f 1222/4/3 1215/4/3 1214/4/3
f 1223/4/3 1215/4/3 1222/4/3
f 1231/2/3 1225/2/3 1224/2/3
f 1232/2/3 1227/2/3 1226/2/3
f 1233/2/3 1229/2/3 1228/2/3
f 1234/2/3 1232/2/3 1226/2/3
f 1235/4/3 1233/4/3 1232/4/3
f 1235/2/3 1232/2/3 1234/2/3
f 1236/2/3 1229/2/3 1233/2/3
f 1236/4/3 1233/4/3 1235/4/3
f 1237/2/3 1231/2/3 1230/2/3
f 1238/2/3 1225/2/3 1231/2/3
f 1238/2/3 1231/2/3 1237/2/3
f 1239/2/3 1225/2/3 1238/2/3
f 1240/2/3 1225/2/3 1239/2/3
f 1241/2/3 1229/2/3 1236/2/3
f 1242/2/3 1229/2/3 1241/2/3
f 1245/7/3 1244/7/3 1243/7/3
f 1247/7/3 1245/7/3 1243/7/3
f 1247/7/3 1246/7/3 1245/7/3
f 1248/7/3 1246/7/3 1247/7/3
f 1249/7/3 1246/7/3 1248/7/3
f 1250/7/3 1249/7/3 1248/7/3
f 1251/7/3 1249/7/3 1250/7/3
f 1254/7/3 1253/7/3 1252/7/3
f 1260/7/3 1254/7/3 1252/7/3
f 1260/7/3 1255/7/3 1254/7/3
f 1261/6/3 1256/6/3 1255/6/3
f 1261/7/3 1255/7/3 1260/7/3
f 1262/6/3 1256/6/3 1261/6/3
f 1263/2/3 1259/2/3 1258/2/3
f 1263/2/3 1258/2/3 1257/2/3
f 1264/2/3 1259/2/3 1263/2/3
f 1265/7/3 1260/7/3 1252/7/3
f 1266/6/3 1261/6/3 1260/6/3
f 1266/7/3 1260/7/3 1265/7/3
f 1267/3/3 1262/3/3 1261/3/3
f 1267/6/3 1261/6/3 1266/6/3
f 1268/3/3 1262/3/3 1267/3/3
f 1271/3/3 1268/3/3 1267/3/3
f 1271/3/3 1267/3/3 1266/3/3
f 1272/3/3 1268/3/3 1271/3/3
f 1273/6/3 1269/6/3 1268/6/3
f 1273/3/3 1268/3/3 1272/3/3
f 1274/6/3 1269/6/3 1273/6/3
f 1276/4/3 1264/4/3 1263/4/3
f 1277/2/3 1259/2/3 1264/2/3
f 1277/4/3 1264/4/3 1276/4/3
f 1278/2/3 1259/2/3 1277/2/3
f 1279/6/3 1271/6/3 1270/6/3
f 1280/6/3 1271/6/3 1279/6/3
f 1281/6/3 1274/6/3 1273/6/3
f 1281/6/3 1273/6/3 1272/6/3
f 1282/6/3 1274/6/3 1281/6/3
f 1283/3/3 1275/3/3 1274/3/3
f 1283/6/3 1274/6/3 1282/6/3
f 1284/3/3 1283/3/3 1282/3/3
f 1285/3/3 1275/3/3 1283/3/3
f 1285/3/3 1283/3/3 1284/3/3
f 1288/2/3 1287/2/3 1286/2/3
f 1289/2/3 1287/2/3 1288/2/3
f 1290/1/4 1291/1/4 1293/1/4
f 1293/1/4 1291/1/4 1294/1/4
f 1292/1/4 1293/1/4 1296/1/4
f 1294/1/4 1295/1/4 1296/1/4
f 1293/1/4 1294/1/4 1296/1/4
f 1296/1/4 1295/1/4 1297/1/4
f 1297/1/4 1295/1/4 1298/1/4
f 1298/1/4 1295/1/4 1299/1/4
f 1292/1/4 1296/1/4 1300/1/4
f 1292/1/4 1300/1/4 1302/1/4
f 1300/1/4 1301/1/4 1302/1/4
f 1302/1/4 1301/1/4 1303/1/4
f 1303/1/4 1301/1/4 1304/1/4
f 1299/1/4 1295/1/4 1305/1/4
f 1303/1/4 1304/1/4 1306/1/4
f 1304/1/4 1305/1/4 1306/1/4
f 1305/1/4 1295/1/4 1307/1/4
f 1306/1/4 1305/1/4 1307/1/4
f 1307/1/4 1295/1/4 1308/1/4
f 1306/1/4 1307/1/4 1309/1/4
f 1309/1/4 1307/1/4 1310/1/4
f 1311/4/4 1312/4/4 1313/4/4
f 1313/4/4 1312/4/4 1314/4/4
f 1315/4/4 1316/4/4 1317/4/4
f 1317/4/4 1316/4/4 1318/4/4
f 1319/4/4 1320/4/4 1321/4/4
f 1321/4/4 1320/4/4 1322/4/4
f 1323/2/4 1324/2/4 1327/2/4
f 1324/4/4 1325/4/4 1328/4/4
f 1327/2/4 1324/2/4 1328/2/4
f 1326/2/4 1327/2/4 1329/2/4
f 1327/4/4 1328/4/4 1330/4/4
f 1329/2/4 1327/2/4 1330/2/4
f 1328/4/4 1325/4/4 1331/4/4
f 1330/4/4 1328/4/4 1331/4/4
f 1331/4/4 1325/4/4 1332/4/4
f 1330/4/4 1331/4/4 1333/4/4
f 1331/2/4 1332/2/4 1333/2/4
f 1333/2/4 1332/2/4 1334/2/4
f 1330/4/4 1333/4/4 1335/4/4
f 1333/4/4 1334/4/4 1335/4/4
f 1335/4/4 1334/4/4 1336/4/4
f 1336/4/4 1334/4/4 1337/4/4
f 1338/4/4 1339/4/4 1342/4/4
f 1342/4/4 1339/4/4 1343/4/4
f 1340/2/4 1341/2/4 1346/2/4
f 1346/2/4 1341/2/4 1347/2/4
f 1344/4/4 1345/4/4 1348/4/4
f 1348/4/4 1345/4/4 1349/4/4
f 1350/2/4 1351/2/4 1353/2/4
f 1351/4/4 1352/4/4 1354/4/4
f 1353/2/4 1351/2/4 1354/2/4
f 1354/4/4 1352/4/4 1355/4/4
f 1356/2/4 1357/2/4 1363/2/4
f 1361/2/4 1362/2/4 1364/2/4
f 1362/4/4 1363/4/4 1364/4/4
f 1363/2/4 1357/2/4 1365/2/4
f 1364/4/4 1363/4/4 1365/4/4
f 1365/2/4 1357/2/4 1366/2/4
f 1357/1/4 1358/1/4 1367/1/4
f 1366/2/4 1357/2/4 1367/2/4
f 1358/1/4 1359/1/4 1367/1/4
f 1359/1/4 1360/1/4 1367/1/4
f 1367/1/4 1360/1/4 1368/1/4
f 1368/1/4 1360/1/4 1369/1/4
f 1369/1/4 1360/1/4 1370/1/4
f 1361/2/4 1364/2/4 1371/2/4
f 1371/2/4 1364/2/4 1372/2/4
f 1373/4/4 1374/4/4 1377/4/4
f 1377/4/4 1374/4/4 1378/4/4
f 1375/4/4 1376/4/4 1379/4/4
f 1379/4/4 1376/4/4 1380/4/4
f 1380/4/4 1381/4/4 1382/4/4
f 1382/4/4 1381/4/4 1383/4/4
f 1384/4/4 1385/4/4 1387/4/4
f 1387/4/4 1385/4/4 1388/4/4
f 1386/2/4 1387/2/4 1392/2/4
f 1387/4/4 1388/4/4 1393/4/4
f 1392/2/4 1387/2/4 1393/2/4
f 1388/4/4 1389/4/4 1393/4/4
f 1393/4/4 1389/4/4 1394/4/4
f 1390/1/4 1391/1/4 1395/1/4
f 1395/1/4 1391/1/4 1396/1/4
f 1399/2/4 1400/2/4 1401/2/4
f 1401/2/4 1400/2/4 1402/2/4
f 1397/4/4 1398/4/4 1407/4/4
f 1407/4/4 1398/4/4 1408/4/4
f 1403/2/4 1404/2/4 1409/2/4
f 1409/2/4 1404/2/4 1410/2/4
f 1405/1/4 1406/1/4 1411/1/4
f 1411/1/4 1406/1/4 1412/1/4
f 1413/1/4 1414/1/4 1415/1/4
f 1415/1/4 1414/1/4 1416/1/4
f 1417/1/4 1418/1/4 1421/1/4
f 1419/2/4 1420/2/4 1423/2/4
f 1423/2/4 1420/2/4 1424/2/4
f 1421/1/4 1422/1/4 1425/1/4
f 1417/1/4 1421/1/4 1425/1/4
f 1425/1/4 1422/1/4 1426/1/4
f 1424/4/4 1425/4/4 1429/4/4
f 1429/4/4 1425/4/4 1430/4/4
f 1427/2/4 1428/2/4 1431/2/4
f 1431/2/4 1428/2/4 1432/2/4
f 1433/2/4 1434/2/4 1435/2/4
f 1435/2/4 1434/2/4 1436/2/4
f 1437/4/4 1438/4/4 1442/4/4
f 1442/4/4 1438/4/4 1443/4/4
f 1439/2/4 1440/2/4 1445/2/4
f 1445/2/4 1440/2/4 1446/2/4
f 1441/2/4 1442/2/4 1447/2/4
f 1447/2/4 1442/2/4 1448/2/4
f 1443/1/4 1444/1/4 1449/1/4
f 1449/1/4 1444/1/4 1450/1/4
f 1443/1/4 1449/1/4 1451/1/4
f 1451/1/4 1449/1/4 1452/1/4
f 1453/1/4 1454/1/4 1457/1/4
f 1457/1/4 1454/1/4 1458/1/4
f 1455/2/4 1456/2/4 1459/2/4
f 1459/2/4 1456/2/4 1460/2/4
f 1460/4/4 1461/4/4 1468/4/4
f 1468/4/4 1461/4/4 1469/4/4
f 1462/2/4 1463/2/4 1470/2/4
f 1470/2/4 1463/2/4 1471/2/4
f 1464/4/4 1465/4/4 1472/4/4
f 1472/4/4 1465/4/4 1473/4/4
f 1466/2/4 1467/2/4 1474/2/4
f 1474/2/4 1467/2/4 1475/2/4
f 1471/4/4 1472/4/4 1477/4/4
f 1477/4/4 1472/4/4 1478/4/4
f 1475/2/4 1476/2/4 1479/2/4
f 1479/2/4 1476/2/4 1480/2/4
f 1481/4/4 1482/4/4 1486/4/4
f 1486/4/4 1482/4/4 1487/4/4
f 1483/2/4 1484/2/4 1490/2/4
f 1490/2/4 1484/2/4 1491/2/4
f 1485/2/4 1486/2/4 1492/2/4
f 1492/2/4 1486/2/4 1493/2/4
f 1487/4/4 1488/4/4 1494/4/4
f 1494/4/4 1488/4/4 1495/4/4
f 1489/2/4 1490/2/4 1496/2/4
f 1496/2/4 1490/2/4 1497/2/4
f 1498/1/4 1499/1/4 1500/1/4
f 1500/1/4 1499/1/4 1501/1/4
f 1502/2/4 1503/2/4 1508/2/4
f 1508/2/4 1503/2/4 1509/2/4
f 1504/2/4 1505/2/4 1510/2/4
f 1510/2/4 1505/2/4 1511/2/4
f 1506/2/4 1507/2/4 1514/2/4
f 1514/2/4 1507/2/4 1515/2/4
f 1509/4/4 1510/4/4 1517/4/4
f 1517/4/4 1510/4/4 1518/4/4
f 1511/2/4 1512/2/4 1519/2/4
f 1513/4/4 1514/4/4 1520/4/4
f 1520/4/4 1514/4/4 1521/4/4
f 1515/2/4 1516/2/4 1522/2/4
f 1522/2/4 1516/2/4 1523/2/4
f 1511/2/4 1519/2/4 1525/2/4
f 1525/2/4 1519/2/4 1526/2/4
f 1519/4/4 1520/4/4 1527/4/4
f 1526/2/4 1519/2/4 1527/2/4
f 1527/4/4 1520/4/4 1528/4/4
f 1523/2/4 1524/2/4 1531/2/4
f 1531/2/4 1524/2/4 1532/2/4
f 1526/2/4 1527/2/4 1534/2/4
f 1534/2/4 1527/2/4 1535/2/4
f 1528/4/4 1529/4/4 1536/4/4
f 1536/4/4 1529/4/4 1537/4/4
f 1530/2/4 1531/2/4 1538/2/4
f 1538/2/4 1531/2/4 1539/2/4
f 1533/2/4 1534/2/4 1542/2/4
f 1542/2/4 1534/2/4 1543/2/4
f 1537/2/4 1538/2/4 1544/2/4
f 1544/2/4 1538/2/4 1545/2/4
f 1540/2/4 1541/2/4 1546/2/4
f 1546/2/4 1541/2/4 1547/2/4
f 1542/4/4 1543/4/4 1551/4/4
f 1551/4/4 1543/4/4 1552/4/4
f 1548/4/4 1549/4/4 1553/4/4
f 1553/4/4 1549/4/4 1554/4/4
f 1550/4/4 1551/4/4 1555/4/4
f 1555/4/4 1551/4/4 1556/4/4
f 1557/2/4 1558/2/4 1563/2/4
f 1559/2/4 1560/2/4 1565/2/4
f 1565/2/4 1560/2/4 1566/2/4
f 1561/2/4 1562/2/4 1568/2/4
f 1568/2/4 1562/2/4 1569/2/4
f 1569/2/4 1562/2/4 1570/2/4
f 1563/2/4 1564/2/4 1572/2/4
f 1568/2/4 1569/2/4 1574/2/4
f 1567/2/4 1568/2/4 1574/2/4
f 1574/2/4 1569/2/4 1575/2/4
f 1570/2/4 1571/2/4 1576/2/4
f 1576/2/4 1571/2/4 1577/2/4
f 1557/2/4 1563/2/4 1578/2/4
f 1563/2/4 1572/2/4 1578/2/4
f 1572/4/4 1573/4/4 1579/4/4
f 1578/2/4 1572/2/4 1579/2/4
f 1579/4/4 1573/4/4 1580/4/4
f 1557/2/4 1578/2/4 1582/2/4
f 1582/2/4 1578/2/4 1583/2/4
f 1579/4/4 1580/4/4 1584/4/4
f 1580/2/4 1581/2/4 1585/2/4
f 1584/4/4 1580/4/4 1585/4/4
f 1585/2/4 1581/2/4 1586/2/4
f 1575/2/4 1569/2/4 1589/2/4
f 1586/2/4 1587/2/4 1592/2/4
f 1585/2/4 1586/2/4 1592/2/4
f 1592/2/4 1587/2/4 1593/2/4
f 1593/2/4 1587/2/4 1594/2/4
f 1588/2/4 1589/2/4 1595/2/4
f 1589/2/4 1569/2/4 1596/2/4
f 1595/2/4 1589/2/4 1596/2/4
f 1596/2/4 1569/2/4 1597/2/4
f 1590/2/4 1591/2/4 1598/2/4
f 1598/2/4 1591/2/4 1599/2/4
f 1593/2/4 1594/2/4 1601/2/4
f 1601/2/4 1594/2/4 1602/2/4
f 1596/2/4 1597/2/4 1603/2/4
f 1597/2/4 1598/2/4 1603/2/4
f 1603/2/4 1598/2/4 1604/2/4
f 1604/2/4 1598/2/4 1605/2/4
f 1600/2/4 1601/2/4 1608/2/4
f 1608/2/4 1601/2/4 1609/2/4
f 1606/2/4 1607/2/4 1611/2/4
f 1607/2/4 1608/2/4 1611/2/4
f 1609/4/4 1610/4/4 1612/4/4
f 1611/2/4 1608/2/4 1612/2/4
f 1608/4/4 1609/4/4 1612/4/4
f 1612/4/4 1610/4/4 1613/4/4
f 1613/4/4 1610/4/4 1614/4/4
f 1612/4/4 1613/4/4 1615/4/4
f 1615/4/4 1613/4/4 1616/4/4
f 1617/7/4 1618/7/4 1619/7/4
f 1617/7/4 1619/7/4 1621/7/4
f 1619/7/4 1620/7/4 1621/7/4
f 1621/7/4 1620/7/4 1622/7/4
f 1622/7/4 1620/7/4 1623/7/4
f 1623/7/4 1624/7/4 1625/7/4
f 1622/7/4 1623/7/4 1625/7/4
f 1625/7/4 1624/7/4 1626/7/4
f 1626/7/4 1624/7/4 1627/7/4
f 1626/7/4 1627/7/4 1631/7/4
f 1627/7/4 1628/7/4 1631/7/4
f 1631/7/4 1628/7/4 1632/7/4
f 1632/7/4 1628/7/4 1633/7/4
f 1629/2/4 1630/2/4 1637/2/4
f 1637/2/4 1630/2/4 1638/2/4
f 1632/7/4 1633/7/4 1642/7/4
f 1633/7/4 1634/7/4 1642/7/4
f 1642/7/4 1634/7/4 1643/7/4
f 1643/7/4 1634/7/4 1644/7/4
f 1635/6/4 1636/6/4 1646/6/4
f 1640/2/4 1641/2/4 1649/2/4
f 1649/2/4 1641/2/4 1650/2/4
f 1644/7/4 1645/7/4 1652/7/4
f 1643/7/4 1644/7/4 1652/7/4
f 1652/7/4 1645/7/4 1653/7/4
f 1653/7/4 1645/7/4 1654/7/4
f 1645/6/4 1646/6/4 1655/6/4
f 1654/7/4 1645/7/4 1655/7/4
f 1646/6/4 1636/6/4 1656/6/4
f 1655/6/4 1646/6/4 1656/6/4
f 1656/6/4 1636/6/4 1657/6/4
f 1638/2/4 1639/2/4 1659/2/4
f 1659/2/4 1639/2/4 1660/2/4
f 1650/2/4 1651/2/4 1661/2/4
f 1649/2/4 1650/2/4 1661/2/4
f 1661/2/4 1651/2/4 1662/2/4
f 1662/2/4 1651/2/4 1663/2/4
f 1653/7/4 1654/7/4 1665/7/4
f 1654/6/4 1655/6/4 1666/6/4
f 1665/7/4 1654/7/4 1666/7/4
f 1655/3/4 1656/3/4 1667/3/4
f 1666/6/4 1655/6/4 1667/6/4
f 1667/3/4 1656/3/4 1668/3/4
f 1658/2/4 1659/2/4 1670/2/4
f 1670/2/4 1659/2/4 1671/2/4
f 1647/4/4 1648/4/4 1672/4/4
f 1663/2/4 1664/2/4 1673/2/4
f 1662/2/4 1663/2/4 1673/2/4
f 1673/2/4 1664/2/4 1674/2/4
f 1674/2/4 1664/2/4 1675/2/4
f 1665/6/4 1666/6/4 1676/6/4
f 1667/3/4 1668/3/4 1677/3/4
f 1666/3/4 1667/3/4 1677/3/4
f 1676/6/4 1666/6/4 1677/6/4
f 1677/3/4 1668/3/4 1678/3/4
f 1668/6/4 1669/6/4 1679/6/4
f 1678/3/4 1668/3/4 1679/3/4
f 1679/6/4 1669/6/4 1680/6/4
f 1647/4/4 1672/4/4 1682/4/4
f 1672/4/4 1673/4/4 1682/4/4
f 1673/2/4 1674/2/4 1683/2/4
f 1682/4/4 1673/4/4 1683/4/4
f 1683/2/4 1674/2/4 1684/2/4
f 1675/6/4 1676/6/4 1685/6/4
f 1676/6/4 1677/6/4 1685/6/4
f 1685/6/4 1677/6/4 1686/6/4
f 1679/6/4 1680/6/4 1687/6/4
f 1678/6/4 1679/6/4 1687/6/4
f 1687/6/4 1680/6/4 1688/6/4
f 1680/3/4 1681/3/4 1689/3/4
f 1688/6/4 1680/6/4 1689/6/4
f 1688/3/4 1689/3/4 1690/3/4
f 1689/3/4 1681/3/4 1691/3/4
f 1690/3/4 1689/3/4 1691/3/4
f 1692/2/4 1693/2/4 1696/2/4
f 1696/2/4 1693/2/4 1697/2/4
f 1694/4/4 1695/4/4 1698/4/4
f 1694/4/4 1698/4/4 1700/4/4
f 1698/4/4 1699/4/4 1700/4/4
f 1700/4/4 1699/4/4 1701/4/4
f 1704/4/5 1703/4/5 1702/4/5
f 1705/4/5 1703/4/5 1704/4/5
f 1706/4/5 1703/4/5 1705/4/5
f 1707/4/5 1703/4/5 1706/4/5
f 1710/4/5 1709/4/5 1708/4/5
f 1711/4/5 1709/4/5 1710/4/5
f 1714/1/5 1713/1/5 1712/1/5
f 1715/1/5 1713/1/5 1714/1/5
f 1716/1/5 1713/1/5 1715/1/5
f 1717/4/5 1716/4/5 1715/4/5
f 1718/4/5 1716/4/5 1717/4/5
f 1724/2/5 1720/2/5 1719/2/5
f 1726/2/5 1723/2/5 1722/2/5
f 1726/2/5 1722/2/5 1721/2/5
f 1727/2/5 1725/2/5 1724/2/5
f 1727/2/5 1724/2/5 1719/2/5
f 1728/2/5 1725/2/5 1727/2/5
f 1730/2/5 1726/2/5 1721/2/5
f 1730/2/5 1729/2/5 1728/2/5
f 1730/2/5 1728/2/5 1727/2/5
f 1730/2/5 1727/2/5 1726/2/5
f 1731/2/5 1729/2/5 1730/2/5
f 1732/2/5 1729/2/5 1731/2/5
f 1733/2/5 1729/2/5 1732/2/5
f 1734/2/5 1732/2/5 1731/2/5
f 1735/2/5 1732/2/5 1734/2/5
f 1736/2/5 1729/2/5 1733/2/5
f 1737/2/5 1729/2/5 1736/2/5
f 1739/2/5 1732/2/5 1735/2/5
f 1740/2/5 1732/2/5 1739/2/5
f 1741/7/5 1739/7/5 1738/7/5
f 1742/7/5 1739/7/5 1741/7/5
f 1745/4/5 1744/4/5 1743/4/5
f 1746/4/5 1744/4/5 1745/4/5
f 1749/4/5 1748/4/5 1747/4/5
f 1750/4/5 1748/4/5 1749/4/5
f 1751/4/5 1748/4/5 1750/4/5
f 1753/1/5 1750/1/5 1749/1/5
f 1754/1/5 1750/1/5 1753/1/5
f 1755/1/5 1752/1/5 1751/1/5
f 1756/1/5 1752/1/5 1755/1/5
f 1759/2/5 1758/2/5 1757/2/5
f 1760/2/5 1758/2/5 1759/2/5
f 1767/2/5 1762/2/5 1761/2/5
f 1768/2/5 1762/2/5 1767/2/5
f 1769/7/5 1764/7/5 1763/7/5
f 1770/7/5 1764/7/5 1769/7/5
f 1771/2/5 1766/2/5 1765/2/5
f 1772/2/5 1766/2/5 1771/2/5
f 1775/1/5 1774/1/5 1773/1/5
f 1776/1/5 1774/1/5 1775/1/5
f 1777/1/5 1775/1/5 1773/1/5
f 1778/4/5 1776/4/5 1775/4/5
f 1778/1/5 1775/1/5 1777/1/5
f 1779/4/5 1776/4/5 1778/4/5
f 1780/4/5 1778/4/5 1777/4/5
f 1785/4/5 1780/4/5 1777/4/5
f 1786/4/5 1780/4/5 1785/4/5
f 1789/2/5 1788/2/5 1787/2/5
f 1790/2/5 1788/2/5 1789/2/5
f 1791/1/5 1782/1/5 1781/1/5
f 1792/1/5 1782/1/5 1791/1/5
f 1793/1/5 1784/1/5 1783/1/5
f 1794/1/5 1784/1/5 1793/1/5
f 1797/4/5 1796/4/5 1795/4/5
f 1798/4/5 1796/4/5 1797/4/5
f 1800/4/5 1799/4/5 1798/4/5
f 1801/4/5 1799/4/5 1800/4/5
f 1802/4/5 1794/4/5 1793/4/5
f 1803/4/5 1794/4/5 1802/4/5
f 1806/7/5 1805/7/5 1804/7/5
f 1807/7/5 1805/7/5 1806/7/5
f 1810/1/5 1809/1/5 1808/1/5
f 1811/1/5 1809/1/5 1810/1/5
f 1813/4/5 1811/4/5 1810/4/5
f 1814/4/5 1811/4/5 1813/4/5
f 1815/4/5 1813/4/5 1812/4/5
f 1815/4/5 1814/4/5 1813/4/5
f 1819/4/5 1815/4/5 1812/4/5
f 1820/4/5 1815/4/5 1819/4/5
f 1821/2/5 1818/2/5 1817/2/5
f 1821/4/5 1815/4/5 1820/4/5
f 1821/2/5 1816/2/5 1815/2/5
f 1821/2/5 1817/2/5 1816/2/5
f 1822/2/5 1818/2/5 1821/2/5
f 1826/2/5 1821/2/5 1820/2/5
f 1826/2/5 1823/2/5 1822/2/5
f 1826/2/5 1822/2/5 1821/2/5
f 1827/2/5 1823/2/5 1826/2/5
f 1828/1/5 1825/1/5 1824/1/5
f 1829/1/5 1825/1/5 1828/1/5
f 1832/2/5 1826/2/5 1820/2/5
f 1833/2/5 1826/2/5 1832/2/5
f 1834/4/5 1831/4/5 1830/4/5
f 1835/4/5 1831/4/5 1834/4/5
f 1838/2/5 1837/2/5 1836/2/5
f 1839/2/5 1837/2/5 1838/2/5
f 1845/2/5 1840/2/5 1839/2/5
f 1846/2/5 1840/2/5 1845/2/5
f 1849/2/5 1842/2/5 1841/2/5
f 1850/2/5 1842/2/5 1849/2/5
f 1851/4/5 1844/4/5 1843/4/5
f 1852/4/5 1844/4/5 1851/4/5
f 1853/7/5 1848/7/5 1847/7/5
f 1854/7/5 1848/7/5 1853/7/5
f 1857/4/5 1856/4/5 1855/4/5
f 1858/4/5 1856/4/5 1857/4/5
f 1863/7/5 1860/7/5 1859/7/5
f 1864/7/5 1860/7/5 1863/7/5
f 1865/6/5 1862/6/5 1861/6/5
f 1866/6/5 1862/6/5 1865/6/5
f 1869/4/5 1868/4/5 1867/4/5
f 1870/4/5 1868/4/5 1869/4/5
f 1874/1/5 1872/1/5 1871/1/5
f 1875/1/5 1872/1/5 1874/1/5
f 1877/2/5 1874/2/5 1873/2/5
f 1878/2/5 1874/2/5 1877/2/5
f 1879/2/5 1876/2/5 1875/2/5
f 1880/2/5 1876/2/5 1879/2/5
f 1884/2/5 1882/2/5 1881/2/5
f 1885/2/5 1884/2/5 1883/2/5
f 1886/2/5 1882/2/5 1884/2/5
f 1886/2/5 1884/2/5 1885/2/5
f 1890/7/5 1888/7/5 1887/7/5
f 1891/6/5 1889/6/5 1888/6/5
f 1891/7/5 1888/7/5 1890/7/5
f 1892/6/5 1889/6/5 1891/6/5
f 1898/1/5 1894/1/5 1893/1/5
f 1899/4/5 1895/4/5 1894/4/5
f 1899/1/5 1894/1/5 1898/1/5
f 1900/1/5 1896/1/5 1895/1/5
f 1900/4/5 1895/4/5 1899/4/5
f 1901/1/5 1896/1/5 1900/1/5
f 1903/1/5 1898/1/5 1897/1/5
f 1904/1/5 1898/1/5 1903/1/5
f 1905/1/5 1902/1/5 1901/1/5
f 1906/1/5 1902/1/5 1905/1/5
f 1911/2/5 1908/2/5 1907/2/5
f 1912/2/5 1908/2/5 1911/2/5
f 1915/2/5 1910/2/5 1909/2/5
f 1916/2/5 1910/2/5 1915/2/5
f 1917/2/5 1914/2/5 1913/2/5
f 1918/2/5 1914/2/5 1917/2/5
f 1923/1/5 1920/1/5 1919/1/5
f 1924/1/5 1920/1/5 1923/1/5
f 1925/1/5 1922/1/5 1921/1/5
f 1926/1/5 1922/1/5 1925/1/5
f 1931/4/5 1928/4/5 1927/4/5
f 1934/4/5 1930/4/5 1929/4/5
f 1935/4/5 1930/4/5 1934/4/5
f 1936/4/5 1932/4/5 1931/4/5
f 1936/4/5 1931/4/5 1927/4/5
f 1937/4/5 1932/4/5 1936/4/5
f 1938/4/5 1934/4/5 1933/4/5
f 1939/4/5 1934/4/5 1938/4/5
f 1942/6/5 1941/6/5 1940/6/5
f 1943/6/5 1941/6/5 1942/6/5
f 1946/1/5 1945/1/5 1944/1/5
f 1947/1/5 1945/1/5 1946/1/5
f 1954/1/5 1950/1/5 1949/1/5
f 1954/1/5 1949/1/5 1948/1/5
f 1955/1/5 1950/1/5 1954/1/5
f 1958/1/5 1953/1/5 1952/1/5
f 1958/1/5 1952/1/5 1951/1/5
f 1959/1/5 1953/1/5 1958/1/5
f 1960/4/5 1956/4/5 1955/4/5
f 1961/4/5 1956/4/5 1960/4/5
f 1964/4/5 1958/4/5 1957/4/5
f 1965/4/5 1958/4/5 1964/4/5
f 1966/4/5 1962/4/5 1961/4/5
f 1967/4/5 1962/4/5 1966/4/5
f 1968/4/5 1964/4/5 1963/4/5
f 1969/4/5 1964/4/5 1968/4/5
f 1970/2/5 1968/2/5 1967/2/5
f 1971/2/5 1968/2/5 1970/2/5
f 1972/2/5 1968/2/5 1971/2/5
f 1973/2/5 1968/2/5 1972/2/5
f 1974/2/5 1968/2/5 1973/2/5
f 1977/6/5 1972/6/5 1971/6/5
f 1978/6/5 1972/6/5 1977/6/5
f 1979/3/5 1976/3/5 1975/3/5
f 1980/3/5 1976/3/5 1979/3/5
f 1985/1/5 1982/1/5 1981/1/5
f 1986/1/5 1982/1/5 1985/1/5
f 1991/1/5 1984/1/5 1983/1/5
f 1992/1/5 1984/1/5 1991/1/5
f 1993/2/5 1988/2/5 1987/2/5
f 1994/2/5 1988/2/5 1993/2/5
f 1997/2/5 1990/2/5 1989/2/5
f 1998/2/5 1990/2/5 1997/2/5
f 1999/2/5 1995/2/5 1994/2/5
f 2000/2/5 1995/2/5 1999/2/5
f 2001/2/5 1997/2/5 1996/2/5
f 2002/2/5 1997/2/5 2001/2/5
f 2005/2/5 2004/2/5 2003/2/5
f 2006/2/5 2004/2/5 2005/2/5
f 2012/4/5 2008/4/5 2007/4/5
f 2013/4/5 2008/4/5 2012/4/5
f 2014/4/5 2010/4/5 2009/4/5
f 2015/4/5 2010/4/5 2014/4/5
f 2018/4/5 2012/4/5 2011/4/5
f 2019/4/5 2012/4/5 2018/4/5
f 2020/4/5 2016/4/5 2015/4/5
f 2021/4/5 2016/4/5 2020/4/5
f 2023/4/5 2018/4/5 2017/4/5
f 2024/4/5 2018/4/5 2023/4/5
f 2025/4/5 2022/4/5 2021/4/5
f 2026/4/5 2022/4/5 2025/4/5
f 2027/4/5 2025/4/5 2024/4/5
f 2028/4/5 2025/4/5 2027/4/5
f 2031/2/5 2030/2/5 2029/2/5
f 2032/2/5 2030/2/5 2031/2/5
f 2033/2/5 2030/2/5 2032/2/5
f 2034/2/5 2030/2/5 2033/2/5
f 2037/4/5 2036/4/5 2035/4/5
f 2038/4/5 2036/4/5 2037/4/5
f 2041/2/5 2040/2/5 2039/2/5
f 2042/2/5 2040/2/5 2041/2/5
f 2043/4/6 2044/4/6 2045/4/6
f 2043/4/6 2045/4/6 2047/4/6
f 2045/4/6 2046/4/6 2047/4/6
f 2047/4/6 2046/4/6 2048/4/6
f 2049/4/6 2050/4/6 2052/4/6
f 2052/4/6 2050/4/6 2053/4/6
f 2051/4/6 2052/4/6 2054/4/6
f 2054/4/6 2052/4/6 2055/4/6
f 2056/2/6 2057/2/6 2060/2/6
f 2060/2/6 2057/2/6 2061/2/6
f 2058/2/6 2059/2/6 2063/2/6
f 2061/2/6 2062/2/6 2063/2/6
f 2060/2/6 2061/2/6 2063/2/6
f 2059/2/6 2060/2/6 2063/2/6
f 2058/2/6 2063/2/6 2065/2/6
f 2063/2/6 2064/2/6 2065/2/6
f 2065/2/6 2064/2/6 2066/2/6
f 2066/2/6 2064/2/6 2067/2/6
f 2067/2/6 2064/2/6 2068/2/6
f 2068/2/6 2064/2/6 2069/2/6
f 2069/2/6 2064/2/6 2070/2/6
f 2068/2/6 2069/2/6 2071/2/6
f 2069/4/6 2070/4/6 2072/4/6
f 2071/2/6 2069/2/6 2072/2/6
f 2072/4/6 2070/4/6 2073/4/6
f 2073/4/6 2070/4/6 2074/4/6
f 2074/4/6 2070/4/6 2075/4/6
f 2076/4/6 2077/4/6 2078/4/6
f 2078/4/6 2077/4/6 2079/4/6
f 2080/2/6 2081/2/6 2083/2/6
f 2083/2/6 2081/2/6 2084/2/6
f 2082/2/6 2083/2/6 2088/2/6
f 2088/2/6 2083/2/6 2089/2/6
f 2085/2/6 2086/2/6 2090/2/6
f 2090/2/6 2086/2/6 2091/2/6
f 2088/2/6 2089/2/6 2093/2/6
f 2087/2/6 2088/2/6 2093/2/6
f 2093/2/6 2089/2/6 2094/2/6
f 2091/2/6 2092/2/6 2095/2/6
f 2095/2/6 2092/2/6 2096/2/6
f 2096/2/6 2097/2/6 2098/2/6
f 2098/2/6 2097/2/6 2099/2/6
f 2087/2/6 2093/2/6 2100/2/6
f 2100/2/6 2093/2/6 2101/2/6
f 2102/2/6 2103/2/6 2104/2/6
f 2104/2/6 2103/2/6 2105/2/6
f 2105/2/6 2106/2/6 2107/2/6
f 2107/2/6 2106/2/6 2108/2/6
f 2108/2/6 2109/2/6 2112/2/6
f 2112/2/6 2109/2/6 2113/2/6
f 2110/7/6 2111/7/6 2116/7/6
f 2116/7/6 2111/7/6 2117/7/6
f 2114/2/6 2115/2/6 2118/2/6
f 2118/2/6 2115/2/6 2119/2/6
f 2120/4/6 2121/4/6 2122/4/6
f 2122/4/6 2121/4/6 2123/4/6
f 2124/4/6 2125/4/6 2128/4/6
f 2128/4/6 2125/4/6 2129/4/6
f 2126/4/6 2127/4/6 2130/4/6
f 2130/4/6 2127/4/6 2131/4/6
f 2132/4/6 2133/4/6 2134/4/6
f 2134/4/6 2133/4/6 2135/4/6
f 2135/4/6 2136/4/6 2137/4/6
f 2137/4/6 2136/4/6 2138/4/6
f 2139/7/6 2140/7/6 2145/7/6
f 2145/7/6 2140/7/6 2146/7/6
f 2141/2/6 2142/2/6 2147/2/6
f 2147/2/6 2142/2/6 2148/2/6
f 2143/2/6 2144/2/6 2149/2/6
f 2149/2/6 2144/2/6 2150/2/6
f 2151/1/6 2152/1/6 2153/1/6
f 2153/1/6 2152/1/6 2154/1/6
f 2155/4/6 2156/4/6 2158/4/6
f 2158/4/6 2156/4/6 2159/4/6
f 2153/4/6 2154/4/6 2162/4/6
f 2162/4/6 2154/4/6 2163/4/6
f 2157/2/6 2158/2/6 2164/2/6
f 2164/2/6 2158/2/6 2165/2/6
f 2160/2/6 2161/2/6 2166/2/6
f 2166/2/6 2161/2/6 2167/2/6
f 2170/4/6 2171/4/6 2172/4/6
f 2172/4/6 2171/4/6 2173/4/6
f 2168/1/6 2169/1/6 2174/1/6
f 2174/1/6 2169/1/6 2175/1/6
f 2174/4/6 2175/4/6 2176/4/6
f 2176/4/6 2175/4/6 2177/4/6
f 2178/4/6 2179/4/6 2184/4/6
f 2184/4/6 2179/4/6 2185/4/6
f 2180/7/6 2181/7/6 2186/7/6
f 2186/7/6 2181/7/6 2187/7/6
f 2182/2/6 2183/2/6 2188/2/6
f 2188/2/6 2183/2/6 2189/2/6
f 2190/1/6 2191/1/6 2192/1/6
f 2192/1/6 2191/1/6 2193/1/6
f 2190/1/6 2192/1/6 2194/1/6
f 2192/4/6 2193/4/6 2195/4/6
f 2194/1/6 2192/1/6 2195/1/6
f 2194/4/6 2195/4/6 2196/4/6
f 2195/4/6 2193/4/6 2196/4/6
f 2194/4/6 2196/4/6 2198/4/6
f 2198/4/6 2196/4/6 2199/4/6
f 2199/4/6 2196/4/6 2200/4/6
f 2197/4/6 2198/4/6 2203/4/6
f 2203/4/6 2198/4/6 2204/4/6
f 2204/4/6 2205/4/6 2206/4/6
f 2206/4/6 2205/4/6 2207/4/6
f 2201/1/6 2202/1/6 2208/1/6
f 2208/1/6 2202/1/6 2209/1/6
f 2208/4/6 2209/4/6 2210/4/6
f 2210/4/6 2209/4/6 2211/4/6
f 2213/2/6 2214/2/6 2215/2/6
f 2215/2/6 2214/2/6 2216/2/6
f 2211/4/6 2212/4/6 2220/4/6
f 2220/4/6 2212/4/6 2221/4/6
f 2216/2/6 2217/2/6 2222/2/6
f 2222/2/6 2217/2/6 2223/2/6
f 2223/2/6 2217/2/6 2224/2/6
f 2224/2/6 2217/2/6 2225/2/6
f 2218/2/6 2219/2/6 2226/2/6
f 2219/4/6 2220/4/6 2227/4/6
f 2226/2/6 2219/2/6 2227/2/6
f 2227/4/6 2220/4/6 2228/4/6
f 2223/7/6 2224/7/6 2229/7/6
f 2229/7/6 2224/7/6 2230/7/6
f 2231/4/6 2232/4/6 2235/4/6
f 2235/4/6 2232/4/6 2236/4/6
f 2233/4/6 2234/4/6 2237/4/6
f 2237/4/6 2234/4/6 2238/4/6
f 2235/1/6 2236/1/6 2239/1/6
f 2239/1/6 2236/1/6 2240/1/6
f 2237/1/6 2238/1/6 2241/1/6
f 2241/1/6 2238/1/6 2242/1/6
f 2244/2/6 2245/2/6 2248/2/6
f 2243/4/6 2244/4/6 2248/4/6
f 2248/2/6 2245/2/6 2249/2/6
f 2246/2/6 2247/2/6 2250/2/6
f 2250/2/6 2247/2/6 2251/2/6
f 2243/4/6 2248/4/6 2252/4/6
f 2252/4/6 2248/4/6 2253/4/6
f 2254/4/6 2255/4/6 2257/4/6
f 2256/2/6 2257/2/6 2259/2/6
f 2257/4/6 2255/4/6 2260/4/6
f 2259/2/6 2257/2/6 2260/2/6
f 2260/4/6 2255/4/6 2261/4/6
f 2258/2/6 2259/2/6 2264/2/6
f 2264/2/6 2259/2/6 2265/2/6
f 2262/7/6 2263/7/6 2267/7/6
f 2267/7/6 2263/7/6 2268/7/6
f 2265/6/6 2266/6/6 2269/6/6
f 2269/6/6 2266/6/6 2270/6/6
f 2271/4/6 2272/4/6 2273/4/6
f 2273/4/6 2272/4/6 2274/4/6
f 2273/1/6 2274/1/6 2275/1/6
f 2275/1/6 2274/1/6 2276/1/6
f 2277/2/6 2278/2/6 2281/2/6
f 2281/2/6 2278/2/6 2282/2/6
f 2279/2/6 2280/2/6 2285/2/6
f 2285/2/6 2280/2/6 2286/2/6
f 2282/2/6 2283/2/6 2287/2/6
f 2287/2/6 2283/2/6 2288/2/6
f 2284/2/6 2285/2/6 2291/2/6
f 2291/2/6 2285/2/6 2292/2/6
f 2288/2/6 2289/2/6 2293/2/6
f 2293/2/6 2289/2/6 2294/2/6
f 2290/2/6 2291/2/6 2295/2/6
f 2295/2/6 2291/2/6 2296/2/6
f 2297/1/6 2298/1/6 2302/1/6
f 2302/1/6 2298/1/6 2303/1/6
f 2299/1/6 2300/1/6 2304/1/6
f 2304/1/6 2300/1/6 2305/1/6
f 2301/1/6 2302/1/6 2308/1/6
f 2308/1/6 2302/1/6 2309/1/6
f 2305/1/6 2306/1/6 2310/1/6
f 2310/1/6 2306/1/6 2311/1/6
f 2307/1/6 2308/1/6 2313/1/6
f 2313/1/6 2308/1/6 2314/1/6
f 2311/1/6 2312/1/6 2315/1/6
f 2315/1/6 2312/1/6 2316/1/6
f 2317/4/6 2318/4/6 2321/4/6
f 2321/4/6 2318/4/6 2322/4/6
f 2319/4/6 2320/4/6 2325/4/6
f 2325/4/6 2320/4/6 2326/4/6
f 2322/4/6 2323/4/6 2327/4/6
f 2324/4/6 2325/4/6 2328/4/6
f 2322/4/6 2327/4/6 2329/4/6
f 2327/4/6 2328/4/6 2329/4/6
f 2328/4/6 2325/4/6 2330/4/6
f 2329/4/6 2328/4/6 2330/4/6
f 2331/3/6 2332/3/6 2333/3/6
f 2333/3/6 2332/3/6 2334/3/6
f 2335/1/6 2336/1/6 2337/1/6
f 2337/1/6 2336/1/6 2338/1/6
f 2339/4/6 2340/4/6 2343/4/6
f 2341/4/6 2342/4/6 2344/4/6
f 2343/4/6 2340/4/6 2345/4/6
f 2345/4/6 2340/4/6 2346/4/6
f 2341/4/6 2344/4/6 2347/4/6
f 2347/4/6 2344/4/6 2348/4/6
f 2349/6/6 2350/6/6 2353/6/6
f 2353/6/6 2350/6/6 2354/6/6
f 2351/6/6 2352/6/6 2355/6/6
f 2355/6/6 2352/6/6 2356/6/6
f 2357/1/6 2358/1/6 2361/1/6
f 2359/1/6 2360/1/6 2362/1/6
f 2362/1/6 2360/1/6 2363/1/6
f 2361/1/6 2358/1/6 2364/1/6
f 2364/1/6 2358/1/6 2365/1/6
f 2362/1/6 2363/1/6 2366/1/6
f 2366/1/6 2363/1/6 2367/1/6
f 2368/3/6 2369/3/6 2370/3/6
f 2370/3/6 2369/3/6 2371/3/6
f 2372/4/6 2373/4/6 2377/4/6
f 2377/4/6 2373/4/6 2378/4/6
f 2374/4/6 2375/4/6 2379/4/6
f 2379/4/6 2375/4/6 2380/4/6
f 2376/4/6 2377/4/6 2383/4/6
f 2383/4/6 2377/4/6 2384/4/6
f 2380/4/6 2381/4/6 2385/4/6
f 2385/4/6 2381/4/6 2386/4/6
f 2382/4/6 2383/4/6 2388/4/6
f 2388/4/6 2383/4/6 2389/4/6
f 2386/4/6 2387/4/6 2390/4/6
f 2390/4/6 2387/4/6 2391/4/6
f 2392/1/6 2393/1/6 2396/1/6
f 2396/1/6 2393/1/6 2397/1/6
f 2394/1/6 2395/1/6 2398/1/6
f 2398/1/6 2395/1/6 2399/1/6
f 2400/2/6 2401/2/6 2404/2/6
f 2404/2/6 2401/2/6 2405/2/6
f 2402/2/6 2403/2/6 2408/2/6
f 2408/2/6 2403/2/6 2409/2/6
f 2405/2/6 2406/2/6 2410/2/6
f 2410/2/6 2406/2/6 2411/2/6
f 2407/2/6 2408/2/6 2414/2/6
f 2414/2/6 2408/2/6 2415/2/6
f 2411/2/6 2412/2/6 2416/2/6
f 2416/2/6 2412/2/6 2417/2/6
f 2413/2/6 2414/2/6 2418/2/6
f 2418/2/6 2414/2/6 2419/2/6
f 2417/2/6 2418/2/6 2420/2/6
f 2420/2/6 2418/2/6 2421/2/6
f 2422/4/6 2423/4/6 2424/4/6
f 2424/4/6 2423/4/6 2425/4/6
f 2426/4/6 2427/4/6 2431/4/6
f 2431/4/6 2427/4/6 2432/4/6
f 2428/4/6 2429/4/6 2433/4/6
f 2433/4/6 2429/4/6 2434/4/6
f 2434/4/6 2435/4/6 2436/4/6
f 2430/4/6 2431/4/6 2437/4/6
f 2437/4/6 2431/4/6 2438/4/6
f 2436/4/6 2435/4/6 2439/4/6
f 2439/4/6 2435/4/6 2440/4/6
f 2441/2/6 2442/2/6 2445/2/6
f 2445/2/6 2442/2/6 2446/2/6
f 2443/2/6 2444/2/6 2447/2/6
f 2447/2/6 2444/2/6 2448/2/6
f 2449/1/6 2450/1/6 2457/1/6
f 2457/1/6 2450/1/6 2458/1/6
f 2451/2/6 2452/2/6 2459/2/6
f 2459/2/6 2452/2/6 2460/2/6
f 2453/2/6 2454/2/6 2463/2/6
f 2463/2/6 2454/2/6 2464/2/6
f 2455/1/6 2456/1/6 2465/1/6
f 2465/1/6 2456/1/6 2466/1/6
f 2460/2/6 2461/2/6 2467/2/6
f 2467/2/6 2461/2/6 2468/2/6
f 2462/2/6 2463/2/6 2469/2/6
f 2469/2/6 2463/2/6 2470/2/6
f 2468/2/6 2469/2/6 2471/2/6
f 2471/2/6 2469/2/6 2472/2/6
f 2472/2/6 2469/2/6 2473/2/6
f 2473/2/6 2469/2/6 2474/2/6
f 2472/2/6 2473/2/6 2475/2/6
f 2475/2/6 2473/2/6 2476/2/6
f 2477/4/6 2478/4/6 2480/4/6
f 2480/4/6 2478/4/6 2481/4/6
f 2479/4/6 2480/4/6 2483/4/6
f 2481/4/6 2482/4/6 2483/4/6
f 2480/4/6 2481/4/6 2483/4/6
f 2483/4/6 2482/4/6 2484/4/6
f 2485/2/6 2486/2/6 2489/2/6
f 2489/2/6 2486/2/6 2490/2/6
f 2487/2/6 2488/2/6 2491/2/6
f 2491/2/6 2488/2/6 2492/2/6
f 2493/2/6 2494/2/6 2499/2/6
f 2494/2/6 2495/2/6 2499/2/6
f 2499/2/6 2495/2/6 2500/2/6
f 2500/2/6 2495/2/6 2501/2/6
f 2496/2/6 2497/2/6 2502/2/6
f 2497/2/6 2498/2/6 2502/2/6
f 2502/2/6 2498/2/6 2503/2/6
f 2503/2/6 2498/2/6 2504/2/6
f 2500/2/6 2501/2/6 2505/2/6
f 2502/2/6 2503/2/6 2505/2/6
f 2501/2/6 2502/2/6 2505/2/6
f 2505/2/6 2503/2/6 2506/2/6
f 2506/2/6 2503/2/6 2507/2/6
f 2507/2/6 2503/2/6 2508/2/6
f 2506/2/6 2507/2/6 2509/2/6
f 2509/2/6 2507/2/6 2510/2/6
f 2511/2/6 2512/2/6 2514/2/6
f 2514/2/6 2512/2/6 2515/2/6
f 2513/2/6 2514/2/6 2517/2/6
f 2515/2/6 2516/2/6 2517/2/6
f 2514/2/6 2515/2/6 2517/2/6
f 2517/2/6 2516/2/6 2518/2/6
f 2518/2/6 2516/2/6 2519/2/6
f 2519/2/6 2516/2/6 2520/2/6
f 2518/2/6 2519/2/6 2521/2/6
f 2521/2/6 2519/2/6 2522/2/6
