# MagicaVoxel @ Ephtracy

# group
g Muffins_0

# material
mtllib Muffins_0.mtl
usemtl palette

# normals
vn -1 0 0
vn 1 0 0
vn 0 0 1
vn 0 0 -1
vn 0 -1 0
vn 0 1 0

# texcoords
vt 0.0292969 0.5
vt 0.0527344 0.5
vt 0.0566406 0.5
vt 0.0683594 0.5
vt 0.958984 0.5
vt 0.994141 0.5

# verts
v -7 0 0.5
v -7 0 -0.5
v -7 1 0.5
v -7 1 -0.5
v -7 2 0.5
v -7 2 -0.5
v -6 0 1.5
v -6 0 0.5
v -6 0 -0.5
v -6 0 -1.5
v -6 1 1.5
v -6 1 0.5
v -6 1 -0.5
v -6 1 -1.5
v -6 2 1.5
v -6 2 0.5
v -6 2 -0.5
v -6 2 -1.5
v -5 1 2.5
v -5 1 1.5
v -5 1 -1.5
v -5 1 -2.5
v -5 2 3.5
v -5 2 2.5
v -5 2 1.5
v -5 2 -1.5
v -5 2 -2.5
v -5 2 -3.5
v -5 7 3.5
v -5 7 2.5
v -5 7 -2.5
v -5 7 -3.5
v -5 8 2.5
v -5 8 1.5
v -5 8 -1.5
v -5 8 -2.5
v -5 9 1.5
v -5 9 0.5
v -5 9 -0.5
v -5 9 -1.5
v -5 10 0.5
v -5 10 -0.5
v -4 1 3.5
v -4 1 2.5
v -4 1 -2.5
v -4 1 -3.5
v -4 2 4.5
v -4 2 3.5
v -4 2 2.5
v -4 2 -2.5
v -4 2 -3.5
v -4 2 -4.5
v -4 7 4.5
v -4 7 3.5
v -4 7 2.5
v -4 7 -2.5
v -4 7 -3.5
v -4 7 -4.5
v -4 8 3.5
v -4 8 2.5
v -4 8 1.5
v -4 8 -1.5
v -4 8 -2.5
v -4 8 -3.5
v -4 9 2.5
v -4 9 1.5
v -4 9 0.5
v -4 9 -0.5
v -4 9 -1.5
v -4 9 -2.5
v -4 10 1.5
v -4 10 0.5
v -4 10 -0.5
v -4 10 -1.5
v -4 12 0.5
v -4 12 -0.5
v -3 0 2.5
v -3 0 1.5
v -3 0 -1.5
v -3 0 -2.5
v -3 1 2.5
v -3 1 1.5
v -3 1 -1.5
v -3 1 -2.5
v -3 2 5.5
v -3 2 4.5
v -3 2 -4.5
v -3 2 -5.5
v -3 5 5.5
v -3 5 4.5
v -3 5 -4.5
v -3 5 -5.5
v -3 7 4.5
v -3 7 3.5
v -3 7 -3.5
v -3 7 -4.5
v -3 8 3.5
v -3 8 2.5
v -3 8 -2.5
v -3 8 -3.5
v -3 9 2.5
v -3 9 1.5
v -3 9 -1.5
v -3 9 -2.5
v -3 10 4.5
v -3 10 2.5
v -3 10 1.5
v -3 10 0.5
v -3 10 -0.5
v -3 10 -1.5
v -3 10 -2.5
v -3 10 -4.5
v -3 11 2.5
v -3 11 1.5
v -3 11 -1.5
v -3 11 -2.5
v -3 12 1.5
v -3 12 0.5
v -3 12 -0.5
v -3 12 -1.5
v -3 13 0.5
v -3 13 -0.5
v -2 0 3.5
v -2 0 2.5
v -2 0 -2.5
v -2 0 -3.5
v -2 1 5.5
v -2 1 3.5
v -2 1 2.5
v -2 1 -2.5
v -2 1 -3.5
v -2 1 -5.5
v -2 2 5.5
v -2 2 3.5
v -2 2 -3.5
v -2 2 -5.5
v -2 5 5.5
v -2 5 4.5
v -2 5 -4.5
v -2 5 -5.5
v -2 6 5.5
v -2 6 4.5
v -2 6 -4.5
v -2 6 -5.5
v -2 10 4.5
v -2 10 2.5
v -2 10 -2.5
v -2 10 -4.5
v -2 11 4.5
v -2 11 3.5
v -2 11 2.5
v -2 11 1.5
v -2 11 -1.5
v -2 11 -2.5
v -2 11 -3.5
v -2 11 -4.5
v -2 12 3.5
v -2 12 2.5
v -2 12 1.5
v -2 12 0.5
v -2 12 -0.5
v -2 12 -1.5
v -2 12 -2.5
v -2 12 -3.5
v -2 13 2.5
v -2 13 1.5
v -2 13 0.5
v -2 13 -0.5
v -2 13 -1.5
v -2 13 -2.5
v -2 14 1.5
v -2 14 -1.5
v -1 0 4.5
v -1 0 3.5
v -1 0 -3.5
v -1 0 -4.5
v -1 1 4.5
v -1 1 3.5
v -1 1 -3.5
v -1 1 -4.5
v -1 6 5.5
v -1 6 4.5
v -1 6 -4.5
v -1 6 -5.5
v -1 7 5.5
v -1 7 4.5
v -1 7 -4.5
v -1 7 -5.5
v -1 11 4.5
v -1 11 3.5
v -1 11 -3.5
v -1 11 -4.5
v -1 12 4.5
v -1 12 3.5
v -1 12 2.5
v -1 12 -2.5
v -1 12 -3.5
v -1 12 -4.5
v -1 13 2.5
v -1 13 1.5
v -1 13 -1.5
v -1 13 -2.5
v -1 14 3.5
v -1 14 2.5
v -1 14 1.5
v -1 14 -1.5
v -1 14 -2.5
v -1 14 -3.5
v -1 15 3.5
v -1 15 2.5
v -1 15 1.5
v -1 15 -1.5
v -1 15 -2.5
v -1 15 -3.5
v -1 17 3.5
v -1 17 1.5
v -1 17 -1.5
v -1 17 -3.5
v 0 10 5.5
v 0 10 4.5
v 0 10 -4.5
v 0 10 -5.5
v 0 12 4.5
v 0 12 3.5
v 0 12 -3.5
v 0 12 -4.5
v 0 13 5.5
v 0 13 3.5
v 0 13 -3.5
v 0 13 -5.5
v 0 14 3.5
v 0 14 2.5
v 0 14 -2.5
v 0 14 -3.5
v 0 15 4.5
v 0 15 3.5
v 0 15 2.5
v 0 15 1.5
v 0 15 -1.5
v 0 15 -2.5
v 0 15 -3.5
v 0 15 -4.5
v 0 16 1.5
v 0 16 -1.5
v 0 17 4.5
v 0 17 3.5
v 0 17 1.5
v 0 17 -1.5
v 0 17 -3.5
v 0 17 -4.5
v 0 18 3.5
v 0 18 1.5
v 0 18 -1.5
v 0 18 -3.5
v 1 8 5.5
v 1 8 4.5
v 1 8 -4.5
v 1 8 -5.5
v 1 9 5.5
v 1 9 4.5
v 1 9 -4.5
v 1 9 -5.5
v 1 6 5.5
v 1 6 4.5
v 1 6 -4.5
v 1 6 -5.5
v 1 7 5.5
v 1 7 4.5
v 1 7 -4.5
v 1 7 -5.5
v 2 0 4.5
v 2 0 3.5
v 2 0 -3.5
v 2 0 -4.5
v 2 1 5.5
v 2 1 4.5
v 2 1 3.5
v 2 1 -3.5
v 2 1 -4.5
v 2 1 -5.5
v 2 3 5.5
v 2 3 4.5
v 2 3 -4.5
v 2 3 -5.5
v 2 5 5.5
v 2 5 4.5
v 2 5 -4.5
v 2 5 -5.5
v 2 6 5.5
v 2 6 4.5
v 2 6 -4.5
v 2 6 -5.5
v 2 14 3.5
v 2 14 2.5
v 2 14 -2.5
v 2 14 -3.5
v 2 15 4.5
v 2 15 3.5
v 2 15 2.5
v 2 15 -2.5
v 2 15 -3.5
v 2 15 -4.5
v 2 16 2.5
v 2 16 1.5
v 2 16 -1.5
v 2 16 -2.5
v 2 17 4.5
v 2 17 3.5
v 2 17 1.5
v 2 17 -1.5
v 2 17 -3.5
v 2 17 -4.5
v 2 18 3.5
v 2 18 1.5
v 2 18 -1.5
v 2 18 -3.5
v 3 0 2.5
v 3 0 -2.5
v 3 1 4.5
v 3 1 3.5
v 3 1 2.5
v 3 1 -2.5
v 3 1 -3.5
v 3 1 -4.5
v 3 2 3.5
v 3 2 2.5
v 3 2 -2.5
v 3 2 -3.5
v 3 3 5.5
v 3 3 4.5
v 3 3 -4.5
v 3 3 -5.5
v 3 5 5.5
v 3 5 4.5
v 3 5 -4.5
v 3 5 -5.5
v 3 8 4.5
v 3 8 -4.5
v 3 9 4.5
v 3 9 -4.5
v 3 10 5.5
v 3 10 4.5
v 3 10 3.5
v 3 10 -3.5
v 3 10 -4.5
v 3 10 -5.5
v 3 13 5.5
v 3 13 4.5
v 3 13 -4.5
v 3 13 -5.5
v 3 15 2.5
v 3 15 1.5
v 3 15 -1.5
v 3 15 -2.5
v 3 16 2.5
v 3 16 1.5
v 3 16 -1.5
v 3 16 -2.5
v 4 1 2.5
v 4 1 -2.5
v 4 2 3.5
v 4 2 2.5
v 4 2 1.5
v 4 2 -1.5
v 4 2 -2.5
v 4 2 -3.5
v 4 3 2.5
v 4 3 1.5
v 4 3 -1.5
v 4 3 -2.5
v 4 7 2.5
v 4 7 1.5
v 4 7 -1.5
v 4 7 -2.5
v 4 8 1.5
v 4 8 -1.5
v 4 10 4.5
v 4 10 3.5
v 4 10 -3.5
v 4 10 -4.5
v 4 11 4.5
v 4 11 3.5
v 4 11 -3.5
v 4 11 -4.5
v 4 12 4.5
v 4 12 3.5
v 4 12 -3.5
v 4 12 -4.5
v 4 13 4.5
v 4 13 3.5
v 4 13 2.5
v 4 13 -2.5
v 4 13 -3.5
v 4 13 -4.5
v 4 14 3.5
v 4 14 2.5
v 4 14 1.5
v 4 14 -1.5
v 4 14 -2.5
v 4 14 -3.5
v 4 15 2.5
v 4 15 1.5
v 4 15 -1.5
v 4 15 -2.5
v 4 16 1.5
v 4 16 -1.5
v 5 0 3.5
v 5 0 2.5
v 5 0 -2.5
v 5 0 -3.5
v 5 1 3.5
v 5 1 2.5
v 5 1 -2.5
v 5 1 -3.5
v 5 2 1.5
v 5 2 -1.5
v 5 3 2.5
v 5 3 1.5
v 5 3 -1.5
v 5 3 -2.5
v 5 7 2.5
v 5 7 1.5
v 5 7 -1.5
v 5 7 -2.5
v 5 8 5.5
v 5 8 4.5
v 5 8 1.5
v 5 8 -1.5
v 5 8 -4.5
v 5 8 -5.5
v 5 9 5.5
v 5 9 4.5
v 5 9 -4.5
v 5 9 -5.5
v 5 10 3.5
v 5 10 2.5
v 5 10 -2.5
v 5 10 -3.5
v 5 11 4.5
v 5 11 3.5
v 5 11 2.5
v 5 11 -2.5
v 5 11 -3.5
v 5 11 -4.5
v 5 12 4.5
v 5 12 3.5
v 5 12 2.5
v 5 12 -2.5
v 5 12 -3.5
v 5 12 -4.5
v 5 13 3.5
v 5 13 2.5
v 5 13 1.5
v 5 13 -1.5
v 5 13 -2.5
v 5 13 -3.5
v 5 14 2.5
v 5 14 1.5
v 5 14 -1.5
v 5 14 -2.5
v 5 15 1.5
v 5 15 -1.5
v 6 10 2.5
v 6 10 -2.5
v 6 11 3.5
v 6 11 2.5
v 6 11 1.5
v 6 11 -1.5
v 6 11 -2.5
v 6 11 -3.5
v 6 12 3.5
v 6 12 2.5
v 6 12 -2.5
v 6 12 -3.5
v 6 13 2.5
v 6 13 1.5
v 6 13 0.5
v 6 13 -0.5
v 6 13 -1.5
v 6 13 -2.5
v 6 14 1.5
v 6 14 -1.5
v 7 11 1.5
v 7 11 -1.5
v 7 12 0.5
v 7 12 -0.5
v 7 13 1.5
v 7 13 0.5
v 7 13 -0.5
v 7 13 -1.5
v -3 2 5.5
v -3 5 5.5
v -2 1 5.5
v -2 2 5.5
v -2 5 5.5
v -2 6 5.5
v -1 6 5.5
v -1 7 5.5
v 0 10 5.5
v 0 13 5.5
v 1 6 5.5
v 1 7 5.5
v 1 8 5.5
v 1 9 5.5
v 2 1 5.5
v 2 3 5.5
v 2 5 5.5
v 2 6 5.5
v 3 3 5.5
v 3 5 5.5
v 3 8 5.5
v 3 9 5.5
v 3 10 5.5
v 3 13 5.5
v 5 8 5.5
v 5 9 5.5
v -4 2 4.5
v -4 7 4.5
v -3 2 4.5
v -3 5 4.5
v -3 7 4.5
v -3 10 4.5
v -2 5 4.5
v -2 6 4.5
v -2 10 4.5
v -2 11 4.5
v -1 0 4.5
v -1 1 4.5
v -1 6 4.5
v -1 7 4.5
v -1 11 4.5
v -1 12 4.5
v 0 10 4.5
v 0 12 4.5
v 0 15 4.5
v 0 17 4.5
v 1 6 4.5
v 1 7 4.5
v 1 8 4.5
v 1 9 4.5
v 2 0 4.5
v 2 1 4.5
v 2 3 4.5
v 2 5 4.5
v 2 6 4.5
v 2 8 4.5
v 2 9 4.5
v 2 10 4.5
v 2 15 4.5
v 2 17 4.5
v 3 1 4.5
v 3 3 4.5
v 3 5 4.5
v 3 8 4.5
v 3 9 4.5
v 3 10 4.5
v 3 13 4.5
v 4 10 4.5
v 4 11 4.5
v 4 12 4.5
v 4 13 4.5
v 5 11 4.5
v 5 12 4.5
v -5 2 3.5
v -5 7 3.5
v -4 1 3.5
v -4 2 3.5
v -4 7 3.5
v -4 8 3.5
v -3 7 3.5
v -3 8 3.5
v -2 0 3.5
v -2 1 3.5
v -2 2 3.5
v -2 11 3.5
v -2 12 3.5
v -1 0 3.5
v -1 1 3.5
v -1 11 3.5
v -1 12 3.5
v -1 14 3.5
v -1 15 3.5
v -1 17 3.5
v 0 12 3.5
v 0 13 3.5
v 0 14 3.5
v 0 15 3.5
v 0 17 3.5
v 0 18 3.5
v 2 0 3.5
v 2 1 3.5
v 2 14 3.5
v 2 15 3.5
v 2 17 3.5
v 2 18 3.5
v 3 0 3.5
v 3 1 3.5
v 3 2 3.5
v 3 10 3.5
v 3 13 3.5
v 4 2 3.5
v 4 10 3.5
v 4 11 3.5
v 4 12 3.5
v 4 13 3.5
v 4 14 3.5
v 5 0 3.5
v 5 1 3.5
v 5 10 3.5
v 5 11 3.5
v 5 12 3.5
v 5 13 3.5
v 6 11 3.5
v 6 12 3.5
v -5 1 2.5
v -5 2 2.5
v -5 7 2.5
v -5 8 2.5
v -4 1 2.5
v -4 2 2.5
v -4 7 2.5
v -4 8 2.5
v -4 9 2.5
v -3 0 2.5
v -3 1 2.5
v -3 8 2.5
v -3 9 2.5
v -3 10 2.5
v -3 11 2.5
v -2 0 2.5
v -2 1 2.5
v -2 10 2.5
v -2 11 2.5
v -2 12 2.5
v -2 13 2.5
v -1 12 2.5
v -1 13 2.5
v -1 14 2.5
v -1 15 2.5
v 0 14 2.5
v 0 15 2.5
v 2 14 2.5
v 2 15 2.5
v 2 16 2.5
v 3 1 2.5
v 3 2 2.5
v 3 15 2.5
v 3 16 2.5
v 4 1 2.5
v 4 2 2.5
v 4 3 2.5
v 4 7 2.5
v 4 13 2.5
v 4 14 2.5
v 4 15 2.5
v 5 3 2.5
v 5 7 2.5
v 5 10 2.5
v 5 11 2.5
v 5 12 2.5
v 5 13 2.5
v 5 14 2.5
v 6 10 2.5
v 6 11 2.5
v 6 12 2.5
v 6 13 2.5
v -6 0 1.5
v -6 1 1.5
v -6 2 1.5
v -5 1 1.5
v -5 2 1.5
v -5 8 1.5
v -5 9 1.5
v -4 8 1.5
v -4 9 1.5
v -4 10 1.5
v -3 0 1.5
v -3 1 1.5
v -3 9 1.5
v -3 10 1.5
v -3 11 1.5
v -3 12 1.5
v -2 11 1.5
v -2 12 1.5
v -2 13 1.5
v -2 14 1.5
v -1 13 1.5
v -1 14 1.5
v 3 15 1.5
v 3 16 1.5
v 4 2 1.5
v 4 3 1.5
v 4 7 1.5
v 4 8 1.5
v 4 14 1.5
v 4 15 1.5
v 4 16 1.5
v 5 2 1.5
v 5 3 1.5
v 5 7 1.5
v 5 8 1.5
v 5 13 1.5
v 5 14 1.5
v 5 15 1.5
v 6 11 1.5
v 6 13 1.5
v 6 14 1.5
v 7 11 1.5
v 7 13 1.5
v -7 0 0.5
v -7 1 0.5
v -7 2 0.5
v -6 0 0.5
v -6 1 0.5
v -6 2 0.5
v -5 9 0.5
v -5 10 0.5
v -4 9 0.5
v -4 10 0.5
v -4 12 0.5
v -3 10 0.5
v -3 12 0.5
v -3 13 0.5
v -2 12 0.5
v -2 13 0.5
v -1 15 -1.5
v -1 17 -1.5
v 0 15 -1.5
v 0 16 -1.5
v 0 17 -1.5
v 0 18 -1.5
v 1 16 -1.5
v 1 17 -1.5
v 2 16 -1.5
v 2 17 -1.5
v 2 18 -1.5
v 3 0 -2.5
v 3 1 -2.5
v 4 1 -2.5
v 5 0 -2.5
v 5 1 -2.5
v 3 8 -4.5
v 3 9 -4.5
v 5 8 -4.5
v 5 9 -4.5
v 3 8 4.5
v 3 9 4.5
v 5 8 4.5
v 5 9 4.5
v 3 0 2.5
v 3 1 2.5
v 4 1 2.5
v 5 0 2.5
v 5 1 2.5
v -1 15 1.5
v -1 17 1.5
v 0 15 1.5
v 0 16 1.5
v 0 17 1.5
v 0 18 1.5
v 1 16 1.5
v 1 17 1.5
v 2 16 1.5
v 2 17 1.5
v 2 18 1.5
v -7 0 -0.5
v -7 1 -0.5
v -7 2 -0.5
v -6 0 -0.5
v -6 1 -0.5
v -6 2 -0.5
v -5 9 -0.5
v -5 10 -0.5
v -4 9 -0.5
v -4 10 -0.5
v -4 12 -0.5
v -3 10 -0.5
v -3 12 -0.5
v -3 13 -0.5
v -2 12 -0.5
v -2 13 -0.5
v -6 0 -1.5
v -6 1 -1.5
v -6 2 -1.5
v -5 1 -1.5
v -5 2 -1.5
v -5 8 -1.5
v -5 9 -1.5
v -4 8 -1.5
v -4 9 -1.5
v -4 10 -1.5
v -3 0 -1.5
v -3 1 -1.5
v -3 9 -1.5
v -3 10 -1.5
v -3 11 -1.5
v -3 12 -1.5
v -2 11 -1.5
v -2 12 -1.5
v -2 13 -1.5
v -2 14 -1.5
v -1 13 -1.5
v -1 14 -1.5
v 3 15 -1.5
v 3 16 -1.5
v 4 2 -1.5
v 4 3 -1.5
v 4 7 -1.5
v 4 8 -1.5
v 4 14 -1.5
v 4 15 -1.5
v 4 16 -1.5
v 5 2 -1.5
v 5 3 -1.5
v 5 7 -1.5
v 5 8 -1.5
v 5 13 -1.5
v 5 14 -1.5
v 5 15 -1.5
v 6 11 -1.5
v 6 13 -1.5
v 6 14 -1.5
v 7 11 -1.5
v 7 13 -1.5
v -5 1 -2.5
v -5 2 -2.5
v -5 7 -2.5
v -5 8 -2.5
v -4 1 -2.5
v -4 2 -2.5
v -4 7 -2.5
v -4 8 -2.5
v -4 9 -2.5
v -3 0 -2.5
v -3 1 -2.5
v -3 8 -2.5
v -3 9 -2.5
v -3 10 -2.5
v -3 11 -2.5
v -2 0 -2.5
v -2 1 -2.5
v -2 10 -2.5
v -2 11 -2.5
v -2 12 -2.5
v -2 13 -2.5
v -1 12 -2.5
v -1 13 -2.5
v -1 14 -2.5
v -1 15 -2.5
v 0 14 -2.5
v 0 15 -2.5
v 2 14 -2.5
v 2 15 -2.5
v 2 16 -2.5
v 3 1 -2.5
v 3 2 -2.5
v 3 15 -2.5
v 3 16 -2.5
v 4 1 -2.5
v 4 2 -2.5
v 4 3 -2.5
v 4 7 -2.5
v 4 13 -2.5
v 4 14 -2.5
v 4 15 -2.5
v 5 3 -2.5
v 5 7 -2.5
v 5 10 -2.5
v 5 11 -2.5
v 5 12 -2.5
v 5 13 -2.5
v 5 14 -2.5
v 6 10 -2.5
v 6 11 -2.5
v 6 12 -2.5
v 6 13 -2.5
v -5 2 -3.5
v -5 7 -3.5
v -4 1 -3.5
v -4 2 -3.5
v -4 7 -3.5
v -4 8 -3.5
v -3 7 -3.5
v -3 8 -3.5
v -2 0 -3.5
v -2 1 -3.5
v -2 2 -3.5
v -2 11 -3.5
v -2 12 -3.5
v -1 0 -3.5
v -1 1 -3.5
v -1 11 -3.5
v -1 12 -3.5
v -1 14 -3.5
v -1 15 -3.5
v -1 17 -3.5
v 0 12 -3.5
v 0 13 -3.5
v 0 14 -3.5
v 0 15 -3.5
v 0 17 -3.5
v 0 18 -3.5
v 2 0 -3.5
v 2 1 -3.5
v 2 14 -3.5
v 2 15 -3.5
v 2 17 -3.5
v 2 18 -3.5
v 3 0 -3.5
v 3 1 -3.5
v 3 2 -3.5
v 3 10 -3.5
v 3 13 -3.5
v 4 2 -3.5
v 4 10 -3.5
v 4 11 -3.5
v 4 12 -3.5
v 4 13 -3.5
v 4 14 -3.5
v 5 0 -3.5
v 5 1 -3.5
v 5 10 -3.5
v 5 11 -3.5
v 5 12 -3.5
v 5 13 -3.5
v 6 11 -3.5
v 6 12 -3.5
v -4 2 -4.5
v -4 7 -4.5
v -3 2 -4.5
v -3 5 -4.5
v -3 7 -4.5
v -3 10 -4.5
v -2 5 -4.5
v -2 6 -4.5
v -2 10 -4.5
v -2 11 -4.5
v -1 0 -4.5
v -1 1 -4.5
v -1 6 -4.5
v -1 7 -4.5
v -1 11 -4.5
v -1 12 -4.5
v 0 10 -4.5
v 0 12 -4.5
v 0 15 -4.5
v 0 17 -4.5
v 1 6 -4.5
v 1 7 -4.5
v 1 8 -4.5
v 1 9 -4.5
v 2 0 -4.5
v 2 1 -4.5
v 2 3 -4.5
v 2 5 -4.5
v 2 6 -4.5
v 2 8 -4.5
v 2 9 -4.5
v 2 10 -4.5
v 2 15 -4.5
v 2 17 -4.5
v 3 1 -4.5
v 3 3 -4.5
v 3 5 -4.5
v 3 8 -4.5
v 3 9 -4.5
v 3 10 -4.5
v 3 13 -4.5
v 4 10 -4.5
v 4 11 -4.5
v 4 12 -4.5
v 4 13 -4.5
v 5 11 -4.5
v 5 12 -4.5
v -3 2 -5.5
v -3 5 -5.5
v -2 1 -5.5
v -2 2 -5.5
v -2 5 -5.5
v -2 6 -5.5
v -1 6 -5.5
v -1 7 -5.5
v 0 10 -5.5
v 0 13 -5.5
v 1 6 -5.5
v 1 7 -5.5
v 1 8 -5.5
v 1 9 -5.5
v 2 1 -5.5
v 2 3 -5.5
v 2 5 -5.5
v 2 6 -5.5
v 3 3 -5.5
v 3 5 -5.5
v 3 8 -5.5
v 3 9 -5.5
v 3 10 -5.5
v 3 13 -5.5
v 5 8 -5.5
v 5 9 -5.5
v -1 0 4.5
v 2 0 4.5
v -2 0 3.5
v -1 0 3.5
v 2 0 3.5
v 3 0 3.5
v 5 0 3.5
v -3 0 2.5
v -2 0 2.5
v 3 0 2.5
v 5 0 2.5
v -6 0 1.5
v -3 0 1.5
v -7 0 0.5
v -6 0 0.5
v -4 0 0.5
v -3 0 0.5
v -7 0 -0.5
v -6 0 -0.5
v -4 0 -0.5
v -3 0 -0.5
v -6 0 -1.5
v -3 0 -1.5
v -3 0 -2.5
v -2 0 -2.5
v 3 0 -2.5
v 5 0 -2.5
v -2 0 -3.5
v -1 0 -3.5
v 2 0 -3.5
v 3 0 -3.5
v 5 0 -3.5
v -1 0 -4.5
v 2 0 -4.5
v -2 1 5.5
v 2 1 5.5
v -1 1 4.5
v 2 1 4.5
v 3 1 4.5
v -4 1 3.5
v -2 1 3.5
v -1 1 3.5
v 2 1 3.5
v 3 1 3.5
v -5 1 2.5
v -4 1 2.5
v -3 1 2.5
v -2 1 2.5
v 3 1 2.5
v 4 1 2.5
v -5 1 1.5
v -3 1 1.5
v -5 1 -1.5
v -3 1 -1.5
v -5 1 -2.5
v -4 1 -2.5
v -3 1 -2.5
v -2 1 -2.5
v 3 1 -2.5
v 4 1 -2.5
v -4 1 -3.5
v -2 1 -3.5
v -1 1 -3.5
v 2 1 -3.5
v 3 1 -3.5
v -1 1 -4.5
v 2 1 -4.5
v 3 1 -4.5
v -2 1 -5.5
v 2 1 -5.5
v -3 2 5.5
v -2 2 5.5
v -4 2 4.5
v -3 2 4.5
v -5 2 3.5
v -4 2 3.5
v -2 2 3.5
v 3 2 3.5
v 4 2 3.5
v -5 2 2.5
v -4 2 2.5
v 3 2 2.5
v 4 2 2.5
v 4 2 1.5
v 5 2 1.5
v 4 2 -1.5
v 5 2 -1.5
v -5 2 -2.5
v -4 2 -2.5
v 3 2 -2.5
v 4 2 -2.5
v -5 2 -3.5
v -4 2 -3.5
v -2 2 -3.5
v 3 2 -3.5
v 4 2 -3.5
v -4 2 -4.5
v -3 2 -4.5
v -3 2 -5.5
v -2 2 -5.5
v 2 3 5.5
v 3 3 5.5
v 2 3 4.5
v 3 3 4.5
v 4 3 2.5
v 5 3 2.5
v 4 3 1.5
v 5 3 1.5
v 4 3 -1.5
v 5 3 -1.5
v 4 3 -2.5
v 5 3 -2.5
v 2 3 -4.5
v 3 3 -4.5
v 2 3 -5.5
v 3 3 -5.5
v 1 8 5.5
v 3 8 5.5
v 5 8 5.5
v 1 8 4.5
v 2 8 4.5
v 3 8 4.5
v 5 8 4.5
v 1 8 -4.5
v 2 8 -4.5
v 3 8 -4.5
v 5 8 -4.5
v 1 8 -5.5
v 3 8 -5.5
v 5 8 -5.5
v 0 10 5.5
v 3 10 5.5
v 0 10 4.5
v 2 10 4.5
v 3 10 4.5
v 4 10 4.5
v 3 10 3.5
v 4 10 3.5
v 5 10 3.5
v 5 10 2.5
v 6 10 2.5
v 5 10 -2.5
v 6 10 -2.5
v 3 10 -3.5
v 4 10 -3.5
v 5 10 -3.5
v 0 10 -4.5
v 2 10 -4.5
v 3 10 -4.5
v 4 10 -4.5
v 0 10 -5.5
v 3 10 -5.5
v 4 11 4.5
v 5 11 4.5
v 4 11 3.5
v 5 11 3.5
v 6 11 3.5
v 5 11 2.5
v 6 11 2.5
v 6 11 1.5
v 7 11 1.5
v 6 11 -1.5
v 7 11 -1.5
v 5 11 -2.5
v 6 11 -2.5
v 4 11 -3.5
v 5 11 -3.5
v 6 11 -3.5
v 4 11 -4.5
v 5 11 -4.5
v 0 15 4.5
v 2 15 4.5
v -1 15 3.5
v 0 15 3.5
v 2 15 3.5
v -1 15 2.5
v 0 15 2.5
v -1 15 -2.5
v 0 15 -2.5
v -1 15 -3.5
v 0 15 -3.5
v 2 15 -3.5
v 0 15 -4.5
v 2 15 -4.5
v 3 1 3.5
v 5 1 3.5
v 3 1 2.5
v 4 1 2.5
v 5 1 2.5
v 3 1 -2.5
v 4 1 -2.5
v 5 1 -2.5
v 3 1 -3.5
v 5 1 -3.5
v -6 2 1.5
v -5 2 1.5
v -7 2 0.5
v -6 2 0.5
v -7 2 -0.5
v -6 2 -0.5
v -6 2 -1.5
v -5 2 -1.5
v -3 5 5.5
v -2 5 5.5
v 2 5 5.5
v 3 5 5.5
v -3 5 4.5
v -2 5 4.5
v 2 5 4.5
v 3 5 4.5
v -3 5 -4.5
v -2 5 -4.5
v 2 5 -4.5
v 3 5 -4.5
v -3 5 -5.5
v -2 5 -5.5
v 2 5 -5.5
v 3 5 -5.5
v -2 6 5.5
v -1 6 5.5
v 1 6 5.5
v 2 6 5.5
v -2 6 4.5
v -1 6 4.5
v 1 6 4.5
v 2 6 4.5
v -2 6 -4.5
v -1 6 -4.5
v 1 6 -4.5
v 2 6 -4.5
v -2 6 -5.5
v -1 6 -5.5
v 1 6 -5.5
v 2 6 -5.5
v -1 7 5.5
v 1 7 5.5
v -4 7 4.5
v -3 7 4.5
v -1 7 4.5
v 1 7 4.5
v -5 7 3.5
v -4 7 3.5
v -3 7 3.5
v -5 7 2.5
v -4 7 2.5
v 4 7 2.5
v 5 7 2.5
v 4 7 1.5
v 5 7 1.5
v 4 7 -1.5
v 5 7 -1.5
v -5 7 -2.5
v -4 7 -2.5
v 4 7 -2.5
v 5 7 -2.5
v -5 7 -3.5
v -4 7 -3.5
v -3 7 -3.5
v -4 7 -4.5
v -3 7 -4.5
v -1 7 -4.5
v 1 7 -4.5
v -1 7 -5.5
v 1 7 -5.5
v -4 8 3.5
v -3 8 3.5
v -5 8 2.5
v -4 8 2.5
v -3 8 2.5
v -5 8 1.5
v -4 8 1.5
v 4 8 1.5
v 5 8 1.5
v -5 8 -1.5
v -4 8 -1.5
v 4 8 -1.5
v 5 8 -1.5
v -5 8 -2.5
v -4 8 -2.5
v -3 8 -2.5
v -4 8 -3.5
v -3 8 -3.5
v 1 9 5.5
v 3 9 5.5
v 5 9 5.5
v 1 9 4.5
v 2 9 4.5
v 3 9 4.5
v 5 9 4.5
v -4 9 2.5
v -3 9 2.5
v -5 9 1.5
v -4 9 1.5
v -3 9 1.5
v -5 9 0.5
v -4 9 0.5
v -5 9 -0.5
v -4 9 -0.5
v -5 9 -1.5
v -4 9 -1.5
v -3 9 -1.5
v -4 9 -2.5
v -3 9 -2.5
v 1 9 -4.5
v 2 9 -4.5
v 3 9 -4.5
v 5 9 -4.5
v 1 9 -5.5
v 3 9 -5.5
v 5 9 -5.5
v -3 10 4.5
v -2 10 4.5
v -3 10 2.5
v -2 10 2.5
v -4 10 1.5
v -3 10 1.5
v -5 10 0.5
v -4 10 0.5
v -3 10 0.5
v -5 10 -0.5
v -4 10 -0.5
v -3 10 -0.5
v -4 10 -1.5
v -3 10 -1.5
v -3 10 -2.5
v -2 10 -2.5
v -3 10 -4.5
v -2 10 -4.5
v -2 11 4.5
v -1 11 4.5
v -2 11 3.5
v -1 11 3.5
v -3 11 2.5
v -2 11 2.5
v -3 11 1.5
v -2 11 1.5
v -3 11 -1.5
v -2 11 -1.5
v -3 11 -2.5
v -2 11 -2.5
v -2 11 -3.5
v -1 11 -3.5
v -2 11 -4.5
v -1 11 -4.5
v -1 12 4.5
v 0 12 4.5
v 4 12 4.5
v 5 12 4.5
v -2 12 3.5
v -1 12 3.5
v 0 12 3.5
v 4 12 3.5
v 5 12 3.5
v 6 12 3.5
v -2 12 2.5
v -1 12 2.5
v 5 12 2.5
v 6 12 2.5
v -3 12 1.5
v -2 12 1.5
v -4 12 0.5
v -3 12 0.5
v -2 12 0.5
v -4 12 -0.5
v -3 12 -0.5
v -2 12 -0.5
v -3 12 -1.5
v -2 12 -1.5
v -2 12 -2.5
v -1 12 -2.5
v 5 12 -2.5
v 6 12 -2.5
v -2 12 -3.5
v -1 12 -3.5
v 0 12 -3.5
v 4 12 -3.5
v 5 12 -3.5
v 6 12 -3.5
v -1 12 -4.5
v 0 12 -4.5
v 4 12 -4.5
v 5 12 -4.5
v 0 13 5.5
v 3 13 5.5
v 3 13 4.5
v 4 13 4.5
v 0 13 3.5
v 3 13 3.5
v 4 13 3.5
v 5 13 3.5
v -2 13 2.5
v -1 13 2.5
v 4 13 2.5
v 5 13 2.5
v 6 13 2.5
v -2 13 1.5
v -1 13 1.5
v 5 13 1.5
v 6 13 1.5
v 7 13 1.5
v -3 13 0.5
v -2 13 0.5
v 6 13 0.5
v 7 13 0.5
v -3 13 -0.5
v -2 13 -0.5
v 6 13 -0.5
v 7 13 -0.5
v -2 13 -1.5
v -1 13 -1.5
v 5 13 -1.5
v 6 13 -1.5
v 7 13 -1.5
v -2 13 -2.5
v -1 13 -2.5
v 4 13 -2.5
v 5 13 -2.5
v 6 13 -2.5
v 0 13 -3.5
v 3 13 -3.5
v 4 13 -3.5
v 5 13 -3.5
v 3 13 -4.5
v 4 13 -4.5
v 0 13 -5.5
v 3 13 -5.5
v -1 14 3.5
v 0 14 3.5
v 2 14 3.5
v 4 14 3.5
v -1 14 2.5
v 0 14 2.5
v 2 14 2.5
v 4 14 2.5
v 5 14 2.5
v -2 14 1.5
v -1 14 1.5
v 4 14 1.5
v 5 14 1.5
v 6 14 1.5
v -2 14 -1.5
v -1 14 -1.5
v 4 14 -1.5
v 5 14 -1.5
v 6 14 -1.5
v -1 14 -2.5
v 0 14 -2.5
v 2 14 -2.5
v 4 14 -2.5
v 5 14 -2.5
v -1 14 -3.5
v 0 14 -3.5
v 2 14 -3.5
v 4 14 -3.5
v 3 15 2.5
v 4 15 2.5
v -1 15 1.5
v 0 15 1.5
v 3 15 1.5
v 4 15 1.5
v 5 15 1.5
v -1 15 -1.5
v 0 15 -1.5
v 3 15 -1.5
v 4 15 -1.5
v 5 15 -1.5
v 3 15 -2.5
v 4 15 -2.5
v 2 16 2.5
v 3 16 2.5
v 0 16 1.5
v 1 16 1.5
v 2 16 1.5
v 3 16 1.5
v 4 16 1.5
v 0 16 -1.5
v 1 16 -1.5
v 2 16 -1.5
v 3 16 -1.5
v 4 16 -1.5
v 2 16 -2.5
v 3 16 -2.5
v 0 17 4.5
v 2 17 4.5
v -1 17 3.5
v 0 17 3.5
v 2 17 3.5
v -1 17 1.5
v 0 17 1.5
v -1 17 -1.5
v 0 17 -1.5
v -1 17 -3.5
v 0 17 -3.5
v 2 17 -3.5
v 0 17 -4.5
v 2 17 -4.5
v 0 18 3.5
v 2 18 3.5
v 0 18 1.5
v 2 18 1.5
v 0 18 -1.5
v 2 18 -1.5
v 0 18 -3.5
v 2 18 -3.5

# faces
f 3/5/1 2/5/1 1/5/1
f 4/5/1 2/5/1 3/5/1
f 5/4/1 4/4/1 3/4/1
f 6/4/1 4/4/1 5/4/1
f 11/5/1 8/5/1 7/5/1
f 12/5/1 8/5/1 11/5/1
f 13/5/1 10/5/1 9/5/1
f 14/5/1 10/5/1 13/5/1
f 15/4/1 12/4/1 11/4/1
f 16/4/1 12/4/1 15/4/1
f 17/4/1 14/4/1 13/4/1
f 18/4/1 14/4/1 17/4/1
f 24/4/1 20/4/1 19/4/1
f 25/4/1 20/4/1 24/4/1
f 26/4/1 22/4/1 21/4/1
f 27/4/1 22/4/1 26/4/1
f 29/4/1 25/4/1 24/4/1
f 29/4/1 28/4/1 27/4/1
f 29/4/1 27/4/1 26/4/1
f 29/4/1 26/4/1 25/4/1
f 29/4/1 24/4/1 23/4/1
f 30/4/1 28/4/1 29/4/1
f 31/4/1 28/4/1 30/4/1
f 32/4/1 28/4/1 31/4/1
f 33/4/1 31/4/1 30/4/1
f 34/4/1 31/4/1 33/4/1
f 35/4/1 31/4/1 34/4/1
f 36/4/1 31/4/1 35/4/1
f 37/4/1 35/4/1 34/4/1
f 38/4/1 35/4/1 37/4/1
f 39/4/1 35/4/1 38/4/1
f 40/4/1 35/4/1 39/4/1
f 41/4/1 39/4/1 38/4/1
f 42/4/1 39/4/1 41/4/1
f 48/4/1 44/4/1 43/4/1
f 49/4/1 44/4/1 48/4/1
f 50/4/1 46/4/1 45/4/1
f 51/4/1 46/4/1 50/4/1
f 53/4/1 48/4/1 47/4/1
f 54/4/1 48/4/1 53/4/1
f 57/4/1 52/4/1 51/4/1
f 58/4/1 52/4/1 57/4/1
f 59/4/1 55/4/1 54/4/1
f 60/4/1 55/4/1 59/4/1
f 63/4/1 57/4/1 56/4/1
f 64/4/1 57/4/1 63/4/1
f 65/4/1 61/4/1 60/4/1
f 66/4/1 61/4/1 65/4/1
f 69/4/1 63/4/1 62/4/1
f 70/4/1 63/4/1 69/4/1
f 71/4/1 67/4/1 66/4/1
f 72/4/1 67/4/1 71/4/1
f 73/4/1 69/4/1 68/4/1
f 74/4/1 69/4/1 73/4/1
f 75/4/1 73/4/1 72/4/1
f 76/4/1 73/4/1 75/4/1
f 81/5/1 78/5/1 77/5/1
f 82/5/1 78/5/1 81/5/1
f 83/5/1 80/5/1 79/5/1
f 84/5/1 80/5/1 83/5/1
f 89/4/1 86/4/1 85/4/1
f 90/4/1 86/4/1 89/4/1
f 91/4/1 88/4/1 87/4/1
f 92/4/1 88/4/1 91/4/1
f 97/4/1 94/4/1 93/4/1
f 100/4/1 96/4/1 95/4/1
f 101/4/1 98/4/1 97/4/1
f 104/4/1 100/4/1 99/4/1
f 105/4/1 102/4/1 101/4/1
f 105/4/1 97/4/1 93/4/1
f 105/4/1 101/4/1 97/4/1
f 106/4/1 102/4/1 105/4/1
f 107/4/1 102/4/1 106/4/1
f 110/4/1 104/4/1 103/4/1
f 111/4/1 100/4/1 104/4/1
f 111/4/1 104/4/1 110/4/1
f 112/4/1 96/4/1 100/4/1
f 112/4/1 100/4/1 111/4/1
f 113/4/1 108/4/1 107/4/1
f 113/4/1 107/4/1 106/4/1
f 114/4/1 108/4/1 113/4/1
f 115/4/1 110/4/1 109/4/1
f 115/4/1 111/4/1 110/4/1
f 116/4/1 111/4/1 115/4/1
f 117/4/1 108/4/1 114/4/1
f 118/4/1 108/4/1 117/4/1
f 119/4/1 115/4/1 109/4/1
f 120/4/1 115/4/1 119/4/1
f 121/4/1 119/4/1 118/4/1
f 122/4/1 119/4/1 121/4/1
f 128/5/1 124/5/1 123/5/1
f 129/5/1 124/5/1 128/5/1
f 130/5/1 126/5/1 125/5/1
f 131/5/1 126/5/1 130/5/1
f 133/5/1 128/5/1 127/5/1
f 134/5/1 128/5/1 133/5/1
f 135/5/1 132/5/1 131/5/1
f 136/5/1 132/5/1 135/5/1
f 141/5/1 138/5/1 137/5/1
f 142/5/1 138/5/1 141/5/1
f 143/5/1 140/5/1 139/5/1
f 144/5/1 140/5/1 143/5/1
f 149/4/1 146/4/1 145/4/1
f 150/4/1 146/4/1 149/4/1
f 151/4/1 146/4/1 150/4/1
f 154/4/1 148/4/1 147/4/1
f 155/4/1 148/4/1 154/4/1
f 156/4/1 148/4/1 155/4/1
f 157/4/1 152/4/1 151/4/1
f 157/4/1 151/4/1 150/4/1
f 158/4/1 152/4/1 157/4/1
f 159/4/1 152/4/1 158/4/1
f 162/4/1 155/4/1 154/4/1
f 162/4/1 154/4/1 153/4/1
f 163/4/1 155/4/1 162/4/1
f 164/4/1 155/4/1 163/4/1
f 165/4/1 160/4/1 159/4/1
f 165/4/1 159/4/1 158/4/1
f 166/4/1 160/4/1 165/4/1
f 167/4/1 160/4/1 166/4/1
f 168/4/1 163/4/1 162/4/1
f 168/4/1 162/4/1 161/4/1
f 169/4/1 163/4/1 168/4/1
f 170/4/1 163/4/1 169/4/1
f 171/4/1 167/4/1 166/4/1
f 171/4/1 169/4/1 168/4/1
f 171/4/1 168/4/1 167/4/1
f 172/4/1 169/4/1 171/4/1
f 177/5/1 174/5/1 173/5/1
f 178/5/1 174/5/1 177/5/1
f 179/5/1 176/5/1 175/5/1
f 180/5/1 176/5/1 179/5/1
f 185/5/1 182/5/1 181/5/1
f 186/5/1 182/5/1 185/5/1
f 187/5/1 184/5/1 183/5/1
f 188/5/1 184/5/1 187/5/1
f 193/4/1 190/4/1 189/4/1
f 194/4/1 190/4/1 193/4/1
f 197/4/1 192/4/1 191/4/1
f 198/4/1 192/4/1 197/4/1
f 199/4/1 195/4/1 194/4/1
f 202/4/1 197/4/1 196/4/1
f 203/4/1 200/4/1 199/4/1
f 203/4/1 199/4/1 194/4/1
f 204/4/1 200/4/1 203/4/1
f 205/4/1 200/4/1 204/4/1
f 206/4/1 202/4/1 201/4/1
f 207/4/1 197/4/1 202/4/1
f 207/4/1 202/4/1 206/4/1
f 208/4/1 197/4/1 207/4/1
f 210/4/1 205/4/1 204/4/1
f 210/4/1 207/4/1 206/4/1
f 210/4/1 206/4/1 205/4/1
f 211/4/1 207/4/1 210/4/1
f 212/4/1 207/4/1 211/4/1
f 213/4/1 207/4/1 212/4/1
f 215/4/1 210/4/1 209/4/1
f 215/4/1 211/4/1 210/4/1
f 216/4/1 211/4/1 215/4/1
f 217/4/1 214/4/1 213/4/1
f 217/4/1 213/4/1 212/4/1
f 218/4/1 214/4/1 217/4/1
f 223/4/1 220/4/1 219/4/1
f 226/4/1 222/4/1 221/4/1
f 227/4/1 224/4/1 223/4/1
f 227/4/1 223/4/1 219/4/1
f 228/4/1 224/4/1 227/4/1
f 229/4/1 226/4/1 225/4/1
f 230/4/1 222/4/1 226/4/1
f 230/4/1 226/4/1 229/4/1
f 236/4/1 232/4/1 231/4/1
f 237/4/1 232/4/1 236/4/1
f 240/4/1 234/4/1 233/4/1
f 241/4/1 234/4/1 240/4/1
f 243/4/1 239/4/1 238/4/1
f 244/4/1 239/4/1 243/4/1
f 245/4/1 236/4/1 235/4/1
f 246/4/1 236/4/1 245/4/1
f 249/4/1 242/4/1 241/4/1
f 250/4/1 242/4/1 249/4/1
f 251/4/1 247/4/1 246/4/1
f 252/4/1 247/4/1 251/4/1
f 253/4/1 249/4/1 248/4/1
f 254/4/1 249/4/1 253/4/1
f 259/5/1 256/5/1 255/5/1
f 260/5/1 256/5/1 259/5/1
f 261/5/1 258/5/1 257/5/1
f 262/5/1 258/5/1 261/5/1
f 263/5/2 264/5/2 267/5/2
f 267/5/2 264/5/2 268/5/2
f 265/5/2 266/5/2 269/5/2
f 269/5/2 266/5/2 270/5/2
f 271/5/2 272/5/2 276/5/2
f 276/5/2 272/5/2 277/5/2
f 273/5/2 274/5/2 278/5/2
f 278/5/2 274/5/2 279/5/2
f 275/5/2 276/5/2 281/5/2
f 281/5/2 276/5/2 282/5/2
f 279/5/2 280/5/2 283/5/2
f 283/5/2 280/5/2 284/5/2
f 285/5/2 286/5/2 289/5/2
f 289/5/2 286/5/2 290/5/2
f 287/5/2 288/5/2 291/5/2
f 291/5/2 288/5/2 292/5/2
f 293/4/2 294/4/2 298/4/2
f 298/4/2 294/4/2 299/4/2
f 295/4/2 296/4/2 300/4/2
f 300/4/2 296/4/2 301/4/2
f 298/2/2 299/2/2 303/2/2
f 300/2/2 301/2/2 306/2/2
f 297/4/2 298/4/2 307/4/2
f 303/2/2 304/2/2 308/2/2
f 307/4/2 298/4/2 308/4/2
f 298/2/2 303/2/2 308/2/2
f 308/2/2 304/2/2 309/2/2
f 305/2/2 306/2/2 310/2/2
f 301/4/2 302/4/2 311/4/2
f 310/2/2 306/2/2 311/2/2
f 306/2/2 301/2/2 311/2/2
f 311/4/2 302/4/2 312/4/2
f 308/4/2 309/4/2 313/4/2
f 313/4/2 309/4/2 314/4/2
f 310/4/2 311/4/2 315/4/2
f 315/4/2 311/4/2 316/4/2
f 317/5/2 318/5/2 321/5/2
f 321/5/2 318/5/2 322/5/2
f 319/5/2 320/5/2 325/5/2
f 320/5/2 321/5/2 325/5/2
f 325/5/2 321/5/2 326/5/2
f 323/5/2 324/5/2 327/5/2
f 322/5/2 323/5/2 327/5/2
f 327/5/2 324/5/2 328/5/2
f 319/5/2 325/5/2 330/5/2
f 328/5/2 324/5/2 331/5/2
f 329/5/2 330/5/2 333/5/2
f 330/5/2 325/5/2 334/5/2
f 333/5/2 330/5/2 334/5/2
f 331/5/2 332/5/2 335/5/2
f 328/5/2 331/5/2 335/5/2
f 335/5/2 332/5/2 336/5/2
f 334/5/2 325/5/2 337/5/2
f 328/5/2 335/5/2 338/5/2
f 337/5/2 325/5/2 339/5/2
f 328/5/2 338/5/2 340/5/2
f 339/5/2 325/5/2 342/5/2
f 342/5/2 325/5/2 343/5/2
f 328/5/2 340/5/2 344/5/2
f 344/5/2 340/5/2 345/5/2
f 341/4/2 342/4/2 347/4/2
f 347/4/2 342/4/2 348/4/2
f 345/4/2 346/4/2 349/4/2
f 349/4/2 346/4/2 350/4/2
f 351/4/2 352/4/2 355/4/2
f 355/4/2 352/4/2 356/4/2
f 353/4/2 354/4/2 357/4/2
f 357/4/2 354/4/2 358/4/2
f 359/5/2 360/5/2 362/5/2
f 362/5/2 360/5/2 363/5/2
f 363/5/2 360/5/2 364/5/2
f 364/5/2 360/5/2 365/5/2
f 361/5/2 362/5/2 367/5/2
f 362/5/2 363/5/2 367/5/2
f 367/5/2 363/5/2 368/5/2
f 365/5/2 366/5/2 369/5/2
f 364/5/2 365/5/2 369/5/2
f 369/5/2 366/5/2 370/5/2
f 361/5/2 367/5/2 371/5/2
f 370/5/2 366/5/2 374/5/2
f 371/5/2 372/5/2 375/5/2
f 373/5/2 374/5/2 376/5/2
f 371/5/2 375/5/2 378/5/2
f 375/5/2 376/5/2 378/5/2
f 361/5/2 371/5/2 378/5/2
f 376/5/2 374/5/2 379/5/2
f 374/5/2 366/5/2 379/5/2
f 378/5/2 376/5/2 379/5/2
f 377/5/2 378/5/2 381/5/2
f 381/5/2 378/5/2 382/5/2
f 379/5/2 380/5/2 383/5/2
f 383/5/2 380/5/2 384/5/2
f 385/5/2 386/5/2 389/5/2
f 389/5/2 386/5/2 390/5/2
f 387/5/2 388/5/2 393/5/2
f 393/5/2 388/5/2 394/5/2
f 390/4/2 391/4/2 395/4/2
f 395/4/2 391/4/2 396/4/2
f 392/4/2 393/4/2 399/4/2
f 399/4/2 393/4/2 400/4/2
f 396/4/2 397/4/2 401/4/2
f 401/4/2 397/4/2 402/4/2
f 398/4/2 399/4/2 403/4/2
f 403/4/2 399/4/2 404/4/2
f 402/4/2 403/4/2 405/4/2
f 405/4/2 403/4/2 406/4/2
f 407/3/2 408/3/2 411/3/2
f 411/3/2 408/3/2 412/3/2
f 409/3/2 410/3/2 413/3/2
f 413/3/2 410/3/2 414/3/2
f 415/5/2 416/5/2 418/5/2
f 418/5/2 416/5/2 419/5/2
f 417/5/2 418/5/2 421/5/2
f 419/5/2 420/5/2 421/5/2
f 418/5/2 419/5/2 421/5/2
f 421/5/2 420/5/2 422/5/2
f 422/5/2 420/5/2 423/5/2
f 423/5/2 420/5/2 424/5/2
f 422/5/2 423/5/2 427/5/2
f 427/5/2 423/5/2 428/5/2
f 425/3/2 426/3/2 431/3/2
f 431/3/2 426/3/2 432/3/2
f 429/3/2 430/3/2 433/3/2
f 433/3/2 430/3/2 434/3/2
f 435/5/2 436/5/2 440/5/2
f 440/5/2 436/5/2 441/5/2
f 437/5/2 438/5/2 442/5/2
f 442/5/2 438/5/2 443/5/2
f 439/5/2 440/5/2 445/5/2
f 445/5/2 440/5/2 446/5/2
f 443/5/2 444/5/2 449/5/2
f 449/5/2 444/5/2 450/5/2
f 446/5/2 447/5/2 451/5/2
f 451/5/2 447/5/2 452/5/2
f 448/5/2 449/5/2 455/5/2
f 455/5/2 449/5/2 456/5/2
f 452/6/2 453/6/2 457/6/2
f 457/6/2 453/6/2 458/6/2
f 454/6/2 455/6/2 459/6/2
f 459/6/2 455/6/2 460/6/2
f 458/4/2 459/4/2 461/4/2
f 461/4/2 459/4/2 462/4/2
f 463/5/2 464/5/2 466/5/2
f 466/5/2 464/5/2 467/5/2
f 467/5/2 464/5/2 468/5/2
f 468/5/2 464/5/2 469/5/2
f 465/5/2 466/5/2 471/5/2
f 466/5/2 467/5/2 471/5/2
f 471/5/2 467/5/2 472/5/2
f 469/5/2 470/5/2 473/5/2
f 468/5/2 469/5/2 473/5/2
f 473/5/2 470/5/2 474/5/2
f 472/5/2 467/5/2 475/5/2
f 475/5/2 467/5/2 476/5/2
f 468/5/2 473/5/2 479/5/2
f 479/5/2 473/5/2 480/5/2
f 477/4/2 478/4/2 481/4/2
f 478/4/2 479/4/2 481/4/2
f 476/4/2 477/4/2 481/4/2
f 481/4/2 479/4/2 482/4/2
f 483/5/2 484/5/2 485/5/2
f 485/5/2 484/5/2 486/5/2
f 483/5/2 485/5/2 487/5/2
f 485/2/2 486/2/2 488/2/2
f 487/5/2 485/5/2 488/5/2
f 486/5/2 484/5/2 489/5/2
f 488/2/2 486/2/2 489/2/2
f 489/5/2 484/5/2 490/5/2
f 494/4/3 492/4/3 491/4/3
f 495/4/3 492/4/3 494/4/3
f 497/5/3 494/5/3 493/5/3
f 497/5/3 496/5/3 495/5/3
f 497/5/3 495/5/3 494/5/3
f 501/5/3 497/5/3 493/5/3
f 501/5/3 498/5/3 497/5/3
f 502/5/3 498/5/3 501/5/3
f 505/5/3 501/5/3 493/5/3
f 506/5/3 501/5/3 505/5/3
f 507/5/3 501/5/3 506/5/3
f 508/5/3 501/5/3 507/5/3
f 509/5/3 507/5/3 506/5/3
f 510/5/3 507/5/3 509/5/3
f 511/5/3 504/5/3 503/5/3
f 512/5/3 504/5/3 511/5/3
f 513/4/3 500/4/3 499/4/3
f 514/4/3 500/4/3 513/4/3
f 515/3/3 512/3/3 511/3/3
f 516/3/3 512/3/3 515/3/3
f 519/4/3 518/4/3 517/4/3
f 520/4/3 518/4/3 519/4/3
f 521/4/3 518/4/3 520/4/3
f 523/4/3 522/4/3 521/4/3
f 523/4/3 521/4/3 520/4/3
f 524/4/3 522/4/3 523/4/3
f 525/4/3 522/4/3 524/4/3
f 529/4/3 526/4/3 525/4/3
f 529/4/3 525/4/3 524/4/3
f 530/4/3 526/4/3 529/4/3
f 531/4/3 526/4/3 530/4/3
f 533/4/3 532/4/3 531/4/3
f 533/4/3 531/4/3 530/4/3
f 534/4/3 532/4/3 533/4/3
f 538/4/3 533/4/3 530/4/3
f 539/4/3 533/4/3 538/4/3
f 540/4/3 533/4/3 539/4/3
f 541/5/3 528/5/3 527/5/3
f 542/5/3 528/5/3 541/5/3
f 545/4/3 538/4/3 537/4/3
f 545/4/3 539/4/3 538/4/3
f 546/4/3 539/4/3 545/4/3
f 547/4/3 533/4/3 540/4/3
f 548/4/3 533/4/3 547/4/3
f 549/4/3 536/4/3 535/4/3
f 550/4/3 536/4/3 549/4/3
f 551/5/3 543/5/3 542/5/3
f 552/5/3 543/5/3 551/5/3
f 553/5/3 546/5/3 545/5/3
f 553/5/3 545/5/3 544/5/3
f 554/5/3 546/5/3 553/5/3
f 555/5/3 548/5/3 547/5/3
f 556/5/3 548/5/3 555/5/3
f 558/5/3 557/5/3 556/5/3
f 559/5/3 557/5/3 558/5/3
f 560/5/3 557/5/3 559/5/3
f 561/5/3 557/5/3 560/5/3
f 562/5/3 560/5/3 559/5/3
f 563/5/3 560/5/3 562/5/3
f 567/4/3 565/4/3 564/4/3
f 568/4/3 565/4/3 567/4/3
f 570/4/3 569/4/3 568/4/3
f 571/4/3 569/4/3 570/4/3
f 573/4/3 567/4/3 566/4/3
f 574/4/3 567/4/3 573/4/3
f 577/5/3 573/5/3 572/5/3
f 578/5/3 573/5/3 577/5/3
f 579/4/3 576/4/3 575/4/3
f 580/4/3 576/4/3 579/4/3
f 584/4/3 581/4/3 580/4/3
f 585/4/3 581/4/3 584/4/3
f 586/4/3 581/4/3 585/4/3
f 587/4/3 583/4/3 582/4/3
f 588/4/3 583/4/3 587/4/3
f 592/4/3 586/4/3 585/4/3
f 592/4/3 587/4/3 586/4/3
f 593/4/3 587/4/3 592/4/3
f 594/4/3 589/4/3 588/4/3
f 595/4/3 589/4/3 594/4/3
f 596/5/3 591/5/3 590/5/3
f 597/5/3 591/5/3 596/5/3
f 600/4/3 592/4/3 585/4/3
f 601/5/3 599/5/3 598/5/3
f 602/5/3 599/5/3 601/5/3
f 605/4/3 592/4/3 600/4/3
f 606/4/3 592/4/3 605/4/3
f 607/3/3 597/3/3 596/3/3
f 608/3/3 597/3/3 607/3/3
f 609/5/3 603/5/3 602/5/3
f 610/5/3 603/5/3 609/5/3
f 611/5/3 605/5/3 604/5/3
f 612/5/3 605/5/3 611/5/3
f 613/5/3 611/5/3 610/5/3
f 614/5/3 611/5/3 613/5/3
f 619/4/3 616/4/3 615/4/3
f 620/4/3 616/4/3 619/4/3
f 621/4/3 618/4/3 617/4/3
f 622/4/3 618/4/3 621/4/3
f 626/4/3 623/4/3 622/4/3
f 627/4/3 623/4/3 626/4/3
f 630/5/3 625/5/3 624/5/3
f 631/5/3 625/5/3 630/5/3
f 632/4/3 629/4/3 628/4/3
f 633/4/3 629/4/3 632/4/3
f 636/4/3 635/4/3 634/4/3
f 637/4/3 635/4/3 636/4/3
f 640/4/3 639/4/3 638/4/3
f 641/4/3 639/4/3 640/4/3
f 647/4/3 643/4/3 642/4/3
f 647/4/3 644/4/3 643/4/3
f 648/4/3 644/4/3 647/4/3
f 649/5/3 646/5/3 645/5/3
f 650/5/3 646/5/3 649/5/3
f 654/4/3 647/4/3 642/4/3
f 655/4/3 647/4/3 654/4/3
f 656/5/3 652/5/3 651/5/3
f 657/5/3 652/5/3 656/5/3
f 661/6/3 654/6/3 653/6/3
f 662/6/3 654/6/3 661/6/3
f 663/5/3 659/5/3 658/5/3
f 664/5/3 659/5/3 663/5/3
f 665/5/3 661/5/3 660/5/3
f 666/5/3 661/5/3 665/5/3
f 670/5/3 668/5/3 667/5/3
f 670/4/3 669/4/3 668/4/3
f 671/4/3 669/4/3 670/4/3
f 674/4/3 673/4/3 672/4/3
f 675/4/3 673/4/3 674/4/3
f 677/5/3 670/5/3 667/5/3
f 678/5/3 670/5/3 677/5/3
f 679/4/3 676/4/3 675/4/3
f 680/4/3 676/4/3 679/4/3
f 683/4/3 682/4/3 681/4/3
f 684/4/3 682/4/3 683/4/3
f 687/4/3 686/4/3 685/4/3
f 688/4/3 686/4/3 687/4/3
f 696/4/3 690/4/3 689/4/3
f 697/4/3 690/4/3 696/4/3
f 698/5/3 692/5/3 691/5/3
f 699/5/3 692/5/3 698/5/3
f 700/5/3 694/5/3 693/5/3
f 701/5/3 694/5/3 700/5/3
f 703/4/3 696/4/3 695/4/3
f 704/4/3 696/4/3 703/4/3
f 706/4/3 703/4/3 702/4/3
f 707/4/3 703/4/3 706/4/3
f 708/5/3 706/5/3 705/5/3
f 709/5/3 706/5/3 708/5/3
f 713/5/3 711/5/3 710/5/3
f 714/4/3 712/4/3 711/4/3
f 714/5/3 711/5/3 713/5/3
f 715/4/3 712/4/3 714/4/3
f 718/4/3 717/4/3 716/4/3
f 719/4/3 717/4/3 718/4/3
f 721/4/3 720/4/3 719/4/3
f 722/4/3 720/4/3 721/4/3
f 724/4/3 723/4/3 722/4/3
f 725/4/3 723/4/3 724/4/3
f 728/4/3 727/4/3 726/4/3
f 729/4/3 727/4/3 728/4/3
f 730/4/3 727/4/3 729/4/3
f 732/4/3 731/4/3 730/4/3
f 732/4/3 730/4/3 729/4/3
f 733/4/3 731/4/3 732/4/3
f 734/2/3 733/2/3 732/2/3
f 735/4/3 731/4/3 733/4/3
f 735/2/3 733/2/3 734/2/3
f 736/4/3 731/4/3 735/4/3
f 739/3/3 738/3/3 737/3/3
f 740/3/3 739/3/3 737/3/3
f 741/3/3 739/3/3 740/3/3
f 744/3/3 743/3/3 742/3/3
f 745/3/3 743/3/3 744/3/3
f 746/3/4 747/3/4 748/3/4
f 748/3/4 747/3/4 749/3/4
f 750/3/4 751/3/4 752/3/4
f 750/3/4 752/3/4 753/3/4
f 753/3/4 752/3/4 754/3/4
f 755/4/4 756/4/4 757/4/4
f 757/4/4 756/4/4 758/4/4
f 758/4/4 756/4/4 759/4/4
f 759/4/4 760/4/4 761/4/4
f 758/4/4 759/4/4 761/4/4
f 761/4/4 760/4/4 762/4/4
f 761/2/4 762/2/4 763/2/4
f 762/4/4 760/4/4 764/4/4
f 763/2/4 762/2/4 764/2/4
f 764/4/4 760/4/4 765/4/4
f 766/5/4 767/5/4 769/5/4
f 767/4/4 768/4/4 770/4/4
f 769/5/4 767/5/4 770/5/4
f 770/4/4 768/4/4 771/4/4
f 772/4/4 773/4/4 774/4/4
f 774/4/4 773/4/4 775/4/4
f 775/4/4 776/4/4 777/4/4
f 777/4/4 776/4/4 778/4/4
f 778/4/4 779/4/4 780/4/4
f 780/4/4 779/4/4 781/4/4
f 782/5/4 783/5/4 785/5/4
f 783/4/4 784/4/4 785/4/4
f 785/4/4 784/4/4 786/4/4
f 787/4/4 788/4/4 789/4/4
f 789/4/4 788/4/4 790/4/4
f 782/5/4 785/5/4 792/5/4
f 792/5/4 785/5/4 793/5/4
f 790/4/4 791/4/4 794/4/4
f 794/4/4 791/4/4 795/4/4
f 796/4/4 797/4/4 798/4/4
f 798/4/4 797/4/4 799/4/4
f 800/4/4 801/4/4 802/4/4
f 802/4/4 801/4/4 803/4/4
f 804/4/4 805/4/4 811/4/4
f 811/4/4 805/4/4 812/4/4
f 806/5/4 807/5/4 813/5/4
f 813/5/4 807/5/4 814/5/4
f 808/5/4 809/5/4 815/5/4
f 815/5/4 809/5/4 816/5/4
f 810/4/4 811/4/4 818/4/4
f 818/4/4 811/4/4 819/4/4
f 817/4/4 818/4/4 821/4/4
f 821/4/4 818/4/4 822/4/4
f 820/5/4 821/5/4 823/5/4
f 823/5/4 821/5/4 824/5/4
f 825/4/4 826/4/4 829/4/4
f 829/4/4 826/4/4 830/4/4
f 827/4/4 828/4/4 831/4/4
f 831/4/4 828/4/4 832/4/4
f 832/4/4 833/4/4 836/4/4
f 836/4/4 833/4/4 837/4/4
f 834/5/4 835/5/4 840/5/4
f 840/5/4 835/5/4 841/5/4
f 838/4/4 839/4/4 842/4/4
f 842/4/4 839/4/4 843/4/4
f 844/4/4 845/4/4 846/4/4
f 846/4/4 845/4/4 847/4/4
f 848/4/4 849/4/4 850/4/4
f 850/4/4 849/4/4 851/4/4
f 852/4/4 853/4/4 857/4/4
f 853/4/4 854/4/4 857/4/4
f 857/4/4 854/4/4 858/4/4
f 855/5/4 856/5/4 859/5/4
f 859/5/4 856/5/4 860/5/4
f 852/4/4 857/4/4 864/4/4
f 864/4/4 857/4/4 865/4/4
f 861/5/4 862/5/4 866/5/4
f 866/5/4 862/5/4 867/5/4
f 863/6/4 864/6/4 871/6/4
f 871/6/4 864/6/4 872/6/4
f 868/5/4 869/5/4 873/5/4
f 873/5/4 869/5/4 874/5/4
f 870/5/4 871/5/4 875/5/4
f 875/5/4 871/5/4 876/5/4
f 877/4/4 878/4/4 880/4/4
f 880/4/4 878/4/4 881/4/4
f 881/4/4 882/4/4 883/4/4
f 883/4/4 882/4/4 884/4/4
f 879/4/4 880/4/4 886/4/4
f 886/4/4 880/4/4 887/4/4
f 885/5/4 886/5/4 890/5/4
f 890/5/4 886/5/4 891/5/4
f 888/4/4 889/4/4 892/4/4
f 892/4/4 889/4/4 893/4/4
f 893/4/4 894/4/4 897/4/4
f 897/4/4 894/4/4 898/4/4
f 898/4/4 894/4/4 899/4/4
f 895/4/4 896/4/4 900/4/4
f 900/4/4 896/4/4 901/4/4
f 898/4/4 899/4/4 905/4/4
f 899/4/4 900/4/4 905/4/4
f 905/4/4 900/4/4 906/4/4
f 901/4/4 902/4/4 907/4/4
f 907/4/4 902/4/4 908/4/4
f 903/5/4 904/5/4 909/5/4
f 909/5/4 904/5/4 910/5/4
f 898/4/4 905/4/4 913/4/4
f 911/5/4 912/5/4 914/5/4
f 914/5/4 912/5/4 915/5/4
f 913/4/4 905/4/4 918/4/4
f 918/4/4 905/4/4 919/4/4
f 909/3/4 910/3/4 920/3/4
f 920/3/4 910/3/4 921/3/4
f 915/5/4 916/5/4 922/5/4
f 922/5/4 916/5/4 923/5/4
f 917/5/4 918/5/4 924/5/4
f 924/5/4 918/5/4 925/5/4
f 923/5/4 924/5/4 926/5/4
f 926/5/4 924/5/4 927/5/4
f 928/4/4 929/4/4 930/4/4
f 930/4/4 929/4/4 931/4/4
f 931/4/4 929/4/4 932/4/4
f 932/4/4 933/4/4 934/4/4
f 931/4/4 932/4/4 934/4/4
f 934/4/4 933/4/4 935/4/4
f 935/4/4 933/4/4 936/4/4
f 936/4/4 937/4/4 940/4/4
f 935/4/4 936/4/4 940/4/4
f 940/4/4 937/4/4 941/4/4
f 941/4/4 937/4/4 942/4/4
f 942/4/4 943/4/4 944/4/4
f 941/4/4 942/4/4 944/4/4
f 944/4/4 943/4/4 945/4/4
f 941/4/4 944/4/4 949/4/4
f 949/4/4 944/4/4 950/4/4
f 950/4/4 944/4/4 951/4/4
f 938/5/4 939/5/4 952/5/4
f 952/5/4 939/5/4 953/5/4
f 948/4/4 949/4/4 956/4/4
f 949/4/4 950/4/4 956/4/4
f 956/4/4 950/4/4 957/4/4
f 951/4/4 944/4/4 958/4/4
f 958/4/4 944/4/4 959/4/4
f 946/4/4 947/4/4 960/4/4
f 960/4/4 947/4/4 961/4/4
f 953/5/4 954/5/4 962/5/4
f 962/5/4 954/5/4 963/5/4
f 956/5/4 957/5/4 964/5/4
f 955/5/4 956/5/4 964/5/4
f 964/5/4 957/5/4 965/5/4
f 958/5/4 959/5/4 966/5/4
f 966/5/4 959/5/4 967/5/4
f 967/5/4 968/5/4 969/5/4
f 969/5/4 968/5/4 970/5/4
f 970/5/4 968/5/4 971/5/4
f 971/5/4 968/5/4 972/5/4
f 970/5/4 971/5/4 973/5/4
f 973/5/4 971/5/4 974/5/4
f 975/4/4 976/4/4 978/4/4
f 978/4/4 976/4/4 979/4/4
f 977/5/4 978/5/4 981/5/4
f 979/5/4 980/5/4 981/5/4
f 978/5/4 979/5/4 981/5/4
f 977/5/4 981/5/4 985/5/4
f 981/5/4 982/5/4 985/5/4
f 985/5/4 982/5/4 986/5/4
f 977/5/4 985/5/4 989/5/4
f 989/5/4 985/5/4 990/5/4
f 990/5/4 985/5/4 991/5/4
f 991/5/4 985/5/4 992/5/4
f 990/5/4 991/5/4 993/5/4
f 993/5/4 991/5/4 994/5/4
f 987/5/4 988/5/4 995/5/4
f 995/5/4 988/5/4 996/5/4
f 983/4/4 984/4/4 997/4/4
f 997/4/4 984/4/4 998/4/4
f 995/3/4 996/3/4 999/3/4
f 999/3/4 996/3/4 1000/3/4
f 1004/5/5 1002/5/5 1001/5/5
f 1005/5/5 1002/5/5 1004/5/5
f 1009/5/5 1004/5/5 1003/5/5
f 1009/5/5 1005/5/5 1004/5/5
f 1009/5/5 1006/5/5 1005/5/5
f 1010/3/5 1007/3/5 1006/3/5
f 1010/5/5 1006/5/5 1009/5/5
f 1011/3/5 1007/3/5 1010/3/5
f 1013/5/5 1009/5/5 1008/5/5
f 1013/5/5 1010/5/5 1009/5/5
f 1015/5/5 1013/5/5 1012/5/5
f 1016/5/5 1013/5/5 1015/5/5
f 1017/5/5 1010/5/5 1013/5/5
f 1017/5/5 1013/5/5 1016/5/5
f 1018/5/5 1016/5/5 1015/5/5
f 1018/5/5 1015/5/5 1014/5/5
f 1019/5/5 1016/5/5 1018/5/5
f 1020/1/5 1017/1/5 1016/1/5
f 1020/5/5 1016/5/5 1019/5/5
f 1021/5/5 1010/5/5 1017/5/5
f 1021/1/5 1017/1/5 1020/1/5
f 1022/5/5 1020/5/5 1019/5/5
f 1022/5/5 1021/5/5 1020/5/5
f 1023/5/5 1010/5/5 1021/5/5
f 1023/5/5 1021/5/5 1022/5/5
f 1024/5/5 1010/5/5 1023/5/5
f 1025/5/5 1010/5/5 1024/5/5
f 1026/5/5 1010/5/5 1025/5/5
f 1028/5/5 1026/5/5 1025/5/5
f 1029/5/5 1026/5/5 1028/5/5
f 1030/5/5 1026/5/5 1029/5/5
f 1031/3/5 1027/3/5 1026/3/5
f 1031/5/5 1026/5/5 1030/5/5
f 1032/3/5 1027/3/5 1031/3/5
f 1033/5/5 1030/5/5 1029/5/5
f 1034/5/5 1030/5/5 1033/5/5
f 1037/5/5 1036/5/5 1035/5/5
f 1038/5/5 1036/5/5 1037/5/5
f 1041/5/5 1037/5/5 1035/5/5
f 1042/5/5 1037/5/5 1041/5/5
f 1043/5/5 1039/5/5 1038/5/5
f 1044/5/5 1039/5/5 1043/5/5
f 1046/4/5 1041/4/5 1040/4/5
f 1047/4/5 1041/4/5 1046/4/5
f 1048/4/5 1041/4/5 1047/4/5
f 1051/4/5 1046/4/5 1045/4/5
f 1051/4/5 1047/4/5 1046/4/5
f 1052/4/5 1047/4/5 1051/4/5
f 1055/4/5 1054/4/5 1053/4/5
f 1056/4/5 1054/4/5 1055/4/5
f 1057/4/5 1054/4/5 1056/4/5
f 1059/5/5 1050/5/5 1049/5/5
f 1060/5/5 1050/5/5 1059/5/5
f 1061/4/5 1058/4/5 1057/4/5
f 1061/4/5 1057/4/5 1056/4/5
f 1062/4/5 1058/4/5 1061/4/5
f 1066/5/5 1063/5/5 1062/5/5
f 1067/5/5 1065/5/5 1064/5/5
f 1068/5/5 1065/5/5 1067/5/5
f 1069/5/5 1066/5/5 1062/5/5
f 1069/5/5 1067/5/5 1066/5/5
f 1070/5/5 1067/5/5 1069/5/5
f 1074/4/5 1072/4/5 1071/4/5
f 1076/4/5 1074/4/5 1073/4/5
f 1077/4/5 1072/4/5 1074/4/5
f 1077/4/5 1074/4/5 1076/4/5
f 1080/4/5 1076/4/5 1075/4/5
f 1081/4/5 1076/4/5 1080/4/5
f 1082/5/5 1079/5/5 1078/5/5
f 1083/5/5 1079/5/5 1082/5/5
f 1086/5/5 1085/5/5 1084/5/5
f 1087/5/5 1085/5/5 1086/5/5
f 1092/4/5 1089/4/5 1088/4/5
f 1093/4/5 1089/4/5 1092/4/5
f 1095/5/5 1091/5/5 1090/5/5
f 1096/5/5 1091/5/5 1095/5/5
f 1097/4/5 1094/4/5 1093/4/5
f 1098/4/5 1094/4/5 1097/4/5
f 1099/4/5 1094/4/5 1098/4/5
f 1100/4/5 1094/4/5 1099/4/5
f 1103/5/5 1102/5/5 1101/5/5
f 1104/5/5 1102/5/5 1103/5/5
f 1107/5/5 1106/5/5 1105/5/5
f 1108/5/5 1106/5/5 1107/5/5
f 1111/5/5 1110/5/5 1109/5/5
f 1112/5/5 1110/5/5 1111/5/5
f 1115/5/5 1114/5/5 1113/5/5
f 1116/5/5 1114/5/5 1115/5/5
f 1120/5/5 1118/5/5 1117/5/5
f 1121/5/5 1118/5/5 1120/5/5
f 1122/3/5 1119/3/5 1118/3/5
f 1122/5/5 1118/5/5 1121/5/5
f 1123/3/5 1119/3/5 1122/3/5
f 1128/5/5 1125/5/5 1124/5/5
f 1128/5/5 1126/5/5 1125/5/5
f 1129/3/5 1127/3/5 1126/3/5
f 1129/5/5 1126/5/5 1128/5/5
f 1130/3/5 1127/3/5 1129/3/5
f 1133/4/5 1132/4/5 1131/4/5
f 1134/4/5 1132/4/5 1133/4/5
f 1135/4/5 1132/4/5 1134/4/5
f 1137/5/5 1136/5/5 1135/5/5
f 1138/5/5 1136/5/5 1137/5/5
f 1140/5/5 1139/5/5 1138/5/5
f 1142/5/5 1140/5/5 1138/5/5
f 1142/5/5 1141/5/5 1140/5/5
f 1143/5/5 1141/5/5 1142/5/5
f 1145/5/5 1142/5/5 1138/5/5
f 1146/5/5 1142/5/5 1145/5/5
f 1149/5/5 1145/5/5 1144/5/5
f 1150/5/5 1145/5/5 1149/5/5
f 1151/4/5 1148/4/5 1147/4/5
f 1151/4/5 1149/4/5 1148/4/5
f 1152/4/5 1149/4/5 1151/4/5
f 1155/5/5 1154/5/5 1153/5/5
f 1156/5/5 1154/5/5 1155/5/5
f 1158/5/5 1157/5/5 1156/5/5
f 1159/5/5 1157/5/5 1158/5/5
f 1162/5/5 1161/5/5 1160/5/5
f 1163/5/5 1161/5/5 1162/5/5
f 1167/5/5 1165/5/5 1164/5/5
f 1168/5/5 1165/5/5 1167/5/5
f 1169/5/5 1167/5/5 1166/5/5
f 1170/5/5 1167/5/5 1169/5/5
f 1174/4/5 1172/4/5 1171/4/5
f 1175/4/5 1172/4/5 1174/4/5
f 1176/4/5 1174/4/5 1173/4/5
f 1177/4/5 1174/4/5 1176/4/5
f 1180/4/5 1179/4/5 1178/4/5
f 1181/4/5 1179/4/5 1180/4/5
f 1183/4/5 1182/4/5 1181/4/5
f 1184/4/5 1182/4/5 1183/4/5
f 1185/3/6 1186/3/6 1187/3/6
f 1187/3/6 1186/3/6 1188/3/6
f 1188/3/6 1186/3/6 1189/3/6
f 1190/3/6 1191/3/6 1193/3/6
f 1191/3/6 1192/3/6 1193/3/6
f 1193/3/6 1192/3/6 1194/3/6
f 1195/4/6 1196/4/6 1198/4/6
f 1197/4/6 1198/4/6 1199/4/6
f 1198/4/6 1196/4/6 1200/4/6
f 1199/4/6 1198/4/6 1200/4/6
f 1200/4/6 1196/4/6 1201/4/6
f 1201/4/6 1196/4/6 1202/4/6
f 1203/4/6 1204/4/6 1207/4/6
f 1207/4/6 1204/4/6 1208/4/6
f 1205/5/6 1206/5/6 1209/5/6
f 1209/5/6 1206/5/6 1210/5/6
f 1211/4/6 1212/4/6 1215/4/6
f 1215/4/6 1212/4/6 1216/4/6
f 1213/5/6 1214/5/6 1217/5/6
f 1217/5/6 1214/5/6 1218/5/6
f 1219/5/6 1220/5/6 1223/5/6
f 1223/5/6 1220/5/6 1224/5/6
f 1221/5/6 1222/5/6 1225/5/6
f 1225/5/6 1222/5/6 1226/5/6
f 1227/5/6 1228/5/6 1231/5/6
f 1231/5/6 1228/5/6 1232/5/6
f 1229/5/6 1230/5/6 1233/5/6
f 1233/5/6 1230/5/6 1234/5/6
f 1235/5/6 1236/5/6 1239/5/6
f 1239/5/6 1236/5/6 1240/5/6
f 1237/4/6 1238/4/6 1242/4/6
f 1242/4/6 1238/4/6 1243/4/6
f 1241/4/6 1242/4/6 1244/4/6
f 1244/4/6 1242/4/6 1245/4/6
f 1246/5/6 1247/5/6 1248/5/6
f 1248/5/6 1247/5/6 1249/5/6
f 1250/5/6 1251/5/6 1254/5/6
f 1254/5/6 1251/5/6 1255/5/6
f 1252/4/6 1253/4/6 1256/4/6
f 1256/4/6 1253/4/6 1257/4/6
f 1257/4/6 1258/4/6 1259/4/6
f 1259/4/6 1258/4/6 1260/4/6
f 1261/5/6 1262/5/6 1263/5/6
f 1263/5/6 1262/5/6 1264/5/6
f 1265/4/6 1266/4/6 1268/4/6
f 1268/4/6 1266/4/6 1269/4/6
f 1267/4/6 1268/4/6 1270/4/6
f 1270/4/6 1268/4/6 1271/4/6
f 1272/5/6 1273/5/6 1276/5/6
f 1276/5/6 1273/5/6 1277/5/6
f 1274/4/6 1275/4/6 1278/4/6
f 1278/4/6 1275/4/6 1279/4/6
f 1279/4/6 1280/4/6 1281/4/6
f 1281/4/6 1280/4/6 1282/4/6
f 1283/5/6 1284/5/6 1286/5/6
f 1286/5/6 1284/5/6 1287/5/6
f 1284/3/6 1285/3/6 1288/3/6
f 1287/5/6 1284/5/6 1288/5/6
f 1288/3/6 1285/3/6 1289/3/6
f 1290/4/6 1291/4/6 1293/4/6
f 1293/4/6 1291/4/6 1294/4/6
f 1292/4/6 1293/4/6 1295/4/6
f 1295/4/6 1293/4/6 1296/4/6
f 1297/4/6 1298/4/6 1299/4/6
f 1299/4/6 1298/4/6 1300/4/6
f 1300/4/6 1301/4/6 1302/4/6
f 1302/4/6 1301/4/6 1303/4/6
f 1304/5/6 1305/5/6 1308/5/6
f 1305/5/6 1306/5/6 1308/5/6
f 1306/3/6 1307/3/6 1309/3/6
f 1308/5/6 1306/5/6 1309/5/6
f 1309/3/6 1307/3/6 1310/3/6
f 1311/4/6 1312/4/6 1313/4/6
f 1313/4/6 1312/4/6 1314/4/6
f 1315/4/6 1316/4/6 1318/4/6
f 1318/4/6 1316/4/6 1319/4/6
f 1317/4/6 1318/4/6 1320/4/6
f 1320/4/6 1318/4/6 1321/4/6
f 1321/4/6 1322/4/6 1323/4/6
f 1323/4/6 1322/4/6 1324/4/6
f 1325/4/6 1326/4/6 1327/4/6
f 1327/4/6 1326/4/6 1328/4/6
f 1329/4/6 1330/4/6 1331/4/6
f 1331/4/6 1330/4/6 1332/4/6
f 1333/4/6 1334/4/6 1335/4/6
f 1335/4/6 1334/4/6 1336/4/6
f 1337/4/6 1338/4/6 1339/4/6
f 1339/4/6 1338/4/6 1340/4/6
f 1341/4/6 1342/4/6 1343/4/6
f 1343/4/6 1342/4/6 1344/4/6
f 1345/4/6 1346/4/6 1350/4/6
f 1350/4/6 1346/4/6 1351/4/6
f 1347/5/6 1348/5/6 1352/5/6
f 1352/5/6 1348/5/6 1353/5/6
f 1349/4/6 1350/4/6 1355/4/6
f 1355/4/6 1350/4/6 1356/4/6
f 1353/5/6 1354/5/6 1357/5/6
f 1357/5/6 1354/5/6 1358/5/6
f 1359/4/6 1360/4/6 1362/4/6
f 1362/4/6 1360/4/6 1363/4/6
f 1361/4/6 1362/4/6 1364/4/6
f 1364/4/6 1362/4/6 1365/4/6
f 1365/4/6 1366/4/6 1367/4/6
f 1367/4/6 1366/4/6 1368/4/6
f 1369/4/6 1370/4/6 1373/4/6
f 1373/4/6 1370/4/6 1374/4/6
f 1371/5/6 1372/5/6 1377/5/6
f 1377/5/6 1372/5/6 1378/5/6
f 1374/4/6 1375/4/6 1379/4/6
f 1379/4/6 1375/4/6 1380/4/6
f 1376/5/6 1377/5/6 1381/5/6
f 1381/5/6 1377/5/6 1382/5/6
f 1383/4/6 1384/4/6 1385/4/6
f 1383/4/6 1385/4/6 1387/4/6
f 1385/5/6 1386/5/6 1388/5/6
f 1387/4/6 1385/4/6 1388/4/6
f 1388/5/6 1386/5/6 1389/5/6
f 1389/5/6 1390/5/6 1393/5/6
f 1393/5/6 1390/5/6 1394/5/6
f 1391/4/6 1392/4/6 1396/4/6
f 1396/4/6 1392/4/6 1397/4/6
f 1394/5/6 1395/5/6 1398/5/6
f 1398/5/6 1395/5/6 1399/5/6
f 1399/5/6 1400/5/6 1403/5/6
f 1403/5/6 1400/5/6 1404/5/6
f 1401/4/6 1402/4/6 1405/4/6
f 1405/4/6 1402/4/6 1406/4/6
f 1403/2/6 1404/2/6 1407/2/6
f 1407/2/6 1404/2/6 1408/2/6
f 1407/5/6 1408/5/6 1412/5/6
f 1412/5/6 1408/5/6 1413/5/6
f 1409/4/6 1410/4/6 1414/4/6
f 1414/4/6 1410/4/6 1415/4/6
f 1411/5/6 1412/5/6 1417/5/6
f 1417/5/6 1412/5/6 1418/5/6
f 1416/5/6 1417/5/6 1421/5/6
f 1421/5/6 1417/5/6 1422/5/6
f 1419/4/6 1420/4/6 1423/4/6
f 1420/5/6 1421/5/6 1423/5/6
f 1423/5/6 1421/5/6 1424/5/6
f 1419/4/6 1423/4/6 1425/4/6
f 1425/4/6 1423/4/6 1426/4/6
f 1427/4/6 1428/4/6 1431/4/6
f 1431/4/6 1428/4/6 1432/4/6
f 1429/4/6 1430/4/6 1433/4/6
f 1433/4/6 1430/4/6 1434/4/6
f 1434/6/6 1435/6/6 1438/6/6
f 1438/6/6 1435/6/6 1439/6/6
f 1436/4/6 1437/4/6 1441/4/6
f 1441/4/6 1437/4/6 1442/4/6
f 1439/4/6 1440/4/6 1444/4/6
f 1444/4/6 1440/4/6 1445/4/6
f 1443/6/6 1444/6/6 1449/6/6
f 1449/6/6 1444/6/6 1450/6/6
f 1446/4/6 1447/4/6 1451/4/6
f 1451/4/6 1447/4/6 1452/4/6
f 1448/4/6 1449/4/6 1453/4/6
f 1453/4/6 1449/4/6 1454/4/6
f 1455/4/6 1456/4/6 1459/4/6
f 1459/4/6 1456/4/6 1460/4/6
f 1457/4/6 1458/4/6 1462/4/6
f 1462/4/6 1458/4/6 1463/4/6
f 1460/4/6 1461/4/6 1465/4/6
f 1465/4/6 1461/4/6 1466/4/6
f 1464/4/6 1465/4/6 1467/4/6
f 1467/4/6 1465/4/6 1468/4/6
f 1469/4/6 1470/4/6 1473/4/6
f 1473/4/6 1470/4/6 1474/4/6
f 1471/4/6 1472/4/6 1476/4/6
f 1474/4/6 1475/4/6 1476/4/6
f 1473/4/6 1474/4/6 1476/4/6
f 1472/4/6 1473/4/6 1476/4/6
f 1476/4/6 1475/4/6 1477/4/6
f 1477/4/6 1475/4/6 1478/4/6
f 1478/4/6 1475/4/6 1479/4/6
f 1479/4/6 1475/4/6 1480/4/6
f 1478/4/6 1479/4/6 1481/4/6
f 1481/4/6 1479/4/6 1482/4/6
f 1483/4/6 1484/4/6 1486/4/6
f 1486/4/6 1484/4/6 1487/4/6
f 1485/4/6 1486/4/6 1488/4/6
f 1488/4/6 1486/4/6 1489/4/6
f 1490/4/6 1491/4/6 1492/4/6
f 1492/4/6 1491/4/6 1493/4/6
f 1493/4/6 1494/4/6 1495/4/6
f 1495/4/6 1494/4/6 1496/4/6
f 1497/4/6 1498/4/6 1499/4/6
f 1499/4/6 1498/4/6 1500/4/6
f 1501/4/6 1502/4/6 1503/4/6
f 1503/4/6 1502/4/6 1504/4/6
